<mxfile host="65bd71144e" pages="1">
    <diagram id="Muk35M1s3Lf1WXlXDoJJ" name="Page-1">
        <mxGraphModel dx="901" dy="814" grid="1" gridSize="10" guides="0" tooltips="1" connect="0" arrows="1" fold="1" page="1" pageScale="1" pageWidth="1654" pageHeight="2336" background="#FFFFFF" math="0" shadow="0">
            <root>
                <mxCell id="0"/>
                <mxCell id="1" parent="0"/>
                <mxCell id="2" value="" style="rounded=0;whiteSpace=wrap;html=1;" parent="1" vertex="1">
                    <mxGeometry x="27" y="1040" width="210" height="470" as="geometry"/>
                </mxCell>
                <mxCell id="3" value="ECStack调用栈" style="text;html=1;align=center;verticalAlign=middle;resizable=0;points=[];autosize=1;strokeColor=none;" parent="1" vertex="1">
                    <mxGeometry x="47" y="1010" width="100" height="20" as="geometry"/>
                </mxCell>
                <mxCell id="4" value="" style="rounded=0;whiteSpace=wrap;html=1;" parent="1" vertex="1">
                    <mxGeometry x="317" y="1040" width="510" height="470" as="geometry"/>
                </mxCell>
                <mxCell id="5" value="堆内存" style="text;html=1;align=center;verticalAlign=middle;resizable=0;points=[];autosize=1;strokeColor=none;" parent="1" vertex="1">
                    <mxGeometry x="487" y="1010" width="50" height="20" as="geometry"/>
                </mxCell>
                <mxCell id="6" value="String&lt;br&gt;setTimeout&lt;br&gt;window&lt;br&gt;foo: 0xa00&lt;br&gt;fn: 0xb00" style="rounded=0;whiteSpace=wrap;html=1;align=left;" parent="1" vertex="1">
                    <mxGeometry x="367" y="1070" width="120" height="110" as="geometry"/>
                </mxCell>
                <mxCell id="7" value="GO对象" style="text;html=1;align=center;verticalAlign=middle;resizable=0;points=[];autosize=1;strokeColor=none;" parent="1" vertex="1">
                    <mxGeometry x="367" y="1050" width="60" height="20" as="geometry"/>
                </mxCell>
                <mxCell id="8" value="" style="rounded=0;whiteSpace=wrap;html=1;align=left;" parent="1" vertex="1">
                    <mxGeometry x="40" y="1380" width="187" height="120" as="geometry"/>
                </mxCell>
                <mxCell id="9" value="GEC(全局执行上下文)" style="text;html=1;align=center;verticalAlign=middle;resizable=0;points=[];autosize=1;strokeColor=none;" parent="1" vertex="1">
                    <mxGeometry x="67" y="1350" width="130" height="20" as="geometry"/>
                </mxCell>
                <mxCell id="12" value="VO: GO" style="rounded=0;whiteSpace=wrap;html=1;align=left;" parent="1" vertex="1">
                    <mxGeometry x="50" y="1390" width="170" height="40" as="geometry"/>
                </mxCell>
                <mxCell id="13" value="开始执行代码&lt;br&gt;var fn = 0xb00" style="rounded=0;whiteSpace=wrap;html=1;align=left;" parent="1" vertex="1">
                    <mxGeometry x="50" y="1440" width="170" height="50" as="geometry"/>
                </mxCell>
                <mxCell id="19" value="&lt;span style=&quot;color: rgba(0 , 0 , 0 , 0) ; font-family: monospace ; font-size: 0px&quot;&gt;%3CmxGraphModel%3E%3Croot%3E%3CmxCell%20id%3D%220%22%2F%3E%3CmxCell%20id%3D%221%22%20parent%3D%220%22%2F%3E%3CmxCell%20id%3D%222%22%20value%3D%22%E4%BB%A3%E7%A0%81%E7%9A%84%E6%89%A7%E8%A1%8C%E4%BD%93%22%20style%3D%22rounded%3D0%3BwhiteSpace%3Dwrap%3Bhtml%3D1%3Balign%3Dleft%3B%22%20vertex%3D%221%22%20parent%3D%221%22%3E%3CmxGeometry%20x%3D%22525%22%20y%3D%221100%22%20width%3D%22115%22%20height%3D%2220%22%20as%3D%22geometry%22%2F%3E%3C%2FmxCell%3E%3C%2Froot%3E%3C%2FmxGraphModel%3E&lt;/span&gt;" style="rounded=0;whiteSpace=wrap;html=1;align=left;" parent="1" vertex="1">
                    <mxGeometry x="367" y="1220" width="120" height="60" as="geometry"/>
                </mxCell>
                <mxCell id="20" value="foo函数对象0xa00" style="text;html=1;align=center;verticalAlign=middle;resizable=0;points=[];autosize=1;strokeColor=none;" parent="1" vertex="1">
                    <mxGeometry x="362" y="1190" width="110" height="20" as="geometry"/>
                </mxCell>
                <mxCell id="31" value="name: &quot;foo&quot;&lt;br&gt;bar: 0xb00" style="rounded=0;whiteSpace=wrap;html=1;align=left;" parent="1" vertex="1">
                    <mxGeometry x="517" y="1070" width="120" height="110" as="geometry"/>
                </mxCell>
                <mxCell id="32" value="AO对象(foo)" style="text;html=1;align=center;verticalAlign=middle;resizable=0;points=[];autosize=1;strokeColor=none;" parent="1" vertex="1">
                    <mxGeometry x="517" y="1050" width="80" height="20" as="geometry"/>
                </mxCell>
                <mxCell id="33" value="" style="rounded=0;whiteSpace=wrap;html=1;align=left;" parent="1" vertex="1">
                    <mxGeometry x="517" y="1220" width="120" height="60" as="geometry"/>
                </mxCell>
                <mxCell id="34" value="bar函数对象0xb00" style="text;html=1;align=center;verticalAlign=middle;resizable=0;points=[];autosize=1;strokeColor=none;" parent="1" vertex="1">
                    <mxGeometry x="512" y="1190" width="110" height="20" as="geometry"/>
                </mxCell>
                <mxCell id="37" value="" style="rounded=0;whiteSpace=wrap;html=1;align=left;" parent="1" vertex="1">
                    <mxGeometry x="40" y="1210" width="187" height="120" as="geometry"/>
                </mxCell>
                <mxCell id="38" value="FEC(函数执行上下文bar)" style="text;html=1;align=center;verticalAlign=middle;resizable=0;points=[];autosize=1;strokeColor=none;" parent="1" vertex="1">
                    <mxGeometry x="62" y="1180" width="150" height="20" as="geometry"/>
                </mxCell>
                <mxCell id="41" value="" style="rounded=0;whiteSpace=wrap;html=1;align=left;" parent="1" vertex="1">
                    <mxGeometry x="667" y="1070" width="120" height="110" as="geometry"/>
                </mxCell>
                <mxCell id="42" value="AO对象(bar)" style="text;html=1;align=center;verticalAlign=middle;resizable=0;points=[];autosize=1;strokeColor=none;" parent="1" vertex="1">
                    <mxGeometry x="667" y="1050" width="80" height="20" as="geometry"/>
                </mxCell>
                <mxCell id="43" value="VO: AO&lt;br&gt;scope chain: VO+parentScope" style="rounded=0;whiteSpace=wrap;html=1;align=left;" parent="1" vertex="1">
                    <mxGeometry x="50" y="1220" width="173" height="40" as="geometry"/>
                </mxCell>
                <mxCell id="44" value="console.log(&quot;bar&quot;,&quot;foo&quot;)" style="rounded=0;whiteSpace=wrap;html=1;align=left;" parent="1" vertex="1">
                    <mxGeometry x="60" y="1280" width="140" height="40" as="geometry"/>
                </mxCell>
                <mxCell id="45" value="parentScope: foo ao" style="rounded=0;whiteSpace=wrap;html=1;align=left;" parent="1" vertex="1">
                    <mxGeometry x="522" y="1230" width="115" height="20" as="geometry"/>
                </mxCell>
                <mxCell id="46" value="代码的执行体" style="rounded=0;whiteSpace=wrap;html=1;align=left;" parent="1" vertex="1">
                    <mxGeometry x="522" y="1260" width="115" height="20" as="geometry"/>
                </mxCell>
                <mxCell id="48" value="" style="shape=image;verticalLabelPosition=bottom;labelBackgroundColor=#ffffff;verticalAlign=top;aspect=fixed;imageAspect=0;image=data:image/png,iVBORw0KGgoAAAANSUhEUgAAAQMAAAFaCAYAAAAaUDj0AAAgAElEQVR4nO3de1RUZ5r4++/vpFc7iVAQLARFFLXIgJgoZrxFvFBKxATTidDaIUmf1d1iMTpJn5U4cfjRIUd6GI+OyZxOWoaC9PRaaSWtAzGdECUNlpdoQNMJxhZ1pOQiwYAggSpM2l6ddc4ftevGdRdSQMHzWYu12Pvd+90vl/3U+75772f/r+nTp/9/CCHGvf9jpBsghBgdJBgIIQD43kg3YNAW7GNJ0mxloYu6t1JouTGiLQJgQmIRsYv8aC5JpP7z4T76GoymRCKVpa6KPJ7INA9h/d/xzqEmJh+bzmqjfd0djn10h8/Wanj5Lmrek3udTbOBayHM2Drh7psqPOZxMIh63MDKaVaq3y3kdKs3mqRGGhFJs0fghIsn5IUd3Ht6JE70gaXnJxJpLkW/pdwr9e/JbeKRthBmGF3XTuD3lVZ+ceg2NRsnUjCYig0WNs0O5OBdBhRxdzwYJkSRZDCg66jG6r32qDM1nIlco30UnpB3SlOozB6JYKFjRjDUnPdOIHCcsL18ahe8quVg2y1e2PndoKpOm/pXuDZBAsEIU90ziHp8AR3vGjlNHKlzvdkkFUIn4d9rQRoRWWv51mXIoHm2lPC23VSXHrcNLeacp6ptLbGL/ACwnlPK7NyGH85yzbOlzJmlrEwqJTSJbvunEZGVTCjQ17DFrQ63beIJeWEbFH3EvZvtdVzjUvY2LKp/KREEBfRV5j58oLOKnKcOcMy+nPAM72fE4mdf7tG7+I53Vndgfnd6nyfsy8WTWPfybfYgn+6+SnUwuPJhoe2bYG81ZWD28bjdnKxS2ze1xVTuV9lBnZVMLMVUZhcoJ34KmtLjtpNuwT6WJIVQ91ZijxPZsj+Ryn6HCQXUZxdQrwSk3to+J+gcVdlZ3LH/LJv38a3jhPdj5ua11L2VSOUN23HCE+PdA1Vvup/IKXsxpQA0cEj/Jnno2HU4kSkVeegzzYCOXYfTycxv4diWcmANxoxYvirajiEX7IHj/Zx653zD6r8wNyCQo8aeh3c49ndcNDTxsEED/W0nRi2fuppg74JXllzD9smZaFtWGwgAOs5RZd/+8/M0E8K9UwHiCYmbjfXcPi9MRKYxZZEfzadtgQDgTuk+6jpmE7TAuVVzib2ncJyOq134a3UDV112gCf029HrS6kBaoq2o9dvR69/kzyAretYHNDAEcdEopmM3Cq6dNGkA6tzlhHZWcWhXHuF5RiKGvCbs5jV9lW679B03kNNvw25h8Y2mDzV86FCZPA3WFp9dy57rPCpYOBdOu4NhNs3B/gkHrQuvm32UtUD6Wzv/0RubXEOGXqRNvWvqg5T03ofmuC/qW5W2s42Gj66zsNfTOfBV+9RvZ/wDgkGDma+7fBm/X7cG+q6bAs+wyIgyDlfABAZ5BxWAASHOHsBwOqwILfdC258X9VhPP2EL3hVy4y10/ls3nX+PMjJRzF0xmAwcJ50ExKLXCbsBmLrmocm7UPTzzbftkPonDQP21RAey2ExmVjn4ufkLiW0I5zfOXtqw65l6lhBo/l2IccOnYlzKCr4ih5wLETZroCYtm41b7DGjYu9aemzGWC0XwPloDv3ANKD98RroWbNzz/hPe0RyG8Q3UY1y5LJXmucw4/ZoOBGEb6foPuCqgvmc8S+2x/bTGXapMJV7n3ndIUqigi1j4xSc+rDZb9xTRnJbMkK9m9vNtVCDaXMtPlioFlfyKXni11qfsal7KdcwjeU45BD0ZTOiaTsspcqkwmYptzAN7PsE88Kjcr5bpUoUwOrts5kZf76s6rmWQUo9r/kgeVhCoGCw0b6PPGoD2511nXGjaosX/azjZ+Eewvdx6OsDE4TBBeYdRw8FoHm3J79mXSdraxSTuJNwY5CVhw4/ug/RueDr7E0JKegfCAPJswlkkwEEIAMkwQQih8KhjMmqX6OqEQwkM+FQyEEN4jwWCMSMpcPORlYnyRp0PGqKTMxZTknO1zvT0I2LdxDQqu5a7rxNg2vnsGU0JYlRlBaB/FoamLWfWo71zmSspc7HaSdz+huweI7t93P+F7WyfGLg96BlriUpOJsd+R/OVJjB9e8UqjhktofAR8ep5eHyacEkLUzBauFHp2w3Bo6mL+YSY0HznLn6rcy/wejWHVQvsjQl38z39VU/PVYFrurq9eQG8nd/f97OtluCA8eDbhUaY3FGM804YtBdpKUpe1UXimzYvN8yYN0/o52f0e1MKn5t4DxQB1/ukI/EO0BqqceYr8Ho1h1QNtnMippsu+/NMIrDn1Hh7DXX/Dgb6W7dv31kuQoDB+qQ4GbWcKKXQsXcH85UpWBmoB3wwGfo+GE1rXyJ96LdUQtRCa/svDx4higwjt/JYrVd/S/FgQoViUE91W3//8VwtdyqZdfzTzPw/MZ1psPc2OHoSGf8iMJrTuMiWF6hKe9Te+VxMketPbcKKvoCPGjnE6gWg/OXs/4RyBwsMufGh0CF1Xz9MFdHaGOE/0Kffix22+dKvvDtZ2+PtuPYjBGOzJ2ldgUDPkEGPP4IJBdJKSLt1H5wxigwjtbONKryf7BKY84EfzGU9PUA3TZnbRdNzWm/jqapfzRA+9F7/Obx29Aruuti7Quq6x8KchPOn66wX0d3L3tp8Eg7HP82AQHEfqijCaThlHUR4DT0wgclkIzWfO9jg5AYidwt9Tz4mq3gr70S3AdP25ja6fKkOF5m/pCrgXP3A7pp/Wj662u8to4Hridr9cONAwoa+TvntPQ+YRxgfPgkFwHKkbYuBiMSWXvdQib5sSSFhAC1f6ONldu/qeCI0OgQBYlRnhtt42VPiWLrT4T4FmR29kAv5B0HX57oKB6wnr6af33ewrxh71wcAlEPjuFQTvXE60n9jdLyeGpi52XFX4ss6Pf0gO4atftyhXE3S99EA8n0Dsz1B8okugGD/Uv0RlUYztxSVzkzE4XqIy2tKeDcR9XN+d34Na/OoaPb/U10dvo/lyC9ivKhSe5U+pi509h856Tvy6xeMeyEBcT15PriZ0v/QoVxDGHw9eomLER6cLHfq/StD/FYZ+fdXCiZxe1lfVU+ISIJoLz1LSb0V3N4Hoyck70O3GrrctS0AYH8bVpcWuP1b3czJa+FNO9TC2Zuh5coVgoG1dexfdJybF2ORTmY5mzZpFbW3tSDdDiDFpfD+oJIRwkGAghAAkGAghFBIMhBCABAMhhEKCgRACgHsCAgL+75FuhFr3338/X3/99Ug3Q7h6aDnvPfsQkbVXYXESv9oQwr0V1znfbbMV+iR+teEf+NEjD/KjRwJ73cZbxxbqqL/pKDoJw4ow5/IYSHsmhklIDIZY+Gx/Ib9sGenGiL6oDwaXSzA6nlS05UP07bRnYki0tHMb+LIFToV08qKlnWvdtwkJYqKljpNDHQjUHFuoNsjbkdto64TpQ9sWL4sn5IUdaK/uprr0eB/rbMszA5XijnNUvZHFHZdt7z2dSPucUubMAuii7q0UWm4MfPTQnAts5E0+Ds5kvc62rq4ogt/l2rdIY93hTBYGKIudn5D/VCrNpLHu8PNw6SYLl+rAfJAP2MR6nfv+oTkX2LJUo+xs5gP9GjxNyTAoLdU885ry/YWPefJCz01WaAOA9l53X6FP4sVYjWO5tqyQF13q+ElKKj+YYV+y8Nn+EmfvQsWxhXqDnECMQjfNyvWrvtQrOE7H1S78H4jHmfxcx72BXbRdsAWHCYkpUJRIZXYildm7qWMRusR4t1pCk0oJb9tNZXYil2r9mKlX/yLxwKWZLG/NIVsfQX6FhZkJhY407aE5myA3gmx9BNn6HD7lETbm2OvWsHDOTfJ3fUKHbhPLW3Ns+8/fbSveWs6WpTf5QB+h1D2Z9YcL+0wBP1x+kpLKey+l2k52zTxefMm2fECvnPwPLefF2E7+8FohT75WyJNljcxKSOKVEFvxCn0SP7j/C15Xyl+vgoefXc5PRu5HGtM86hlol6WSPFfJlf7lSUp85tFlmzulH9G8aC2BU7F9mi+YT2jtR1TesJdvw9mTPU7H1W3M1OqA485KaosdPQvLpWsQF84EQFUGBPNB3sgsAKD5xEU6lk5mCtAMNGeu4ahjwwKqLj3PwmAdYAagriyVZgoBMx9nFkDO846tY+frqCuKcPQEmjOPUmdaR2wCHC0boE36nRzavhC/7utr3+Wxf3pLzU/Vp98WFfJblE//2XW8XlDNKUephlcWh3O7qoTf2ldd+Jg/PJDKmhgNtATwZKyG2jLnPqdMp1g5O4kHHwKkFzDkPAoGbWcKMZ6xfa9dloohVUtx4Wkfyo9cQHttMuEPxdNy4ziaObNpvrTNWTw1m5jNi/B33aXbc1HNlwqcC59vo/LzIWpaQiEvZDxCoOs6s5od0wgNhpkp9WSluK63qPu7mF5lo0l9M4daS1t/j4xb+FomHIfNoB9hbrt6HevcQHwtWbrl0jX84+KZUKojaNY12vfbS9KI2LwIzu2mstQ+bCgiVttnVUNoN89lPAIVOWQrPYfQnAtsCVZfg/v8gwe82DNQI0SrAewBQcO0+3GZXtBwfwg4u2sB3K9BeMmgg0HUohj8vzzpewlPPj9Pc9J8JiyYxMRzRdR3K759UxkSTM1Gt8ivR8/Am75uUnodCYVsXKpR2TOwDSm2pJQTmzuIScMR6xlYOHnNwsOx8/iJ6WPbUOGheTysaeQPJgtg4c8N8IPFMay4YBsqrNDPY5blC16XIYJXePBGJZf5AvDh+wwK+OpcEbFJUPfW8W7r1xKbVEpoEsA16s514T8sPYMdlFWsY4ujq2/m0woLC1X2DJozHyI/5wJbTPWst690XI0YvU6ZSoAkXnwplR8A9qsF9jmE3xYVQkoqL740jxcBaOQPr7nOO4ihJMlNhBCAPJsghFBIMBBCABIMhBAKCQZCCECCgRBCIcFACAFIMBBCKCQYCCGAcRsM4gl5oZQlWcrXs+ofQ/auNCKySlnyQrbLY9betgaj6VV2JXj/SPqoIsoXp/VY915UfB97qOSfzXsbSinfUESO/8Cbi94N4tkEW5ajGH9fewOz04TEbczkHFXZWeoePR4qC/axJO6WS8KUcWTqPv73nBb++90Ct9WmKx+xccMO8izHSVeRJKaneHKWLIJLu1lz5fjAm4s+edwz0C57lJjOJpq80ZphMkHrh/Xq8VF4QhZQn51I5ZgLFmnkLZmNuXIbxh5lBaSXnSN0yT4Mg6pbxyT/LqqbJBDcLc96BsFxPDoXqt81EzhtgZea5G3x3BtEL89dO9Oa1Ss5CmyPMH9E5f4CbF34+bS/dYtwe84Dt7RozjocadO4xqXsbVjc8iTMJjar1L3cfqxFyoPEtcXKMZ3cyoHmEvd26thHo3aHko7NvVyVyGd4PyPW9ihzZxU5Tx3gmL1s6/OYUhy5x6gp2o5BeVw6PX8vj7Xm8SueIXOpf49yAH3UWnRNxazp65PfmsXRplLWRcVjlE/3EeNBz0BLXEIMXPyjTw4NHOPxLNvJ6r9ohzJnUETIVLV1zGbO5kk0ZidSmV1Mc+AipjhiohII2ouVtGmJVConOjeyqM5OpLLkmi2AdC8H7pSmUJmdSNW5rp6HXbCP2EUtXLLvV3KN0CT3dvsv2uFIx1Z1rovQOE/mHfxZnBLEEf129Po8zhLLz3OURI2swTj/Mnr9dttXUQORKc+T7rK339J0MoPPoNdvJ6fCSmTCM6x2lMazOtwPc6N7cOvO2HgNv/B49KrbLIaa+mAQvYQYqvmjz2ZDVrrg2bup6wDrud3KCakuoalNF3Vv2U/gAtprYeJkZfJrQQozA69xaX////SeiyckbjbWc0WOwMHn27hU64f2IZeJN5d0bHcuXMIaOMmDYGDl7K43yQPATPklK35zFisndDmGLeXOTXMvU0MQM1wnHDuryFG2OXbCTFdAEJGOQls3/pZ1oCbcost/kst+KvmHE0oL1weqXwxI5TAhiqQVGqrfLfGprEbDacLkEOi45LWxviPpyjA41tRO5hzncnr+XjbqXLewctZlqevSWeeQouwAT7jmXfQPJxS4NdBBrY00M4fp/oCqEzuNvA3J6Kzn+Ld3tzGCmdvGDHXBIFpHGP6EbTAQ47I6bIOBGJ9NcjK07txsgQe8V7+tB+JM8d77vMfQWB0WBK2XOQasznmVjboGDuntPYc1GE3L1FemnOQDUj7hq1R/wheQ/m6BcllxH5Hv9jY5KTyhLhi4vUAFIIokwwI6fPTSYn8cJ92CfbYJO7W5VD4/T3NSMrrEeJf3MnTTfAtr4BxndmZVlCzNi1LQlB63DRXsQ5K+jnNX1rBxqT81RS5Dg852apRv0/MTiezWM+ifmVvWZCYN9InvPwk/6y3HcVTzuEch+jLoHIhjz3FaiuLRbt7BkkU7oOMcl86FMEd12rMC6rMhIkvZH3C9WgDAjSzM54qI3VzKTLfy7lchklmSley4qnCnNIUqilyuQthe3tJfXmHP+LM4Yy+mDNuS69WAY5ln2GhKJNMUSybQVVFFjU7XZ009HedY4zb+d0w2+htZfXbnDeGz6Wosku7+CJK0Z2IY2Mb3VCb2fmORfzbvJUzi6KC6+mnkbVjLrbIUMqVncFfG6e3IYngVkF55DV2vNxalkZewiOZeb0hSw8wtq59tGCLuigQDMTxubOPfLoXwwx7PJqwl9NLuQd6KDHCczMpzhC6RZxPulgwThBCA9AyEEIpxEwxmzZo10k0QYlQbN8FACNE/CQZCCECCgRBCIcFgLEgo5AVTPVmmerJM5cQOaeVrMJr2YjLtxeTV9Gg/Y/nbZp74qeu6cF5/KZUDeg2ExHDgpVRef8hepuGVNNflIfbQct57KYlXQmCFPon3XlrOT7x0qOG1iyfe+4joXkrU344cHEfqhhjcLuPKQ0qjQ1kqb5RhCwoZk4e48nIM+nI8fkDJQ9H/kcHcW//Nf/6X1w4hAMjgk08/54dv/47WHz/n9qybZ88mWKspLjwtjzGLofXTj1g18xonnszoVtDJ1xagzQItFlqw8HXLMLWppZ3bwJctcCqkkxct7VwbpkN7W1vOAk78h5m1mT/jQM5vHOvlQSUPheZcYMtSjWO5riiC3+WqK9vIm3wcnMl6Xc9ySGPd4UwWBtiXzXygX0OViuMOrFvd5oNkb9nR7x7qrcFoSnQmJemeMi3BJZ2ag+sj0T9j+arZNL2vw+3BWAAs/LKgUPm+kRdfa+zl+OG8/tJyZinb/OG1j/mtveih5byXEO7YsraskBcvuJQtbuf198Hw7DwmAjR8zJNFyjFaqnnmNWXbCx/z5AWGSBrrDj8PuUfRZmxSHlhz/1vDbp4z2ctw+Xsp+166ycKlOjAf5AM2sV7X3/9h97ptLv+hggX/10ai+Y3j9y5zBh6w/ZJv8oE+gmzly3FCbi13LysyMzPlAutcxtiBSzNZ3ppDtj6C/AoLMxMKCXXU/TwLWw866s12/QOqqLs/sfmZLnXn8GnwJl7IGYr08Dp2HU5kSkWekhbNljItM3+Ns3xrLNjLixpwz6oErFrFdM01agY5PJiVMI+v9xfy5GuF/KEhnB+k2E/+cF5/oJ4nX7OVPVnWyKyEbuN+zTxefDaI8tcKeXL/F9yeMY9XQgbXDs9oWJixjrZdyt+jU8dyl79HbP7DXHT8HxykTreJ57a67DvnJvm7PqFDt4nlrTm2/6X5u23F3f5X8isms/6w8//M4cQJrltmE+kyR+NZMPCPIdlgwGAwYDAkEeXp78Cn7SZhqYa6op5RFtJYl6Cjo+Kgsyx3DR+YNUSucjnpzAd5I9OWFq35xEU6AiYzxbUa3cO9TP6prLufds/VmfnA0RMo4GiZmcA58T3/QTy1dR2LAxo4kmlWVpjJyK2iSxdty5GYsJiYACvVJ5Ty3MvU4E+Qa26zWZPRWG4y2LQYtWUl/FIZOvz2aiPMiFBO+EZeLHLpSVyop5YAprmd7BY+26/0JFoauWLRcP+wBAOoK3qIo2UABVRdshAY7HwsvGqL6//YDi6a4f4w59+6riyVZgDMfJzpnmYvdr7O7X+0OfModQFzie3xwfEb2m6B/5SfOdaoHya0nqbQeNqxqF2WSrIhCYwljIspxIRw7sdCTT/ZN75uGnz+w+bMh/ggv571pnrWAx0VOY7AcVd1J4RzPzpHvQ6dNwfdVjcuiU96KGvhq4xYYlbpoMwMW6OJpIFDLsMb7ZRgYIja0tLObYIciz9JSeUHM1w3sPCZ22IdJ1ucZc4hyQjbWk5WinvOiA5V0TKN0GCYmVJPVorrekuv83ytbRY0WudxBj1n0Hb1Ota5gQNvOFaUNfJ1xtx+N7FFb/tJa/vDePKRV7UlQonou3nOlMkLOfBG5lDU3fu4cUgoyU8dcwSRQS7zA/W0d0Lk0nRMStaSmqLtziEC0PZVK/z9ELUlJIiJykTfCn0SP5jhOocQzusvzRuiA3lRQiEvpOjc5gBi8+tZ7kEVaueTgrUaLG1mx/Ig5wxsadP9vzSPj14BYOuuaVi4tZfxl72rt3STs5u/dRMLA3p249Qx09Y5RHWXHaemU8f6/N39b5f2JkeOHOHIrzerb2buZWqYwWOOtOo6diXMoKviqO2E37qOxVSRY0+zrnd/nwIAtTexaCYTrP6ofdDwyuJwbl9r5JR9lcsVgJ+k2CcZh9BgfmeqWGizd7e2ljsmnAdm+1+ZmaLmXpOfoZ0E1q8GcTVBuyyV5LnOuwysF4sx+mza9MGp2hIB+fVsMdU71tmjcHPmQ+TnXGCLoztu4dNdD6n8NO5+JQHbDLJ9fmGAurtfabANCey9gQKOPgUcziTLtMmxTfdhSJ+6vUCFjL2YMqyc3bWTjLJyDHowmpyf/JhL0dvnEHKPcjYh3ZEyzc7tJSsnTnD9pxksyPwZl10uc6k1KyGV95Tx8O2qEp4x2ZLBnTJ9wZOxy3nxpXm8CNyu+oLaGTP7rmgwCr7g2lOzma0NZxVwYijqLEvl4x/Wsz6jnoUZQOcnfGrWqU4h3/N/xVZH/lP2eQaFMnH7ucvE7bjJZyC5EEbA1ucxJbT38nYmXC4tAj/9iH98Ak48ubaXy4uj2Sp2/v5lFra9y2P/9NZIN8Yj0f9hZkHbLrf7DOTSovCa1WFBPdalz5/Rc9Lxv9Zyom42q/5j17C17W6tevUQR474ZiDQZn7OqkkVfNStJyY9A+FFOnYdTmex6/Cn+01JDj9j+dsZ3H9Cx/tyS7IX7eKJ9xZQ00svTIKBEAKQYYIQQjFugoH0CoTo37gJBkKI/kkwEEIAEgyEEIpxls/A9s4/HWDu671/QoxTHl9ajHrcwMppysIwpz0bssuDd/WiTyHGJg96BlriUpOJ6TyJ0ejjjydZj1Nt3cZ0f0De3CsE4MmcQfQSWyCQBKhCjEmqewZRs8KwdnSQZDAQpqxrOmWkxLeeLBFC9EFlz0CLNgD85wZiNhoxGo0YTzURtiKVuLt/EH0EHOe6xY+YsPiRbogQo4ZHlxabTrmkOLtcSbXVn0Dt0DdqOBjPJnI0YAflG4rI8R94eyHGOpXDhDbaOmF6kBbGxFsT4slJ2MGk6kTWnB3ptggxOqjuGVypbcJ/7hJnRuToJcT4N2H22TmDLm7JlQQhHNRfWrxcQnFQKskGAysBaOLkeMmMLMQ44NEdiG1nCjGe8VZThBAjaXw+m+AfT4x/C9dlmCCEw7h9NqHr0m65FVkIF+Mm7ZkQon/jc5gghOhBgoEQApBgIIRQSDAQQgASDIQQCgkGQghA9X0GSpajHk/3Wal+t5DTrUPdLCHEcFP91OLpQiOnXVdFJ2FYAW0SCIQYEwY9TIiaFYb1YqU8qCTEGDG4YBAcx4JpTXx+ZizkNhBCwCCDQdSiGJBegRBjiufBIDiOBdOsXL8qvQIhxhKPg0HUohj8v/xcriAIMcZ4FgyUXkH1ORkgCDHWeBAMtMQlSK9AiLFK8hkIIQC5HVkIoZBgIIQAJBgIIRQSDIQQgAQDIYRCgoEQApBgIIRQSDAQQgASDMaE1TmvYspfM9LNED7Oo9erRT1uYOU053LTKSMlPvtK9sFYyo5n/pHAz39Mxrj6ucV4oDoYaJelspKTGI3KQ0rRSRhWJBF1WV7LLsRYoD4YBPpj7XDJYdDWgZVAb7TJe4Jf4q3kQE7kXSImfR0RANYv+PWB17C9ad72yT/fnvj1y6M8XfIOAM8mvc3j9l7Ryrd5Z6Xt29sX/5PNpysg+pe8s6DDpa6n2ZW+ko7idHa34iz/I/wkeR4T3epfyo5n/k/440kCk5V20cCHea+w34MfLz1/Lxt1tu9rirZjyLWX6Nh1OJ3FAcpiZxU5Tx3gmEtZUNl2qubb97dydtdOMso8OLjwearnDK7UNuE/N5mkaHA+wWj2wV7BDB5PX0lH8Y95Ou8o9f7zlJ8Jnk36R+Z3HuXpvB/zdN5/cj5gHW/FLQVgf4myzgr1J3+sbPNjWyBQy38e/5QcyIm8H/N08RfcnraSHcH2wvuYn2xv139y3jqDVcqxVdEl8lhrHnr9dvRFDUSmPE+6UrQ6Zx3kbreV6fM4Syw/z9G57R6Zstex/yGzP4t/KHMQ4436CcTLJRiNJ2GFAYMhmekNxRg/9L1QAFB/Uvm05h2qv4TgSUuBp4mZ1sCHSk8AKtj9eQMTZzzCsiE78jecL1Y+7Vs/ocZ6H4Ha3tpVwemGb5gYGKG+anMpT2Sabd/nXqaGGcRutS0ey3zT5VPeTPklK37BEX3un3e+AYJDWO3xzyd8mfoJxOgkDCs0VL9rpKQ1iiRDMoYZ1RQXnsa3EqA1UO0y+be/5Me2kzP4EYKZwePpb/O46+bWjqE7tLXGJRdEBbsPeNCr8Eg97Z0QZF9MeIb3M2Lxc93E7L5Hzfly50Lum+hzEeOM+peoxIZhvVis/DNfocQISYaVLIk+PYauKHg+Th+dIggKsNJeA7AGYy+aWC4AAB9ASURBVEYsVOShVz75V+e8SmZwvxWIccij+wz8Xfu00TrCsNLhW92CvrV+Qo11Bo8nPd3PRhU0dULE7D628Q9kJmCbELRPBA6/1TnLiOw0U+4yAfhVk9IVSHiGny/t8WosITx5o9JJAg0rMRiUafQx92q1CnYfgB3P/CPvpK9zrHVcLVDsLzlKTPo6xzaO8suv8OHstx3DjPqTR6lfubL7QbxHl4jJlGj73u1qQTmHKpaRmbIXUwpAA2crrCyWnoHoRtKeCSEAuR1ZCKGQYCCEACQYCCEUEgyEEICPTSAKIbxHegZCCECCgRBCIcFACAH4YDBI29lGw0fXaTh0m7SRbowQY4hHE4huac+sI/vE4p7c66xrDePBV+8ZoRYIMbao7hlol6WyMqCaYqMRo9HIyc4Ykh+P8mbb+vXyF4Fogv82YscXYqxRGQyiWDLXn6YqZ0/gyrlqrNN0jFw4EEIMJQ/mDLo9rtzahgUNWnn6TYgxQWUwuIL5S39iFjn7AVGPryTMS41SxXwPltl32DOSbRBiDPFgAjGKJIMzADSdOgkrdJiNI5gqffVt/vzyLTTXQpixdcJItUKIMcGDl6hcocToctoHx5Fq7Ri5/IcGCw2r7+Ff106nYKTaIMQYMrj7DILjSN0wnetlI5wMte17EgiEGCIevVEpea49d14TJ42FPvjOBCFEX1QHg7YzhRjPeLMpQoiR5HO3I9vtmdeBpdWj98YKIfrhc2dT2s42frHkGyCQg1vlVmQhhookNxFCAD48TBBCDC0JBkIIQIKBEEIhwUAIAUgwEEIoJBgIIYBe7jOw33bcdMpIyeXey2yaODmSTywKIYaUS89AS1yqgUe5TlNvW0YnkTzXwkl72rMvw1iZGod2uFoqhPAqRzDQLnuUwCojhWd6ew5RS1xsGNaLlY6ewJVz1Vj9pxMlmY6EGBMcw4S2M4WU9LmZlkB/K9ev2gNFFEkbYvAHArVAq3cbKYTwPg+fTdASl5pMjD80nTJycpaBBUFaGNmsBkKIIeBBMPAnZkMyTaeMGC+DbegAlloJBEKMBSqDQRsdVtA0FLtcYbANHTokFggxJqi8z6CNKw1W/Oc+SpwyYahdtoAw63WuyHyBEGOC8xHm6CQMK3omP3e938DtPoMRfr2aEGJoST4DIQQgtyMLIRQSDIQQgAQDIYRCgoEQApBgIIRQSDAQQgASDIQQCgkGQgjAB9+oNBqsznmVzKX2jE8NHNK/Sd6ItshuDUZTIpHKUldFHk9kmoew/u9451ATk49NZ7XRvu4Oxz66w2drNbw8hEcSw8+jtGcAUY8bWDnNSvW7hZwej88lJDzDz5fC2V3bySgb6ca4S89PJNJcin5LuVfq35PbxCNtIcwwuq6dwO8rrfzi0G1qNk6kwCtHFsNBfdozokgyGNB1VGMdpsaNSpFB+HWaKR9lgQB0zAiGmvPeCQQYLGyaHcjBrRN6FBW8quVg2y1e2Pmdd44thoWjZ+BIe3Y5iqS5PTeMenwBHe8aOU0cqb2UD4sF+1iSBJeyt2Hpc10aEVnJhNrLa4up3K98Xk3NJmbzJBqzzxNk36bjHFVvZHFHZRNWhwUB7T0Ltj6Paf5lclqXOYYQQ99N708EQQF9lbkPH+isIuepAxyzLyc8w/sZsfjZl3v0Lr7jndUdmN+d3udQ4OXiSax7+TZ7kOGCr3L0DNrOFPY6LLC78uEoGBZ8fp5mZhO0wLlqwuQQqD3vCA6aZ+fTnp1IZXYildnFNM9KJmKBayWzmZO1lm/fUsoDFzHFrbx36fl7MZn22k70gFgyTbbl93N0zo10iWQGn0Gv346+qAG/petIH4Ifu18Jz/C+aS8m5WSPTLG1y2R6Xjm2jl2HE5lSkWdrlz6Ps8SSmb9GqWANxoxYvirarpSXUqNLdP+5Vv+FuQGBfGbscXSnY3/Hxc4OHjZ46wcV3uZjE4gFfHVuLbFz0qj/vACIJ/ABqCtyjlQt+7e5bd9em0z45HjguGNtc0kKLTf6Lu9N3pbt5KFMHs4xu3+y2nVWkWP/RM29TE3KMmYkAAMOKTbz5pENzO6+2vIpe370Kif627XsAE+UHcD+6U/Rdgy5LuVb17E4oIFDjh6KmYzcKt7PiCadcmpylhHZWUWOY59yDEXRmBIWsxqz7WfUfYem8x5q+v0Z7qGxDeZO/Q64Z6AfWIxCPhYM4M6FS1g3z0cDWKbGo+US5hsuGyzYx5Ik99PK6pZ04RrtnzuXLPsTqfZie9V5i+cfe8t71Xe2938it7b0DGwu0qb+Fbh3wMPUtN7HpuC/IcHAN/lcMODGcdo6dhC0AO5MngNX9znH+1OziUmaTXNJIvXKCa95tpTwkWqranfRM1AjIIhIcJ7wkUHO+QGA4BBWu5R3nxcpuPF9fhE98GEig7/B0nr/3bZWjBDfCwYcp+PqNrST0wh8oIXGN7p377v4tln5dsE+5szq3jMYjbzYM8i9TE1KIo/l6MjLNAM6diXMoKsiz3ZvxAkzP18ay8atBziWC7CGjUv9qSlyGQaZ78Gy4TvnBGSvviNcCze/kF6Br3IGg+5pz1YYMKxwpj1zf7UaxGwwEMPI3G9wp/QjbmclM7O2mErXghtZNNaWMmdzKTMBOs5RVzt7nL/1qRyDHoymdEwmZZW5FL19DqHsAE8A72fsxZRiW9VVkccTrvMOx/6Oi4Ym1u2cyMuv9nGyK5OMR/ubZBSjmqQ9E+oYLDRsgIN93Gm4J/c661rDeLCvYCFGPXk2Qahj1HDwWgebcnvekZG2s41N2km8IYHAp0kwEKq9vDWMT7QtHHO7l+AOP1ryfQ7Krcg+T4YJQghAegZCCIUEAyEEIMFACKGQYCCEACQYCCEUPng7smLr85hSZigLVs7u2ulh5iFJ4SWEKw/SnmmJS00mxn5H8pcnMX54ZVga2dMajCkzqOn+uK4HJIWXEO5Upz3TLnuU6Q3FGI1GjMaTNE1bSeqyEbrrPyGEKTRQNchAICm8hOjJEQwcac/O9P6IX9uZQpeyK5i/BP/AEQoG3R/BdViD0fQ86Y7sP3sxHX6G1W7b2FN49T0UeLl4Eiy5zZ4hbrYQo5nqtGejweqcV20neMoMYAYb7Se8I4UXtvUZQRyxp/AKiGXjVtdKJIWXEL0Z3ARidJKSLn145wyOZe60PWO/9XlMKfTxvgIrZ3fZ15dTZU7ksTAdoDyyKym8hOiV55cWg+NIXRFG06lRkCB1EGwpvAZW03ofmuC/ebk1QowengWD4DhSN8TAxeJRP6ToS8GN76vazpbCy3evvArhKfXBwCUQ9DXJ6BPM92AJUJnC64YMEcT4oTrtWdSiGPwB5iZjcLxExQdfsyYpvITo1fjMZyApvIToYXw+myApvIToYXwGAySFlxDdjc9hghCih3HbMxBCuPOpC+n/76/+A4D/nZE5wi0RYuyRnoEQAvCxnoHdN998M9JNEGLMkZ6BEAKQYCCEUPQYJiz759/w/MMTqT/yI/7lbZeCH/8//P6xCOdyfQk/+pf9w9BEIcRwcAkGy9hR8DwPXK2intieW779L/zobfdtf/PPdfzs388MRzuFEF7mGCYs++efcv/HP+Jn/95bBsTuztB0y4utEkIMO0fP4My//wz1n/HPMjfiNlc/lF6BEGOFR5cW7fMJANSX8C8fe6NJQoiR4FEwcO09LPvn3/D7gjDeTNvtQY9CCDFaDfrS4pnKq9z2v5+ZQ9kaIcSIGXQwePbxWCbWX0QuLgoxNjiHCd3vI3js9/z+MRz3G7jNF4DcZyDEGOMMBm73EfTk2dUGIYSvkduRhRCABAMhhMInH2G+7777RroJQow50jMQQgCSEFUIoZCegRACkGAghFBIMBBCABIMhBCKHpcWtctSSZ7r73j7ck9a4lKTifH3wTcwCyH65NIz0BKXauBRrtNfriPtskeJ6WzqdxshhO9xBAPtskcJrDJSeKat762D43h0LlSfMw9H24QQw8gRDNrOFPYxLLDTEpcQAxf/KEMDIcYg9ROI0UuIoZo/9tdzEEL4LJXBIIqkFRqqy04joUCIsUndg0rROsLwJ2yDgRiX1WEbDMR8eRLjh1e80zohxLBRFwwul2B0m0+IIsmwgA65tCjEmOEMBtFJGFaEOUtWGDCsoJ/7DYQQY4k8tSiEAOR2ZCGEQoKBEAKQYCCEUEgwEEIAEgyEEAoJBkIIQIKBEEIhwUAIAUgwEMAKfRLvvbScnwA/SUnlvbQYVqjaU8Mraam8/tBgj2zb/72UcCCc119K5YBeM9jKxF1Sn/YsOI7UDTH4u24sDykJMWa4BANbbsPpDdU0uT2b6MJaTXGhPMY81pxq6+RFSzvXANotgIVTw3JkC19+DVHtnQB8bQHaLMNyZNGTIxg40p5djiJp7kg2qR8L9rEkCS5lb8PS57o0IrKSCbWX1xZTub/A9v3UbGI2T6Ix+zxB9m06zlH1RhZ3Bjz4bp4zPczFXTdZnvEIgQCdn5D/VCrN9k22lpOVonPsUVcUwe9ynfu2VUxm4VINHRUHqZmziYUBFj7d9RBHy2ztXnc4k4UBys7mg2Rv2TG435OnLnzMkxeU700lzkAQEsOBZ4Mof+1jfuu6/UPLeW9xO68XNCorwnn9peXMAqCRPyjbr9An8eLsOl4vqHbU2X3db4sKHXX/sqDQaz+iGJgHac9Ggc/P08xsghY4V02YHAK15x3BQfPsfNqzE6nMTqQyu5jmWclELHCtZDZzstby7VtKeeAipriV90fH+ozJfKyPIFt/kLqAR0jYai/bzXPzPyNbH2H7KjIzM6WcWJd9FwYfJbvITODSTWjLIvjArCFyVRoAsfmZLGw9qOyfw6fBm3ghJ21Qv6Yh02KhhQCmhfS/2ayEeXy9v5AnXyvhM0s4a5Rx/6nqOm5rZrLSsb+GlbM13L7WOEw9D+EJzyYQ/WNINhgwGAwYDElEealRfSvgq3NdhM6xnyTxBD4AdaYCxxaW/S69Bgpor4WJk+PdamkuSaHlRt/lfbPw6a41VAGwg4tmuD/M3pYd/M71kzz3M+qYTGiCy77/rZR3fkJZrmu9u5mrM/OBY/8CjpaZCZwT7+zh9GPzr49w5Ej3r0Ps1Kv8sfrUaeu6g62XoEwyrtAGwNfOoURtWQm/bLH9jCevWZgYpHRvWqopb9AQFaNMCoaEE6VppNwkQ4HRSP0r2VtPU2g87VjULksl2ZAExhKGcwrxzoVLWDfPRwNYpsaj5RLmGy4bLNjHkqTZbvtY3SY5rtH+uXPJsj+R6iFqW2x+Pet1rmss6uZXEsK5Hx3rTfWsd13feVPVcd/6p8d4S3UrPWHhy681PBgCK7RBtDTAtBC4BtxWxvkD+e3VRn6wOJwVpmqImQlVp9yHHGLUUB8Mumm7eh3r3MChbIs6N47T1rGDoAVwZ/IcuLrPOd6fmk1M0myaSxKpV054zbOlhA9Ds0JzLrBeZ+YDvb3nsJvnTOs8qMF1X89s/vURNszqvraLT/du5FXTICp0ca3dwhptOCtnw5/fb+fBGA2zgzS0XLUAKi4DXqinNmEeK0MaYTZceV96BaPVIIOBLW26/5cnh7VXYHOcjqvb0E5OI/CBFhrfON6tvItv7TN6C/YxZ1b3noEXdd7kK+Xb2PxNzFTbMyg7Ts3WTNbn76ZqEJOG3usZ2Gm4/+t6ftkCrz8xjwex8HWL2n0bea9qHi8+sYLbX3/BM6r3E8NNddoz+/0HdtaLxRhHKG36ndKPuJ2VzMzaYipdC25k0VhbypzNpcwE6DhHXe1stMPQpubMo9SZNrHFVA9AR8Un1OnUXpYp4OhTwOFMskybHGs7KnJ4I7Og792Gwam2Tl5MmAdltpn+P3+9nB/MaOQPHpzUp6rrMMTOo+Vs48AbixEjac+E9/V1iVKMKnI7svAyDa88MQ+qvpBAMMoNegJRiP5peCUtiYc1QMPHPCmXE0c9GSYIIQAZJgghFBIMhBCABAMhhEKCgRACkGAghFD4bjBYsI8lWaXKVxEhU0e6QTYTEotYklXa7bHpYbb1eUyHn2H1cB/XYKHh0G3cHrxefZs/d1/nse9459B1Gj66zp93fndXNYm+qU97poh63MDKacrCiKU9SyOi2wNJwyOekBd2cO/p4T6uD1h9mz9v+Cuf7NHidgP1sYkcTb7OL3K/R8HWCYOqOm3n1zzCJP517URG9ubssc2DtGe28pjOkxiNI5z3cGo4E7lG4yg8Ie+UplBZOtKtGG7f8Y7hFlSG8fSxnqUvbw0j/FATxwzTWW30vPbI4G+wXL5fAoGXqU97Fr3EFghGQwLU0EnuiVkd0ojIWsu3b9mTlyiPMLftprr0uG1oMec8VW1riV3kB4D1nFJm1y0fgr1c82wpc+yPCSeVEppEt/1d0611UefSBju3Oty2iSfkhW1Q9BH3brbXcc09vdsAVue8SuZSl99KZ7tLqY5dh9NZ7EipVop+S7ljv59j5qulsUTSwKEi2Jgyw22b9Py9bHTkabBydtdOMspcqjfctn1yv3pPH627h6ePBdKw+jZpRvl0H60cwaDtTCEl/WwYNSsMa0cHSQYD9mcb+xpKeMuExCLHSQwwJ0v5CHbNcziQWcnEUkxldoFy4qegKT1uO+kW7GNJUgh1byX2OJEt+xOp7HeYUEB9dgH1SkDqre1zgs5RlW3LtzghsYjYzfv41nHC+zFz81rq3kqk8obtOOGJ8e6Bqi9bnydzaTuH9DvJU5ZNCc7i9Px0FreWon+qHHtgeD+nnicyzbYjL9XRviuPs1vT2ZhQRc6udn6eEU065dTkvMrG4Cpy9Ac4hhJ0Mp4nvexN27GAPfM6sFwO6/8kN07AvMGKfvVECnrpPYiRp3ICUYs2APznBmI2GjEajRhPNRG2IpW4YO820NWd0hRbbsOSa9g+OZVch2oDAdgSoNq3//w8zYRw71SAeELiZmM9t69HILh7aUxZ5EfzaWfi1Tul+6jrcM/n6EzHdpyOq134a3W91NWdjl0JM6gpcp6c7tYQq2vgkPIpD2Yyyhrwm7PYOcFoPuP4pK8ps5309n03LvV3W3cs8wBnO2cQ68j9+B3hWrh5o69egd33uNn5DZPV/Ehu1NYv7pZHDyo1nXJJcXa5kurYZAK1QOuQt2sE6Lg3EG7fVPFJPCguSVeGU0IIU5hBpGkvG13Xuw0j+mOlvaa/8r8xOaC/crt7aGyDuVO/A9Sd2Htyr7Np9n18smc6q6U34XUqg0EbbZ0wPUgLY/atCWa+7YB7vVa/H/eGAo5ehy34DI8GDul77zkMfPnRn6BIwDFHEEGQ28n/PW52wuQB61E+4b9Q/wn/8tbpvKxcVjymG9zko1BP9X0GV2qb8J+7xJkROXoJMf5NmEddenXlpEMZp/fIDdgXW9c8NGlfP5n9jvNtOy7ZmdWyZWEOjcvGfnFtQuJaQjvO8dVdXxEx09AKkfPX2BYTnuH9lBnO4rKzVHfOYGP+mkHUXU6VGSITnPcsrM5ZRmRnFYcc2Z1tn/iTpw50/f9vTA64j5tmT9ugtn5xt1SnPeNyCcVBqSQbDKwEoImTw5wZeWAF1JfMZ4l9tr+2mEu1yaoTot4pTaGKImKznNcGu19tsOwvpjkrmSVZye7l3bMyby5lpssVA8v+RC49W+pS9zUuZat5ecvA8raUEmtKxGRKBBo4tKuKxxxjejMZT+Wx63C6Um7TVZHnmEDsv+7tkL+XTFMsmWCrX+86rwAvfxHIpg232YOGl/uqyHAHXee9/F66+6OW5DMQQ+A73jnUxNzLYTzY6+VFW/nkY4Pr6u/Jvc661r7qFkPFd29HFqPIPTxtnARLvuadXiYh9uQ28UhbyKDH/DWt96EJ/tvdNVEMSIKBGBrHJvLgu9/nEUPPZxPWaSfxr4O8FRmg4NX7+UTbIs8meJkME4QQgPQMhBAKnwoGs2apvk4ohPCQTwUDIYT3SDAQQgASDIQQCgkGo0RozgWyTPW2r/zdQ1r36pxXMZn22r4GdVuySlP3UZ6Qjd57R/CIPqqI96LiR7oZPkNl2jMly1GPjCJWqt8t5PSYeGpxZDVnPkQ2tqCwZYgfCz+WudOZi8Bbj5z7Z/PekhDOlm3D5KVDeMp05SM2bthBnuU46UP+WPrYozLtWRunC42cdl0VnYRhBbRJIBDEk7NkEVzaTaZ1pNviqoD0snDeS9iH4d1tyEOP/VOf9qybqFlhWC8Wj7IHldRIY93hTBY6HsM184F+DVUA7OY50yZm2os6PyH/qVSaHWUPc3HXTZZnPEJgj3JgazlZKc7sHR0VObyR6Uy8Eptfz3pHsYVPdz3EUdf0Yf1xq9vDfQeS8AzvZ8TiyCHlkvIMekmp1n2bqSks5hz/dqV7LgjPf2d1RRH8Lte5b1vFZBYu1dBRcZCaOZtYGOD6s3f7W5oPkr1lh3sTrFkcbSplXVQ8xh7tE64ccwZtZwrVpzALjmPBtCY+P+NruQ2Uf57Wg2TrI5QveyBIY93hTdxfkaOsz+FTHmGL2/hdx/qMyXysjyBbf5C6gEdIcDwduJvnUibz6a4IR92ugSA05wLrgz8hXynLr4CFGeXEqml2QiEvuNZddFP9vgNagzEjlq+KtqPXb0evL6VGl8j7OcoJmvAMP18KZ3fZyg+Zgc4qclyChSF8Nl2Nx/sYHgzwO5v/mfNvUWRmZorrz6VjYfBRsovMBC7dhLYsgg/MGiJX2W54js13/Vvm8GnwJl7I6fl4ubHxGn7h8aNmLmO0GtQr2aMWxYAv9gq2bmJhgJkPntrRd5njBC7gaG48kRkPEwtKwLDw6S578NjBRfMmloelgSP7n+0f9WhZ9zRsu0lYqqGuyPmJ2Jz5Jp8ezmTuVqjKpV+hq+ZCxZvOnkDuQT5NULfvQOz5CXIc9ZRjKIrGlLCY1ZhhlQ6/TjPlyrHzzjewMSWISFAeY45nugaaG90/dSMjI/nVrx6Ev1wCYMmRI7aCv1yCpCM8neTc9ml7GX+Fv3TbdtqDHJn2V/jLJZYkHQEuwbSnSDzylO17HuSIY/9LEPsUf/dPE9jz6187D2C9RZf/JCJh1MxnjEaeB4PgOBZMs3L9nK/1CiA0bDJ0XuSrvjbovNl32YB28Ltd4byQkUmWKRP34QeAhbZ+04f1bUqwhkCdvV6nukG3tZvWFvpKM3CsqZ3MpTrWJMCxMkifb8uc7MyapGNSL6mqa2pqeOyxP/OcaR1tLkOa2Px6lrc6h0/uQydwDoF2O/eNLCcr4Sb5T6Uyxb7/iXhesA89XHV+wtuugQDA2kgzc5juD4yqOY3RxeNgELUoBv8vT/rkFYTmppswp58NAiYzBZzj2cjJPf/Z+lOWyhvKP31ozgW2mMrBERA0aN3Sh+nQqsodaNN9/mFIBYewGhwBYXVYEKDkSKxpp4sZLM7YiykDbMlNyl12NnPLCpMGcdjQnAus13Wfs1nnQQ3dA24f/MMJpYUqCQT98uw+A6VXUH3O5wYINrmfURfwCBt7GVeS+xl16FjuKEtjXYKOjoqDA/+z9aK56abL0g4ummFmQqHyTgQIzVnHzM5PKFPRza86byZw6fOsS+hvq1Xs/P0Rjhw5xE4PBsfHTpjpCohlo2Mc754ROf2HsVCRp8wnbEffI5fica5bIFQzyOv5Lr2x2HyXyduBlB2nplPHejX3ZPhPws96i0F2zMYN9WnP0BKX4Lu9Apsd/E4Pz5lcu9z2T5deyswHyVb7adxtVtze3bUHkqotEZBfzxZTvctx7XMI3a9wbCLLtMk5O567hmzKycqoZ2EGLvur+FTs/gIVlPRo9qsBZQd4Ang/Yy+mFNsWXRV5PKEEqbz/ruKxjHRMboNt9wSrxsZr/HBJCoYrxz26fNeceZQ60ybH76Sj4hPqdCouZQFQwNGngMOZtt+VorcelG2Cs0jmCwbgU/kMZs2aRW1t7Ug3Y1xJz9/LY63u+RLT8/eyEdfLj/HkJOwgpnE3T462y3f+2byXMImjcp/BgOR2ZNEPHTN63LG4hlgddLXWu6w7TmblOZizjZze33s3QtLIS1hEc6UEAjWkZyD61/2GJPrJrDx1H+Uxt/i3sqxR0SXXRxXxAvtGX29llJJgIIQAZJgghFD4VM9ACOE90jMQQgASDIQQCgkGQgjAB4NB2s42Gj66TsOhbm/uEULclR4TiL2nPbOJetzAymnO5d62GS7yMk4hhpbKtGe2ILGSkxiNykNK0UkYViQRdXlkXsv+8heBbJr3N0CCgRBDwTFMcKQ96yN7kTbQH2uHS1lbhzwaLsQYojrt2ZXaJvznJpMUDc4nGM2+l+1ICNEr9ROIl0swGk/aHm02JDO9oRjjhyMYCsz3YJl9hz0j1wIhxhT1wSA6CYNhAR3vGjEaT2KZm4whNQ6tFxvXr2MTeXDPPaz76DoNuXdGqhVCjBkqg4GWuNgwrBf/qCQ2uUKJ8SRN/jEsifZm8/phsNBggDfWTmfG1gkj1Aghxg6P7jPwD3TpB0TrCMNKx0jmRW37Hl7KCijEuOO8z6B72jOF816CKJIMK3FuMcKvVjNYaJg3QXoFQgwR331qUYKBEEPK525HttszrwNL66DeASOE6IXPnU1pO9v4xZJvgEAObpW7D4UYKr47TBBCDCmfHSYIIYaWBAMhBCDBQAihkGAghAAkGAghFBIMhBAA/P/OG4MQ2raOsQAAAABJRU5ErkJggg==;" parent="1" vertex="1">
                    <mxGeometry x="490" y="1380" width="247.03" height="330" as="geometry"/>
                </mxCell>
                <mxCell id="50" value="上述代码执行过程：&lt;br&gt;1、在执行前，会先进行解析，生成GO对象，对象包含全局对象，和指向自身的window&lt;br&gt;当发现函数声明 function foo()时会生成一个函数对象 （图上堆中的0xa00）并在GO上加入foo属性，将其地址赋给GO的foo属性，&lt;br&gt;解析到 变量生命fn时，不赋初值，默认undefined，解析完成" style="text;html=1;align=left;verticalAlign=middle;resizable=0;points=[];autosize=1;strokeColor=none;fillColor=none;fontFamily=Helvetica;" parent="1" vertex="1">
                    <mxGeometry x="880" y="500" width="700" height="60" as="geometry"/>
                </mxCell>
                <mxCell id="83" value="" style="edgeStyle=none;html=1;fontFamily=Helvetica;fontSize=17;fontColor=default;" parent="1" source="51" target="55" edge="1">
                    <mxGeometry relative="1" as="geometry"/>
                </mxCell>
                <mxCell id="51" value="&lt;p&gt;&lt;span style=&quot;background-color: rgb(255, 255, 255);&quot;&gt;&lt;b&gt;&lt;font style=&quot;font-size: 14px;&quot;&gt;&lt;font style=&quot;&quot;&gt;2、执行代码时：先生成全局执行上下文，包含VO 指向GO,随后开始执行&amp;nbsp;var fn = foo()，会执行foo(),&lt;br&gt;执行foo()的过程是，在执行前：根据 GO中 foo指向的foo函数对象 ,创建一个函数执行上下文（FEC）,&lt;br&gt;&lt;/font&gt;&lt;font style=&quot;&quot;&gt;执行foo()的过程是，在执行前：根据 GO中 foo指向的foo函数对象 ,创建一个函数执行上下文（FEC）,&lt;br&gt;&lt;/font&gt;&lt;font style=&quot;&quot;&gt;FEC中包含三部分内容&lt;br&gt;&lt;/font&gt;&lt;font style=&quot;&quot;&gt;第一部分：在解析函数成为AST树结构时(预编译阶段发生的事),会创建一个Activation Object(AO)：图中AO对象foo&lt;br&gt;&lt;/font&gt;&lt;font style=&quot;&quot;&gt;&#9;&#9;&amp;nbsp;AO中包含形参,arguments,函数定义和指向函数对象,定义的变量；&lt;br&gt;&lt;/font&gt;&lt;font style=&quot;&quot;&gt;第二部分：作用域链：由VO(在函数中就是AO对象)和父级VO组成,查找时会一层层查找；&lt;br&gt;&lt;/font&gt;&lt;font style=&quot;&quot;&gt;第三部分：this绑定的值：这个我们后续会详细解析；&lt;/font&gt;&lt;font style=&quot;&quot;&gt;&lt;span style=&quot;font-family: consolas, &amp;quot;courier new&amp;quot;, monospace;&quot;&gt;&lt;br&gt;&lt;/span&gt;&lt;/font&gt;&lt;font style=&quot;&quot;&gt;在创建foo的Ao时（在解析函数成为AST树结构时）发现 bar是个函数，就会创建函数的函数对象 0xb00，&lt;br&gt;包含bar的父级作用域与函数的代码执行体，将foo的Ao对象的bar 指向函数对象0xb00，&lt;br&gt;return bar 。所以执行&lt;br&gt; &lt;/font&gt;&lt;font style=&quot;&quot;&gt;包含bar的父级作用域与函数的代码执行体，将foo的Ao对象的bar 指向函数对象0xb00，&lt;br&gt;&lt;/font&gt;&lt;font style=&quot;&quot;&gt;return bar 。所以执行 var&amp;nbsp;fn&amp;nbsp;=&amp;nbsp;foo(),就相当于把 bar函数的函数对象地址赋给了 fn, &lt;br&gt;GO中的fn 改为bar的函数对象的地址，此时foo()执行已完成，删除foo的FEC，&lt;br&gt;&lt;/font&gt;&lt;font style=&quot;&quot;&gt;GO中的fn 改为bar的函数对象的地址，此时foo()执行已完成，删除foo的FEC，&lt;/font&gt;&lt;font style=&quot;&quot;&gt;&lt;br&gt;&lt;/font&gt;&lt;font style=&quot;&quot;&gt;之后全局执行上下文又执行了fn()，在执行前：根据VO--&amp;gt;GO中&amp;nbsp;fn指向的bar的函数对象 生成bar的FEC&lt;br&gt;&lt;/font&gt;&lt;font style=&quot;&quot;&gt;第一部分：在解析函数成为AST树结构时(预编译阶段发生的事),会创建一个Activation Object(AO)：图中AO对象bar&lt;br&gt;&lt;/font&gt;&lt;/font&gt;&lt;font size=&quot;3&quot; style=&quot;&quot;&gt;&amp;nbsp;AO中包含形参,arguments,函数定义和指向函数对象,定义的变量；(因为里面没有定义，所以&lt;/font&gt;&lt;font style=&quot;font-size: 14px;&quot;&gt;AO是空的)&lt;br&gt;&lt;/font&gt;&lt;span style=&quot;font-size: 14px;&quot;&gt;&lt;font style=&quot;font-size: 14px;&quot;&gt;第二部分：作用域链：由VO(在函数中就是AO对象)和父级VO组成,查找时会一层层查找；&lt;br&gt;&lt;/font&gt;&lt;/span&gt;&lt;span style=&quot;font-size: 14px;&quot;&gt;&lt;font style=&quot;font-size: 14px;&quot;&gt;第三部分：this绑定的值：这个我们后续会详细解析；&lt;/font&gt;&lt;/span&gt;&lt;span style=&quot;font-size: 14px;&quot;&gt;&lt;font style=&quot;font-size: 14px;&quot;&gt;&lt;span style=&quot;font-family: consolas, &amp;quot;courier new&amp;quot;, monospace;&quot;&gt;&lt;br&gt;&lt;/span&gt;&lt;/font&gt;&lt;/span&gt;&lt;span style=&quot;font-size: 14px;&quot;&gt;&lt;font style=&quot;font-size: 14px;&quot;&gt;&lt;span style=&quot;font-family: consolas, &amp;quot;courier new&amp;quot;, monospace;&quot;&gt;之后开始执行执行体console.log(&quot;bar&quot;)，执行完成后FEC销毁，没有东西指向bar的AO了，bar的AO销毁&lt;br&gt;&lt;/span&gt;&lt;/font&gt;&lt;/span&gt;&lt;span style=&quot;font-size: 14px;&quot;&gt;&lt;font style=&quot;font-size: 14px;&quot;&gt;&lt;span style=&quot;font-family: consolas, &amp;quot;courier new&amp;quot;, monospace;&quot;&gt;foo的AO对象也已经是不可达的了&lt;br&gt;&lt;/span&gt;&lt;/font&gt;&lt;/span&gt;&lt;span style=&quot;font-size: 14px;&quot;&gt;&lt;font style=&quot;font-size: 14px;&quot;&gt;&lt;span style=&quot;font-family: consolas, &amp;quot;courier new&amp;quot;, monospace;&quot;&gt;会被销毁&lt;/span&gt;&lt;/font&gt;&lt;/span&gt;&lt;span style=&quot;font-family: consolas, &amp;quot;courier new&amp;quot;, monospace; font-size: 14px;&quot;&gt;&lt;font style=&quot;font-size: 14px;&quot;&gt;&lt;br&gt;&lt;/font&gt;&lt;/span&gt;&lt;/b&gt;&lt;/span&gt;&lt;/p&gt;&lt;span style=&quot;font-family: consolas, &amp;quot;courier new&amp;quot;, monospace; font-size: 14px;&quot;&gt;&lt;font style=&quot;font-size: 14px; background-color: rgb(255, 255, 255);&quot;&gt;&lt;b&gt;&lt;br&gt;&lt;/b&gt;&lt;/font&gt;&lt;br&gt;&lt;/span&gt;" style="text;html=1;align=left;verticalAlign=middle;resizable=0;points=[];autosize=1;strokeColor=none;fillColor=none;fontFamily=Helvetica;" parent="1" vertex="1">
                    <mxGeometry x="880" y="555" width="750" height="460" as="geometry"/>
                </mxCell>
                <mxCell id="52" value="" style="shape=image;verticalLabelPosition=bottom;labelBackgroundColor=#ffffff;verticalAlign=top;aspect=fixed;imageAspect=0;image=data:image/png,iVBORw0KGgoAAAANSUhEUgAAAVMAAAFNCAYAAAC9l4yfAAAgAElEQVR4nOy9WZMdyZXn9zvuEXGX3JALkNirUMUiq9kkp9U905rRg1abMZk+5phJn2D0IJkeNA9jpraZ7h6S3U2yyFqxJIDcM+8Wi/vRg3tsN28CKBSKLDbLqxJ3ibgevv79fxY/Lv/9//y/qogAICKIgIhpPndfvxNJBAFUFVWF3vv6c7xXFW1+JvF6qGN4lV7dtP3h2xauk//vL4Viv6rM2rYJYIyJ9Y5lje3x9vW+8rhOW75tkvZVBa+CevC+vhbKW9c91MejeMDFcRxzEEEQjDWdMS7NWGrr/XXL3JbRe8V7j3MOHwr55rl0Bkxdvvq9c+6atmy/k6XXNs/+GG/HSVu+7pDX8E/zGtroajnrPAVZjQ3NePrnlWrcQAyI4L1HrGE4GpMmGcnZ2Rne+x4wdV+/S6npxKVOhRZQV5V/uS7d33S/M0YQMasHyBumb7v9lut1Xd1qwFxuM6DX399Omfvg/c2SgBrAImIJABEW+7q8dd2sFVQdVVUQABbECEYMxhi8+tWL7luDaSwfV8dT0zevy1K40k/9MmpTNKVPGnpJO6AqgpGweBhjMZ320tguzpV4X5dP2rY0nTnltdfGIvWCZPqPXlXef7Yp9HddYx+/U4XEOQe0nd9dVb9LDXMdMCwD46oye+8xph0Ay/fWeXiviPhmVV+dXt0m336btUC1vIBAC6L198vtFX/YwsdSed9V+d9pO2g7JoXACOjWO0od3gFSf+/D9woej7oAJDHDFWV8OyCtm7bpCx/z7gJf3fx6dVwJEuoi2ukn7d0RmD74a4ooaM3T4zcGj4Aj5G20kRYUj6A475u53jaDIE2TdgCW/kIscrUgvTn13YGNbyE1YgMe8Kqx9SG5KmL0J+K7StcxqG+a15tM2uueVYszIR+usILXlOL6PAkDUK4F5FWFfNMbr7K+VfVbbqPV6ox4rX74G1Rb33CmvEswrbmAqIvg036/+rmegAodqaXhEt269375dgVTpWYqbRbhOQF06rIAmM7fUh0a8brfwiJBzaHN/bXovbwQ+FiKGrANqgbvZbnaqPTHUBj33dJoD2Cb36kGKiZLo6DzwX+HCNi3k2Ibq6LSb6+kvYG4iEoUBeStxlcvdRbabvN/baBpi/zKSdrk2X15BWj3QUSbCfH6ar8ecBtW+Ib11BWrfTf18lmhx1qdaZwAsgLcVvTJ6wDwjYH0Nf30tZNA4AFhTEqt62y6r2ULbRliSXqYswSmncnwVkt7A3wdQJV6Ma2/VxDXUUvXwNtlqe38C8Suq3PV3nxZ3d81W6yZZQRsNZHN1quPBxTTCKexDI09oVe5K/MpVFnpkc+edACqX09f/MeXWg21hsHYXEm6up1VE+AbTYru6rc0XN823+t+JyI9Vhi/bK5dW77eQKnL+rryvXt29tp7O0aJXrsuGQnaDDt5viLrGvS1AZ7rb/5DgGk9z7VjZVm1zteCbgOM0ru4ojzd2ryLsmpb3p46wbdg2ow3ASyBPcY7tWY8kWGKowdo1JLjcuXqz9GwVgNkBO0AbhpAXh3BSFe3kYnlkAjg8d4O9V81b3Xpc7dE3yXV4LeVusbs7neJuj47gX6DvA2D/DbT69QDvetXCGRPgFoxUHwEltdJ3W9Whq4a4XXpde28LIo39XwFSX5VnnUfGzFvPAHeZCx02+5Nwfe1eUrLAGVFORRBo+gsKEYVibqs7khu/9Ump5bDvpmmpRYgGnDvAacuMTNFcIi6eN0BSYAurUV9C2pCnTwRRD1oFQGuZo713FzZQoEnabc2sRxSg6QLf+LwaHxuBmpRlYCrDZj6KM3U2ti65a62ULsQ/3NnpG26sqDE1+RaWvNHmlbrZleJMfF6RyBrXMLiZPumKmPBdPRl7ypdZScrycprcLxxv+EaZvtNkgYAfCcLcTcLaYT9/uNqHAJsw0KV1uQkHTZRZ7psGX/DfmqYJEt9W8Nz3ectgKm6WPwMSEBthPka8CK4SQe44rit9ahtE6xu0/5i0Mm7WW21X96OmiFIOwYkib/zLKtEepXvJemNoT8FZnpdSt70xlq8fFds4/eVtKfWWKbnYdBKvFHExFVWGh3UK3J+5XNbHvR6SNEr/17/jD6Qar8OVwuAavBk0I6o2+VoAAaz/OtXlPX19dYV4uHbpN6TOo6jPSOHBPbkAVsbEK+A6dWcFXrg8qal1aADagqoUX6XqKMEE0ojOeBQSjwONMGaEcIIr4qQA3l8uEEk6bBVRSWoAVDbYdFvOprqpaV7b4cJd6+Jiw1tQdPw+5odUwFvyji7Y/JPM309MOWPceWpQXEFkNZXeq5QV/Uhb5NaKfANYUWuPtVHYLiWjTRGrtX9Y0SovAa3MIXK1QypR/euEZ071PbrNEVsvnenHpIIWIJKzeeWl5wg5qsIHkXUBxUhPhqZotN+7anSMLV6IVK+TokVeoBKtLgHxmkxVKhUIDmqVXCf0RQrY2CMssDIOcIiliPFmEGwvquNQG8iiNYg3ZGgrpTIR6JTi+nQLORS/2r5GgSwBCVBGEQwlfh9FW9bBtS+quxqul4K/ONPfWlwuZZfG0y/i+30Sgv/EnAsX6udulWjD10jEl77NN4YbJtivfre1nR2/R2rytR1nu76Bdaf62Qi4+5c7A0LI+aq6Ox7QnLACmrR/RUAHyev+YbjpG5hRRpgCQxU8NLXW0Xtb2ugUYPp+P81rP+Kv21fRfIm7nqtwa4z7gK6YqTCaoHoHOUElUVgzjrC+VBuY0rUX2LMC4R50FvKJsam4BWv0RNUQbBIXJgk9pHv6es0tlCtUihp9TtRuhIFCpAFSBnvM6AJkKCaoX4cmDUJ7aru6btxrRL7r6ZX+2j/c0mxjtJvkQT6ouOrrOVePeqVwXCIc9XKnVN/iPQqR+HKVZRlyc2bN3n06BH3799nY2ODyXTC8fEJT5484ejwECCKwxrcSa6tz5vr2Fpgfh04S/1/L9cyLzHGkCQG5yqssSRpCqoUZRlYqwmsrHXAjtBiLWmSUE5L0jTl7r273Ny7yWw+58svviAvCtR7yrLqFaU19axw7O9U4137Ia9OgZkpFofBicUkKVs3tnnvgw/Y2NzEGhtAxjs+/c2vOXj8JZUWGFWMKKJ93XeSWIyR2M/dBWOprt1SvEE9rXFkJmeUzFnfqPi3/9u/otScn//DY/72708otSSxF+zeWuf9h1v87Ifb/Jf/7+c8fZyzyD3qE8QIiOLV4dXXrvfYCGhKkDb6yaM4oEAo4iJjCNb8EnVTZoszPvrRmB9+vM3du9usr485Pan43ScXfPbbBeenvrOqeJAKiOK/GPpj/p87UL59isxUrkzk5WSMwRpLmqSMxmMW8wVFWXSU66/3U3znqcZQ7Zdete3yLBuws73Lxx9/zL17d9nY3Axb5oyhLCuGgwHeK/kiJxsMAgB2WM1q4c+vFAxX+dI2rirx6gp+GRif1rrG1kVJnQ/lUBAV0jRja2sLVDk/P2c+nyNewArWxvJK7ceoOOdwlSNJEjbXN7l1c5+qqjg7OeXk9JTCFbRO8PH3NdnSWvzttvUSlXtVd6+69lo99HIWkY2qwZsEm41Yu7HDvfcecf+DD0nTjKoqAwv1juHaATYdUtkcfBVzqKX5OMY17HSrXcHqnn6VbNDfeSRL78JFayrW10oe3sn42c/e56Mf3ODxwUuEquGOanNMBmubI95/tA3lPsPkmM8+XXA5u0TSNcQYRE3sB4nvpcNQ+y0U1DEeiVZ7iaohVTDWk2ae3b0Bf/3Xd/nwh+vYpMS7GbNZhTFBDQFZHJvLRCGqL3quQN9B0fQ7kq4R86822iAbMBgMSNOUtbU1Ts/O0Iknz137q6VV89sD1w6/bkQtaS41aiKEteE6H77/A3765z+jKAuOXh5xen4GouR5Tp4X4KEsHUmqWDG0Qq+0hrdaxUY9ySOcxueqaHS8b7+Pmrq43reOOtL61XR+EydBXSetxW8BD0Ys6+N17uzfBVXK3JHPiwZoadxbWvZSlmVQXXiDKzzFrGCQDRBv0EpRp5ja11HrxSPmsdTi2tRae98uM/jGptPUUZvuqtWLb5TiQqkS+JlTQ5KN2Nrd5+GHH2OyAYenJ5yfnmBRLJ6LyynOC8amiIBRj0EbMDVRuvIuOq3XICH9cvV2iEUDV724GpEAXgTw8d5jjSFLlFt7KT/9yQ7/0//wEz778oAvfvuSF8/mCEOMTVDxzItLTs8uOTvz/PjjOyQuYXb+hNnjI8QITtYwJHExMxhvMT6OA6F5bSaAtpJlqE5cfFGs9YyH8MOPbvLTP39IOpzzq1894fS04vjQcvAM5jODc2CS2oUKUNvpyGX/ie+ZaZv6OuiVYLpKNN3c2mL7xg2GoyHr6xskSUJVluR5fu2jXrfN8a2T1qywBf3lbZyqQcQbZWNu791lZ3OPX/zyF/zDr37J0ekhKh6bJBg1pGnGxpqNjLbLJ00Am1Dw8FwDPjpCC4JRC4DH4XBo870JQKoxcIqEiEbSAG0EYA37pYMrkYa8YxOlSRbqpIbEJmxtbPPw3nu4ynH88pRiUFC5KgCyaOPMbq0N770ntSkud5wfXmCrhPF4zOGzQ/IyJ8kS0BiJKU7exmXKXGXdHo+qb1UBjfvMEqDS/apmzLHd3nAudnP2CoVzpFiGazfYu/2AX/3mE375i1/w/MljskRIDczOT7FasjkaBCOUkaAkEMEkFkEoy6KpgxXpOMKHAvuuykjCs9UYPMEIpBIWL4vDO09VFKTDIeujhEfvrfGzn+xzYyPhVz8/5B//fsHJ8RqWjCwVnC84P1/w2M/4xXjBo3/3r/npjwcsLiecX3zOeTmk8gNghJKGsYMP6go0ksTOQqxh51O75dRC7CNrFXxBPptwY/0uVMpv//GY/+v/fEy+2GAxv4FzAypnKIqKxFaIBD1qcN8yBI+EXmeyugP/FNnq1XH/xgaoyXSCsQbnPcZYzs7OWeQ5yxFkrjxyyV/tG+nZaoZI1wDQF7ZFDFmaUuYVqsJats69vQdkfsj0bEaZOzbWNrmcX+IqR+U8xhtSyTASANWrxxMc+A0pViwSxWgfxUcjQkKCjU3oTEUlwdHaYONECKyv8hVIhZoAzplkCBIAWBxeHGG/s4+6PI8qWJOgPkyWQTZgc32T9fE689kcq5ZRtobzFU4rHAFUna8QCYBqRyMsJa5wnJ+ck1/mCEI+KZA0gLrzHkuCiKXW8RoJapB+09e6PIf3URqRVVMritCN8KANEBsJQUeuTr6ruXivgc0nwf9xkI1Y29hifWOLbLjG4eEJ81nOcDhikBgGVshE0Cq4JHlj8RpMMmmasr6+jncVks+RfA5V0TqqC2GVFIMxSah7bfRScB5c0A+gOIQKGwEOzYO+dKBsbm1iU/i//5//l5//1xNOj9ewso3RikQ8Xh3VwnC8KPh5MeP+rU/5iz+7yY//fIffffE5xUFBvvAYJ9gobZjobVCrK2r22DW/9aUFg2DDQoHFoiQGfFmBVmTWcjlbR6sd0nREmnqsKaKxqoySRq0nfZVbVEfy+BNPtcQZkEDDpv0gLVzVnADMFwuMDQaQDbNJpS4o8Dvg2FOnaTeHFvC+ETMV6ej4Os8CahlXjCHNBjx8+IjdzV3u7T1gf/MOAz/kwf57ZIMMlzgWbs5nn33G5eklg3TI3b173L31kKdPn3JweEDOAq9KKgm3b93j3p17WGv5p3/4JbPJhPXBmDt7d7h/6yEHB88opWBtZ43heMg4XUNUOL+44PHzJxxfHkNknVYt43Sd27dus3ZjDTsU1DpMYsiLOdPZlPPzC16+fAkCW5tb7GzvsrW5xe1bt9m9sUs+yvnxxz/GiKVyJXmVczY55bOvPqXKKzY2N7hz5w43926hpeJmngEDMpsxnc6Yz+fMqxlEJYR4sAhr4zV2dnfY37/dhvADqqri4OCAi8sL5vMZpS8BuHPnDuPRqPGKGA6HDIYZ1lpK75hMJnz51ZdMZpeB5UVHfu0wwd7YaaQNUF/hVBmOhnz44ccMNncYru+wdes21mbs799lbTQixSG+5PL0mOcHT5lMPCoZ2JT9+49Yv7HLcDRmNBojvmBy/Jyzl0+5PHlOObvACDjv8FjGGzfYv/8+o/VNkmyEsSllVVEWBWenxxy9PGB+fkwiHvUOwSEyI8kKHr5/n739dY7PF/z9L7/k5HJApZsgFovHKHhnMZrh/ZCXJ+f83S+/4vYt4cOHYz7++AaPj0r85Rz1I6wBIylWAzPtjneg0bHXbl61+1hYwFNEE1JbkSYpFk+WWrLEIqIYcWBqtZNgE4tQESz4VedBLn7X76XvRf1aXQfdtkjqS9L1bper601ZVeRFQeU9aZZhrAXTpyYNIMcHameK9DN8G0Ct9ZN1gIE2J+lMQsRg04SdvR3u3bzP3a17bCY38KWyM97D4ShsjgyFg4MXTE9nDOyQmzf2+fMPf0Y5hcOjExY+j/pMw972TX70gz9jkA344pMvmJdzssGQ/c3b/OWP/opPkxvM3ITR7gibWHbGO4wHa5xcnFIVjulsivcV3nmsSdnduMn7dz9kc28Dl5ZMi0uSzKCi5EXO0eERpydnOO8Yj8bs7eyxt7PH9tY2g2SA8YZbu7dITEpe5hQ+B6uoD4CdZhnbO9vcu3cP6yzVxDG2a6wN1pnNZ3z+xefkFzkulkmcYTDI2N+9xaNHj7h16xb5Isf5YLxK05S1bMxXj7/iqFAowqJ4e+c2t/f3SdKUqixJ04ThaMhgNITEcHFxwcXpJfl8QUVg7bUGqd1L3wyeRr8MgZk67zE25fade4y3biKDNdLRBs7BxsYWm+MhwwSqxRS3mOE95KWSjMbcuHmXuz/6S8Zbu1RRfztOhfGNW4y3djl6us7Tz39NVRU4LOlwzI39B7z/8V+QDNcoHHgNcVATK2yeHCJJxpfTy0BVNTA9KwtGwynvPRyzuTXg+ctjvnp2Se5HqDWoOmoCbDCopDgZM69yPn1ywdOXJ/zwg4T33tti8DdH4CrElRgrpKmJ7Leem100bd9oM2EFa1OKXHB4rAYwFHIGmSFJUtQr1hbAAo9B1cZpX2837TKV7jO7RqjvU526VHKlmN8VzBuxvMNYkzQNYBqdnrtuMq2qTGgcznss9ZsUWhoRv9ZftaJ+/M8E3dbz5y9YnBXoTcODHz5CKuXw2TGfHn5BnswZb4+YzeY4p3gDZe6wmpCQYrAhHISEQSxisZJgxIKGqOpVWVEVFRujTT54+CGHkxe8nL3g4PkBe6M93r//AeujTfZ37nDw8oDFfA5aMUyHPLr3AbvruxRFzvMXz/n82WeQKHfu7rO5tclgMMCIpahKzk8vsBywmCxwtxzsQrEoePb4gPl0xmwxwxnHrJown82ocEynEw4OnlEsCkxpsXnKzniXW9uQDTMSEkSFqqwo8oKxsdzYu8H7D97nvfvv8fLlIc8PDpjOZozHYx7cv8+jh4+oFo7FxYJyVuK8ZyADdjb3GI2GHB4ecnJ4DALrmxts7W6zub7FzuYOlxcXTPJLHK0bljSAuqynrpmp4j04rxyfnHEydWTjG2ztZQw2C168PKKYnJNJhVtMOHzxlIuLS2aFZ7w+5u6HP2br5h2Ozyd88dVjppMp+3vbvHfvFjff/5jh+iZPnr/k4vSILEvZuXmPe49+yO7tuxwenfDlV085v7hke2eXu/cfsnP7AcZaXhw8QWenqCsRr1gqttaUve0MK57Dw3MmU0/l6iDcIWygxB2aXgxIhiSbTBcVp2dTFvMLtjeHjIcpwzQJ4Vt9RRKDkjR+ID2VWtSxA6qC1zA2TTLA+xmln4M7R3RCYmZhI4HTEBCaitbntGt7iEaomvaSAO2Gge+B9FVJr9GZ1r6j8WPtfwkBXJ1zOB+MLSHqlA86t55yvAbSaE2ldb96y4BnzWRrHMcJOtJg9TZxPAiLRc7B/AXH7pR0MuJf7OekJuX5k5d89vhzykHO6GzIyckJUhpMavEu1sN41DicL6NhyCNGwXg8FZWWeOvwqeJSjyaKJp6zxRmfPv2Uz774lJvDW3gvPLj3kJ3NXUbpOmZ+xiAVbu3e5scf/TmXp5d89eQrPn32GS/On2NSODo8JEmD7jLPc9Qp89mCl4tDzg8vGMiQnY0dfOk5Pzrj6MUxi3JBwYKFLAAhSSzT2ZSvHj/m2dPnpC5lS25g9y1745skSYovFF8pYkNb+gru3X7I/dsP8bnym3/8hMViwWwWVAGT8xk//clPuLG5w+72JRdnEypX4J2Qzwpmkzmf/e4LHj/+KoDpxjq37uzzl3/1l9y+eYfpbEp5XAZXukY07coudSR4ohVfSdMUSCjKik8//wJvR6zd2OeeGbN7z3Bw8JKTF09IfY5xOb6cY4xluLHBePcu9z74EeJyjh//loNPfoV3Hp3sklnwd+5h1vbZfu8nnFe/QbKEnbsf8OijP+Pi7JjnX/6Wg88+5eT4iLOtXYaDjLUPPmLnzgPe/+HHfP4Pf4tzilXFVI6xWO5s70BqODk+YTYDX1WgJUJKvctKRLHGojZDxFNVhnxWQum5vbPP1tqM8XCM04yqdDhXRptEnDnqOpsVQmN59SgG/BBUyBcFJrnk9i3l9s2E7XXhow/HLGYXHL88p8oFbXY6dWnT6/XY36dVqW23aw1Q/ZBsJgJmDay+cZSvo/PXx33UUWR6ZqF35SLVlQwblUK0jku7S8i7UKaycpR5RTmvGI5HwT1oUVBJiZtWlFXFOF1jNBozyAYYIf4pqhVCeF9bU0UD01DjMUMhGVlmxZTHzx/zuy9/x1dHX3FZXDJgxPOj54yGY7Z3dhilIzKbQQoba5usDdY5OH/O8csTJhdTrFjKImc+LxATjE1pkjLLZ8GCjlL5wCxEDb70zKcL5tM5XjwlFSUlNjOQgPMVi0UVjE9+wMiUiFoGdoCowagJho1oaDJe2LmxS2Iznjx+wpeff0WaZTgXHbf1mJPjM/Z299jZ3uXJ46csFgWosFgUzKYzzk7OKfKKLEtxlbKY5uBhNBwxzIZ091jV3hGt4cQH63Gc22EDQgCgssw5PjqEbAMz2ERQNtbWqIqci9MTbDVjIBWZ8RiTMV7b4MbeHUw25uzpAdPTl7jJKXlRUMxnmOE62cYed+7eZffBRzx+cYTXCjvaYLi2wd/+zX/i8OmXuNkZSTXj4rjgyeMvGW3tsbu7TToYIyZBrGUwGLI22GBgplA6ijJnNplRuWi10qBXNcZGHWWcTWJZW9tkPjlmMc+ZXU7JszlJ9ONOjMU1Dr+hLbrGvH5oAgEMSZKhCvPpJcNhxYOHN/mrn21xZ2/GndtbfPrFCafHp1SNcNAF0yVjkn7PRN8mNWDaDnCCeBt7LBwUVvbOFAq6GYv3jrIsEDFY+6rHLOnHvmG6mlvkq11jmAi2PsLDK9YkAeCj/2dVVQ17tsaSGIuJeo9UhIG12EECeYUrCrSqQhuoA+PBenziWbg5Z9MzTqYnTIpLNPVUUrKo5hSuwNoEY4KXgBVDlmV455nP5sxnc1zpSMcpZV7gXNhT7r1rfAvVK05dYCgat4Z6qIoS9Uo6SHFakfsFiMF5RxnrVu/JNxJcq9IkC2498Vyguj+tTRgNRwiG6XTKZDJjOHRYEzp1Plswncy4d2fAxsZGYI1K3H0U2rLIi/BZBI0747zT4AlRh/nT2hWssz8+JlUPMSq8+vpwDcCDLx1eU7QqSfAYl2PcAlPNkWKGSIlNBMkMxhqSNMOpcnp6wmxygfgSqoLcC2dnZ5xfTtk3KaPNbUw2Rqs5mKC2Oj094eT4EJ9PwJWUZcnJyQmX0yk3928yWlvDpilYS2ZTRsmQNMnBe5yrqCrHYgGZiTZxVdqjVEKVvWroa4HEhjAzVVFSlRXqfdAdi0T1pXZc6Fog7XAKEMEYH6XEIvjTVlDkHvWG0WBMmp5hrCdJoHTt/G5TV1f6vYX+bVKHmWqz77f506BjKcuC0WiIdFipNYaqqlgscgaDQYehXl3N3vn6JksdXouOSqOrRTpsVQSb9A/Kqw9Xq6qKsizwzmEVUrFkxjIwCYN0QD4pqGYLKEqSNAuGuiDws3ALSirs0JKNEuwiMD7nHcnAMhwPSLMUVaUochKbhGe6KvhAGtMxLGhj/6uqiso5bGKpymAkykZZOLcnGt9qOLLWkmCxlQ38tCia/GvP+/AsaZ3XjYnuP9EVyoa9+zaxjMYjhoNBK2FIu+fdJpYkSYJ0EkXxwWBAmiTB9ckIi0XwgrgRpZY6hJxXxcXtyCoe34vYpGEnVwdMa8kjAUaZpaDCaolxC2ZnL0mqKWu2wiYVxuVkHjwpVbUgn08QIM9zFnmBU8XYhCTJcM6zWMzJF3NckYN3YceberxzjMdjiqJgcnZOllg0GcXF2DAej9nc3CBNElzcqQTSEI3QPhmLOaRjib663TB64dU5x/n5BWuDkvX1MZtbW6RJxmKxoCjKsMhTq9ZqEK3nZ22biGq3GANVCFtAbeIxMuDLL465PPmS+/sFa6MRa2tj9m6uMxydMe9stOlNou9B9BulV/qZihiSJLLQCDyVc1xeXkTjTXCbKMsy3h/uDU7jvw8RoXEMaXBUItBIdMVR8eFAMQMhqlnQM4kub39VEmsYJAm+KDk9PGK8PmJ3fJPN0RoZhgyDcWHLXvCTjvmLbyMZGcH72n/U443DpAHYyqokL3MG4wFrm2sM14bYuVC4EmOEJE3wPh4VHJsvSRJsmmCskJcLFvk8OurDdD6l0BxNQx3rgwPHwzGC4CofyoPi8DjxYCW0h7TGxUW+YDKbUPmS4WjAaH2IqlKWJWJga3uT7d1tSldyOb2kcmU4+dKGenmpfUmDP6kXD0ZR0/qYeg0HuHlTu9S1Yr6J1ujl7bkmKjlEHQZHQkUqjsw4UkpSLbFUWHEkKN4X+GqOlHO21kZs7+7x7PE6k+KQ0Pr+7xkAACAASURBVKTKRppwY23IRgpPnnxGcXHIaJBgfQXqybIhajIqM2A0XsMkQ9a3tthYXyM1ML04x1Vlu6i6iulizvlsymB9xM7OFtvbx21IUyUe5hgc7OtIYIlNWMwEGLC2sYZWCV5rFRWNqK1aBzfxYQNBozMN49xEV5lg6FKMSVC1XF4WlLMKNy/4u7//hA9+dJ/BKCNJa6edoB7oU52uxf57Ef/rptU7oAguT9ZasixsIVVVBoMMayzWJsEJ2nvW1taoqrATyvvaINUaq76d1FmxRfHStwoTLcVeHM44vKkg1RA5OEZt1yj+IuC0oqxynKvY29nhgwfvo1lFNki5s3WXOzs3GdsBAxIyLIkacIorgxHOu3D6JT7sfFIf2GdFBYliBoJJDbN8ytHpS54fHZCtpezfu0UxmHEyPWJRGAajGwwGGZWrePH8eQBBrcKOFglgWvqS8daY+4/uM11MgwpgKIySIdNywmQxDRMx7mBSUUpfUFLgrEON4oyPAChgDGKFpy+eMBqHLcMf/vADjk9OmEwnDAYD7r9/j+29Lc4vTnn+8inT/BKsQ61HxeGpKH2Bowpt3nwOi0qFw6mLUk3sv04AhWZN6+4+qpkXgsFj1GHxpAYyoxjvEK3CllFVwKGuwM3OKc5fMDt7yfqNHfYffczCrDGZXDIeDbl7e5/tERTHX3L02S+QyQvEDZkcPeX08A53H7zHZFHy7OAAxTBaW+fu/fcZDVJOXzzj4KvPqRYzsrixI1fH4UXF08NTHm2t8ejD97j1T885OwFX+GaB941kHeIwZNayuTdm79YWJhvw9OCQRV7hHKgP6iiNS7RqxGVtm6jVNgfwE1fHP01RbwFH5eZcTme8PJ7yyAwZjoK0471FI6tutKZX5ur3YPp10xKYto77QQ9jGQwyhsMRSWJJ05ThaMRoNGJra4ssyyiKgvl8ztnpaYhkxLcJot3UDqnmeIdeVQLQOuMoTUGVlDjr8Ma3h9dJ+G2lJYtqwWR+yeaNTT766Ies31pDDGwkG2ytb5FG8Vak1WVWVfCddFqFXUG1L2EEQUeFJj6wR+NxVJxdnPLrz/6Ju7fvsn1rC9l8wOhsgPMFo/EQm1gmkwlnZ6fkRY53gdHlXpkuppxfnjEYZty5f4eiKlHxkCrTcsrjg6+QfIbzLjBvwmQrqSilorIV1hiccbho2DJJ2JV1cPiM0dqQ9997n/c+eo/N002mkylJkrB3c4d5Nefw9CXHF8fkLsdYwUmFk4qKksLncUtthahQaIGTyNAjmHq0YVa92DTd+ApXJM06WqnH4knin9EK8Y52nzzgSnw+IT97wcHnv2a8c4d79x6weWOPk9MTNkYZ2yNL5mccf/mE8vQpg2qGzOdMDp9y8vw2Gzv7/OCjH7Fz8x7TRc7a+gZbG+uU0wuOjp5xdPAEt5gRAj9DUUExVY7O5jxEuHV7h/39NapSuDyrcK4gNcHSrlq7yTusyXl4f4v9/T0qn/L46RmLHLw3qG9PC613YTVEt15v4hiOKlk07nwSTcFbjHUYM0PlErFjkCEmKUnSuFVU63ip3anTZaSy9Pn79LrUAdM2Io129I1B/ShB3LQJAjjnEBGyLAuuUt6RDQahw/23eRbM0lbFOOCW7wAimHjm5YyD82cUJueyvMAZF8VyH467EE+hJdNyytPjp9y7dZvR5phbo328d1Qzx6SY4S/B2oRCS7wBp455PuPF8QvOp2fkVU59Do7HMS/nnE1PGJ4PuZidU2kJ4pnnU37z2a9xUrJ3d5e1zTGa7WKsIKIs8gU6UZI0oSjzqHdTqqpkOr/k2YunqCg727vcvrdPNsoofcGLk+fIy9AWVeWC54XYsKDgmOQTjs6PMCIUvsDjUHyIUpQIp5dnHBw9Z3Nnk1u3brGT7bKxvRF0yuI4evmUw9NDpsWMShzWGM6mZ2iinM3OKLQE46kk+C4uqgWHpy85uzhjns96MQdaIO1bj694gdDASRD5yznTsyOOnz/B5bN49HMQnzXea1xOcXnE00/+KzcfTtm//wG7+5vcSCsGCbC44PzlY15+/hsyNycRhy8d+fkJh0++RBQ2btxkbX+PyWLBaDhkNrng6PCAl0+/ZHZ2jCkXSBKKXXmLcylHJzkXkxl37mb84Ie7LBaXzKc5ReHIUoOVjKoUnPN4FoxHU95/9CE3tnc4O1vwye9mLBZraPQXBajPYPIa47g2o1v7i06nLSUe8YwMMHZEmo0Yr+2CSYOPaRNSr+GkTUtf/fymQPq9vhVAfvyTf9VAUh2+zUcLYa0DNSawVGNMNGTEQeF92IrnAztYFvObhyhBz0hf5/O2qXuMQxvRR5o61MmoJSNjqMFSPXczclkEP1HrqcqSxCaM0zU2Buus2xHDJAMDlQ/xPrUK1nN1GvTFs0ucVNgsqEDczCFGqKSilDzEoXQWG/ftGwlgVfic0pWIh4EOSdOM0dqQ9e11Nrc3yPM5k+mEy8kls9mUqnJhL7kYrKl9aYUkScM+9fEaN25sM14fczm74OXJSy7nl1xcXgR/ToJebpAMGTAklYyEYJ1fFAsKzYMaQoTEZGgFWZqysbHB9vZ204be+yZubVmWTC4nXF5ehjCGdf8aaSJVOeewNngt5EVYYMKi5VhUC7y4eklsx0adT/S2gOYl9rENIEMS984H0R+tMOoiawUvQoVQGosZjrHZmO3dmwxHY87Pz8jnc4rZBFcsEF+RmLABI0ky0iwDsYzGG9hs0Fj3xRjm+ZzFfEo+n+HKGVQLxlbChoHiAmXK5o05f/1vdvkf/5cP2dnZ5n//93/D3/+Xl1yeJwwH21i7wWImXE7P0OwlP/3rhH/3b/+CR/t3ePrbY/6Pf/8fyfUepe7idYwiOI1ST9RD+2iEauZVBMR6NhgVDAmGAYNUGaSXjEcn/Dd/tc+//NcP+OrpM/7Df/g5Z8fruOoWKiOQcCxKTZyanuiBLqwGVl16XX7/p5VeE+hE40SSxpWjpa+0wCmt9f/bjmlaa0tDklZkrFfV3iRUSq1QDc7npRT4aBhSFAkboHG44FqkjoW3cZ2N/n1OUB/dWbyjtFVkdYo6qHxwrPZRyA2/DAYXRwU+uCKFQCQODxQsgk/ixYSzxQnZaQoCVVVSVRWuqgNvgxHf8giFolJKVzFdzDi+OGEwHCAW8ipvLOmtlBGMYaWUVJULfqpCU1Yfw//5KPTPy4riouBiftFr8G6UKFcF0T2cThCYuCGECwSiWB8WoNKXcSOEdIhOO36WhcoegnZSo9lTBz5sm1UT/FBVgyTlqBdqRZyDhUOLOZfFJVNrQzhC56CqsL5mYBbxilZViOclFYuqCmw97DRBbJC8tCoxVQG+RNXhKk8pHiHFyBbzWcVXX57x+WfPeO+9h/yb/+4vqIrf8g+/OGA+LSiKKWmyyf37++zfv8W//Ncj3ntwn89/c8B/+o+fMJ2PkXSEkvT6u95BHwxRNXTWPgLNfrH2T2qnMoPzhvkCLicerwPu33/AX/1Vzn/+m1OKPGWRe4rKQVyspImsL525pL2eaGchb/D9n1Z6JZjWCvPG7Qj6C9QfuO1qkb+Z7kv7l2srs5ow6Z1WwdIcKHLDYitfsSihooxh2WojXIcpabCIV6ZCcXiNO8EkbBdUQlSlpmzicTGwrtfaLq1glEojIDgPC2VeCtaa3mLUvCI4jaH54uca3H2u6EwZDAfYxAQdKhrBS0BCmdHgqe3rqRgBVSOiOYIu2XsNgVNcP6ziFYiLBj7tNJGvp7UJRi/1HhdZaLv+1mL9VRvydUDa7e1a5A/jseVlqi2o1Oe/q/N4X1HEuvSOGFEBTFgoFbw6nAZoqntQYkjDGltEPcZXiMZtmNG1TiS4mLlqyPNnl/z93x5xe/+E7e0dHn14mxcvpnzxu5yqhCx1rG+MuHtnm0cP7/H8yUv+6R9f8vkXE84vDRtbA7BpaMQOK+zWnObbus7xXq0PwWvvcSq4Ep49P+fLry7Yv73Fg4cfYsRzegKPn5zw7OCYyWTOYLiBkRpQu+C4SoT/XqxflV4bgk91eTfTqpvat7+XiPvSQHwraMTveo77EDRN0eHddyPghMCU0X/PUXhPpfUWVWl3CHUAWtFgwNJoQ/U0xqz2oLZ6qIWVPUzWVtEf2sc1gAMxyr6TZujWVCQcFSPtmJbaiBF8Nr0qZVVR4UizNG7xJTIrmjI74vOMNnFKu8oWLw5vanelq+DZW0e1/k0rjvfGh9RrlcTFzPcz6fUO11y7JnX6wnfyuArDoQeWJaUQ5xYan0+C1IX6EGKvromGrZ8hRqzGLfGKURcXpqthBEVGXF6UfPKrko21L/nJTz3eVQyyBBElTUeIcaA5rnJMThP+7j8/49NPLsnzMaVTvKYYrSWjrl6zBdBlwTpso1baIM6BndZXnVqePjvj5z9/zN2jOevrW9y+fYckmXN6PsG8VKqqYKC11rke89+D5ddNr9SZEr9bDhS8Kqm/2viNi9Q71JnWxEJXvK/LW6dVurgr5QuYijYuNmHxqOstHVDtskaN7LL5TC2W900o3XKZZqDGaz5Ev6jz6540uiw4KYAJgap9ZKrNJotYLmNDlKNa5L5aZs+r48++Wk3THp3x+vHQ5KjtWaLLrLvpnxWP7HdXOPK4Pab4uqmuhMhHNUtbKn9nHARpwsR3plk06/ihddAPaU5C8Ig4NHoQNPAWd9qFbcceY0uywYI79y2z6Tknxw5f3idLt6j8hGxQsbU1YDhMeX5wxGIOsIZ3A9RnqNrIrx1OfIy1FSSM4J/bqY9KG0CaCkNQv1gZkFqLTSq8XnB8/IThWEiS4O548+YdVDMmE89k6nAuBc0IwaHjJg1Tt0F3KV0e2cu9sOq7P530RsxU/VUra3N9Sej4Y0ptRKxYPw06uJqxil8NpmgfGGo+90qM0RjsmPo01NhyHZ/c14GUen/Fe6je0RSKr73vr9a3Dihy3aCXV4NtVI/UKoc3Stpnwd+lo8Kva+1WEJC4oe5NyhxO91SfUSwyDh7neL+Bq8KCUhQTFKUk4ewk6LK920FQvAPBxgK5JVb6KoCKLLQGd4mSjrigXvLgdcDGxl2Mifc4w8lRhmqK8yGIeWIMzsVniFta3f745vUfKr1ZpP2lCbEy/QHb/Ir+rQN8Dcivoj91auljR5BqVRz1dr7l+688g9dN0KhWqKOldxjalfOzri9t+yyJgZaFppy142GL+3qlvK/L/doTanmDcbCc17fEVL4dk0er5mj765o7laXFM7gkCRb1Kfk8pWV2Jhq4BOcs6hIqJ1iTgFYo4fQGpA2JJzVjVkcPUK+UpzFRdf7Ccc4hh4w0SWO8BFA1lEVCOOLEggSVkBhHOEWg/n2oU0ivntxy5VNXNfGnk1ow/VYd7d99szal1VpvF76t//PaGlterwGq2WH8wSrpZfVP4uvV4RQuaZNdtwwtiF4ddNeVtavS6N7cFb6a5zYTXRvm2+w8em16BRP6DsyO5fZ5N9q9uofq9/GdEsX85RIsGWiaOAZ12xnQUbyvNegoCj74jKK1dV5B4jlealqQq0NKUkfQ6o8XufIXF02pz0J1QIJIGjUenRzqMSs0JKMte7f/u+2yOq0G0sZq8F0YMr+3lEBfR/cu0nW6sXf3AKBb5lpCkbAWo1GfFMEsiOivE007LPOaAgcDhvY+rwLTfq59G+yV4dXobPsTZVXpwqO6u9T6d7TstsNMv5ZYfT0T+y6ldwWoXYNhRzzh+gWlhq6w175/KTA6FRdEdjVABjoMfwhIgUqBSs1GS5Q8fqeEI5dNNDLaWIrATOvu1pokdB/bKVl0849/QbLytPpmwREOyvM0Br3oU9pjuF+rUaX5SV2orwOlV6aQvmpGfXfTGx+o97r0+9SFNaSLWkSOfCAaA7xv94rUTuFmRfF06X23U5cna/iyezEOoOZH0rm3b9mv4wFcqcNStk0IS77ZYLpeJ3p9eu3zOpP2jcvxBtcFXukV1baF0j12WFbc0/fvuCavzjbM6NAR0/KW5Oiz2nZy06PtfiuAeltmx79EYn7N2KjvibEj0BAgJ4Jv4/FQu/JFiaLeutw9hnsZSNtcwxEnRmN83/qocYmh/HrN4kFcLJ6hjawfnyKd972/blrmpMvkJrSRrBj7y/Ou4SR1Xn+klPZ6MO0ohZojSVYA5qprff2itm3LN28jWfUhvlpjSKylVN+caRX8xYPltucv2ylN7Ha0mQhLHa4dxtoAqkSm2htGnYkWJ0wtyjXXXtMCq0iB9AulwisB6OumFee1rb6vfvOqKiyrIl6TXrVwaO9dYH6vEBs69/V/ufJpr6h0F0R1ecCFjfA9cNTo66kxVFQACAcUsTOreH8VvpeKuM0gjkvb5B9KH8CuNiy1VZPmfTP0tdaO2viqhD36IWZtKEzU3SrU5zzVB/BpD+zrBokjUAyNUv4Vo6OG+qacdIZsZ8wut3F3rCzLBW+zav+h2ew1x5bEymtXdLyaXmt9XhLz3+liU0u50k4RK8H53VVRCFNFNABqHTCiN9E62FrrXVv/0E5pJQw602GhLWNYRra6Z2vq7Nr2vHpXc+uV73o3twvbu16wXz1NVtz3hgX4poB6BQTFf41Mu0zydU9b5kmxnaUrTvdLVwvE4X3LOj3R0b/2+6zPWZK8x16lm4MaVJL4ycY8w8KhzdPqMmhPwmphzkTXw7jhRC1GY7xVAYlxEQKZ8NGuJPFkYdOrQx/epP/VUrpOOdjdl9X/eefdNYtu9zdvDI7fESZ7DTPtV+U6EX7V98v60m8rNQDdXaUbZ3sIg1CaIbIqdVdDIAyuNrPOdWnYSP8/0zDUbq4NA5Z2uPdZ8FI5arLUKdSV1gtOrN/a8vsmrPRVDhF1ettef/3vVlH2mF5R+NUL1PKU1RUzuK9RpbmzPsixZWTNGVb48L5xmo8H1FHz5RpkpAHFsMjXblEmsjKN8VKvg/O2Gi1Tra3/xKDVtYqgLrdfUv+EcdlCZ3emLD1t1cNX9IOHRuXWLErQbAZpv7tOcrjSK2+UalL1hwbUN9sBtYKBflf8BWXpfSAG2kdZoB7OV5lI51PNPHu/a4WYcNZU7XJSO3u3Zxc1vqMdy2hwOzHU50wui+zLdag/rHRkv7YV/vBJI3tuan7Vd+g7lhRjbBsDAe2orML1Lro224tr41M0smhvC3O4ph0Lfvu0pZEXEaA1+/TlN60X8+VOX8lMQ2R+I9IyVJUQFzWKReH9lWKtyLzLTOsfrBh58WvfYcSq2gS8AZqNIjVJWV6QtWmHvnT2prjYbbHvwkhbDabXTIJlveh1Yv7vC2iva8CrQLQKSL/uk6TdxaQtnPb0pbFNegJiM5CCbq3vaqP1/1fqs0on2vzyuzByOumKH25z4TsM/x0pRDVEsW/POevHSKiPcGn76voOeO11odEAhfvrYD2dMbMEOKu+b54Sh3V9DI6vqt715jlxoRdjQP1SZtop1CrCcY3grS3X7nqPdL2DnA+kpt5d2V8yrrbLH3O6CqYrJ7H2ar880K7c++rsfq/p3T2/5QFhsAiGeI5SDbQilFWJ0wpMCLycWNMGN+lsrQygKi2TfoPyvq0kswqs+/l+QxmpmYfa00OH5vpDj4CrqbdtN3ZrT6rpDfYwpmswiF/R9h70e+YVbVmD9xXguMpiZfnzUpbhwEJPEk+ylAhY9f1JkgRjbFmGMek9JrHYJMFVBY3B9Y36/SqQSi14RGmuXpvCYX7hVAUxYXdVI6k0dV0NqW8LqN+VEXYFTCWKChCbMO4m6lrtl/d8r8qjl1bKK39cSTrTp9HNatwH74OGqo6L7dWHuOfGkCQJiOKrOphGHUVJoh2gv+vqGq0VUI/bt9hTdA2aNjq/RtHVh4iOHPKaB0jD3ppHKK1PpLBUw7cbC6+baG+Sc913NNuEQxhGY4TUJiFUoXb0i9pnVe1w70gk8fN1z5dXfHpdWZscgxzdLOReHV491qSRIcaxGYOJG2Mw1kITzlHbrcc9utvW4Osm6c0HQJUEwSlhe6p3JGkaApRrq+Zqh9p1PPVNnv3dS9frTGvAMNIL6NFevlqd74oe9V2l/nSRBhhqJmYkOqQYQ1mUuKpiPBozMAMwUUvqwzFz9Z5879vIVM0avdSW3YDJ3aRCLzjw167Hip/WXEaiZ0JXdXGdS1dzXX0MihFiDSRpgrXBOdx7H2KIxnOf6irW8Va/bvlfydgje2x3wq1YcJaQrsnPBLeiLBuwsbHJdDplMZ9TlQWoxvrUTkf1w3x8hjR/0AQHbD0BVniztLV/fT8uzycjUS+KIDbBDMJJssVigXMhVq6YMMYms1lwmzKWNM3QqqAoSoqqCvp7A/oWBk3pLrwRFxIE46FYFHhjWR+PUO85uzhDi4J0OMQYoVQfD6CkY82/RlX4qjKsuPe7AK4J0BgLWjGnXXGstSHYcaRdNSvVONBMPP65qiqaYdIJ3vHHlLqDfhlIa71SE4C4vkcNBovFkw0yHjx8wHsfPmBtY0xeLjg+OeJycsnLw5ecnp2yKBakSRIWqAgyAWRjwGptxU31QVRqDv7zPnjLRlTvSgc+Mg9rbBvlq3O92yc9lzUJIQGDC1moSeNDbkIYvUrLENYvyvASUUtM7R8JGOHW7i32b+9TFCVffvElrnC0R5KAesXU7CqKpc77Dhe+umBLZGSmM+6u9Fut0yRAnMd3OrCzA02EJo6LCFk2YFGUJOmQjZ097t57wPHRES9eHDDLz0A92XBAbc8Mq2j0da3LJgZMgooJtnupq+wbiK0dnuow3zVjb2M1xDkn/VEXjk63MUSjBx/arT6XbWNjnQ8//JCvHn/FixfPmc2nlEXJ2toae7t73Nq9xdpojd/+9rdMZlOMq3DqwMeQjLIqttarU3cHlhhDgpBhyYxhczxge2OL7e0bDEcDSlcymU95eXzI+fQS5z3OSAuismSo097LlffxV8vKgfa7dwE31xCZN0kNM22ssUrcThxEgsRa1NhGRKhFj/qIknCshaOsKvoq5j/e1NsQQi3i1xPdd7uPWne6tXGDnZ1tHj54yO1b+5Aodm7xWyF49MX5BYlNSE1CImmMrRpAwhgTDpzz9QQM21+dKkZNAEgRVKsAKFFMDRMzBDcmKvqNbcG3lSh8w2jDs6qWyTX3CVbDcSs1hTLGhDBwvoqinKk3lIe8amTSMLG2Nre4f/cBRV5wdnyGOijKshEz62hTjWOZSASnNtWLeZgk4bicup0gnHbQ66sagIS4nb0NTuMaHXW9kMS/GgxN8K+UJGO0sc3O/l28zbiY50xmC3wxx6YDSueDIUWDy1IdezuIrAZvUlQMDgneoVF0rjeFWoloXLeBeqxENq31bj1pCI1BEe8h6jlVQlxb8aHN17Ixt27us39nn82NzUh4gijt0ADoxjBcG3Pv7gOcU7768jFn52egVXP2mX5tKG26uw2BooIVw0Y2Yv/GLrf2brKxsQFGuZhfIqKcntkAKVpHZYujoKcy0aV3q9lph9pcIT9/aPTpifmNO0tsLZtYRqMRaZo1LMGYFlTLsmKxWDCbzZrf1gyiz0q/e+J/XaKmE1b0RPNVvWJqPMpEpAk4HeIEWXa2dnj/4XvcvHmTk5MTzianLPI5KMxmE4pFgVFDYlIsltqdxMT2bohPzRrVIN5HD4LggmVUGyYnJu66QUOIxA7zrEPy+drR3RuknrRRJHZSQRImpzpHIsHRO5WUrc1w8uyiXHCZTwIzFSCGYqzjvHbZrmhoh9SkSCqMB2MWaQ4OKg1h5VyMRmTExLPkoXIuni1Wfw4SjoiJsTmTIEiLoPhGzGzDAMaQhvXCIKF9nIZFrFVy1mOyZZXeBys+JsEORow2t1n3wuDoBEmP0TKnVKXwgvOhnkl4SABUYxGT4m2KF4uL5dJISoICwIWD/1TxCl5NjGPraUxAcfCpU0JEUSX1QdozaYoLD8MiZGbA3o1bvHf3PW7s3eDZiyfM5hOcKwHFJgmVVy6mU07OL9i/WfL+e49YXBTkkxKtpjipHfW+IfTE8WqAUTbk3u077N7YoahKTi5OODw/ZJLPWFQFThQfg2x3JZHld/V89P2L/cc27LGF0T80kAIkVxo0IouokKUZOzu7bG9vM51Omc/nqCqDwYD19XUAzs/PWSwWfXRiSVz79utxbbrOULZcvlVw3wVSITBC70NXSxQlrVisGsaDEVsbWwzSAX/3d3/H4elL6jip3rl4+mgAHIsB70mSBDGGIs+jbk5xrgqHvKUJigniN0GVUKnDl4HhJInF2KQ9j4o2tB+iiA2MoSrCoXwGE05b9SVVUlLaAlIlSzNc6RjZIdYZxtmIv/jpX3Dr1i0+/+oLfv3Zr3B5OLa6KHOsGIbDIQDz+RwIejlXVVycXXLw9DneexbTBa5wGDVkxqKqFC6cCZXaDGvDb6rCMRymZEmGeqUoy7AgWIM14VBCa9to8mpsOGEgMl5jwym5pav6naY1E5XO2GyoKSJQliXhRADBmQQ7XCMZlnixlBpCjJyeX+DsACQhMTDqqFASY0mGIxaa4MQG8ukdznu8GgyeRAFfgTqUBK8JznkW8xnWgE0NkgZYLYqSkRVGAsPKURQ5djSktGFxTCRlfbTJD97/iPv37/P86IDf/u53LMoZxgaCk9gQIGW+yHn+4gXGC//tv/hr7uzeZXGS82xWktsKVXnrLckCYKQJo6oKVgzj4ZjKeX7zySf87vFnzDWnNA5NLd4IrlHZtORBunnG1Hf+f11JlmD0HfC2t80iWYa6RnWvinOOPM85Pj5mNpsxn8/j6ZOWtfU1tja3eqwi/KwVLaErsP3hILUJfNID/H55rgCqdm6t74miZLDWB9EzMQkpKYNkwDAZYsUyGg3JZhllVaCVD0xMAyCICFkyYJZXlK7EGIsVi8GSpgmShQFXVRWD4aDVT2NJJUXEMPj/2XvzJ0mO9Dzzvb4u4AAAIABJREFUcfeIvDMr667q6rsxAKgRRdK4lGlFcU1/uGxlK5NWS0oaroajmekBGn1VV1XXlXdGxuHu+sHdIyLraAAzAIaiyWGF6sojwsOP19/vbrYZbGwglWSxmrNI56yKFdpoJ5KbCFtAnuY0VZNO3EE1nVcBsWCajlkAxhQI7ZhdUWgaVjDobPD06BlRFNFtdum1e+QqZ5kuaMQxVltWqxQpBHEUl3pzgTPCnX44RSlFpGKUcMAnhUQoNwbJakW+yhENQbvZobfXp9CFKyRoNZ1WhxBVJoQkkhGNOMZoBy5Ww6A/cJVxtXbVca1xNbWsxSpbza8QXsfsGGlQFQA+iMJJGVooCqEoREyGwkYtWt0BjU6TZrNJSoNVpsnTBJvNMUZjrUUXOckyIZUdmt0ucaPla4hJRpMFq2SB1ppm5PSmQkoQMUIpup2hd6NzxQwNlsPnR8QmR4/OyUbnNNs9jIqxviaUtILd4S799oBsmXH64Yyr6ytEbL0x0BfA9GVrlqsVJydnXD645sHOA0QimEynLPIUS3GT/3znZsFLKV7naZ2qSApZGjItAi0shQh6ZPeM0tqy8gbCIm/hD9/Zm65SDNRE/h8AZn5ff9f7Y/OxDkivr/xmK8iyjDzPUUpR6IJWs0UcRZSlTSy3XKnC9f6YrWQna8hYkwDDS+EcEfcvMCE8mCrBYDDgZ/ufs9PfY2e4zcZwA9VRPP/sOftP9rDGkEwSPp5+ZLVa0Ww2GQ6H9Hs9Pnw4Zj6bU2iNAJqqydbWJu1WmyxLuby4JC8KWq0Ww+GQzc0hVxcjtjd22N3ap9vtUljNPJ3x7uwtb0/eMFmOyfIUKSQt2WajtcnD3Yc83H9Er9NDKIFsScbJNcdX7/lwccxoeoUVhi8++4JH24/Zbe8xaG3QarV4uJciGxLTLljmC+bTORdnF1x8vEAIwcOHD9nZ2abT6XixPEIimc1mfDz96Aq0GcecpYVYNrAx9AcDDvb32d/fL3fOcrHg6vqaq6srVsmqNGg2owafPf8MrQvyLCNSETs7O24NFgWL5YLr0RVvP7xjkcwxyqAarjw5QR1TPxlLlYoz2hlfKLogJhcxhWhw8OgpR4e79FRBo9FgtILLyZzr8zPGJ69YJRmREvQGfTb3HzJ88IJGb4s4bhPLGKliTj9ecH1+wur6A2J+itWpkyGUpDXY4ss//Qu+ev2OLDdsbu2wd3DoDsg8YXryiquvf4nSCVmeYTLtAEgLHuwe0BAxo4trzs8+OsOwcUpuN5JOP15YJ+Vkizlnp+c8+eIx+1v7bPW3uLwe+8G4TyZb3zvVPvGbKKij/KFljQUjiGTsQlnLct3OgGmEcaWQrEsGU6lAwqSsbcu1Ht0nMdraJ779Kb5bqwPy7wOod4JpYHF5npNlKdIbQLTWFIUzRpRMQFDq0MpOrU0ANefen7Y5A0ZwrHetrN/kF8Od1mHuUX577XnIeKOUYtDfYHd7l83+Js1Wg1xkdPtdWqqJRDBTMy7PLhFW0uv0eXT0iL29PbJVRp4W6MXS6U6RbG/tsrW5yXKxYDqaoQtDt93l4eERz5+/4PjdB3Y399na2AYERhhEA2RDMplPWKwWZHmG0ILN3hbPdz7jxYMX7O/sI5UiKxw4Hu0fMextEumIbJqSiRV7O3s8PnpMnw2KpEA2FJ1ml63BFmJoSYoezahFMku4ltcA9Ht9trd26Ha7YKHV7NBpd7i8vGR0OXZBDRaMtiAtkYLd7T0ePnzI0dERg8GA8XhMs9WErV22N3e4HF7y5vUbZrMZxhhiGfPZ88/Ai/aRUnS7XQSCKI7Ii5wPpx+YzefkRUZarJxOUlJ6DRCKCAZfx1J/6ZzWtFBoEaFFTNTus9fv0xEZjWJKHDcYqD792ZJmo4lZXDFOF0gsvX6fp89fcPDZvyDRDbIUlIjp9Ye0Nw7Z3Nzm6l3E1TdXFCZ1DFRJGv0BR1/+nGs6aBNxsH/Ezs6+O1iLJatVRtH9gF6NSfMZxkIknB/s/s4e0sD15RXT8QQhlc9Opss1Hkp4u1Vlubi4YvVoRafRZmuwhRy9qVjlJzZm2NNeOi9d3MIYIkpPU7AQqQijrQtdtaKskusMbdzBUH4/GnkT7H4oA9Qf+v1vic13lw/GJ6UUSinanTb9QZ84jrz7xrpBot7+qEphrzOTSpXVRo114qHRpqSm3wXnLZQWaSEEuigYja75Kv+Ki9YlL5684NGTh4ySa16//oZ5MUcYSMcpZ6dnKKXYGm7SbrbZ3dmj3eqAgSLLkVJSyIJm3GSjv4ESzpmmETdoxk26nR4PDh9gNcynC75++zXJMqHd7fDg8SH9bp+d4Q4XFxcUVtMWHY62j/jLf/6XbDQ3GI1HHJ8c8/HqI0YZnn72BNkQDLub9FoDJknB2ekZZmrZkFscbj5A54bz63PeXb9lJiYssjk6K5hP5qQrVz759OSEydixHKMN+3uHPHn8xBlSVFTq06wFow0awfNnz3ny5AlCCN69fcerV6/odrscHh7y4MEDXjx/wWK2IF2lpGmKQDDcGNJsNFkuFsymUy7PL1kul+zt77G1tcXe7h5HDx6Q6ZTr6RWZdT6ipdXeL0JD/TD10y+Fd2uSGKHoDYYUyYyP5xfMPr6m2+3x4Gd/xvbuPgpDnI54r1PSZEGz2aLb67FcZXz99gNnZ2OEjXny9Dl7B/ts7x4i0zHj9w3yzFV/QAqsiljkcPD4Oc24jTCCr77+ijRNkSYlufrA9WhOrDNs4RzhIxXRb/QZbmwym0yYz+bkeYFtePWB1qWLFcI9a6QU7U6T+XzO9dWIw+EeG/2BF8W/w/Yp93WltsNWPyEPgJISpSJnkDPeSBuuIYNBqfKvXk8OdHdfare53a+1T1X/+iGw5g+5zt3MdM3Xz1lYoygqXaG01uzu7KJ1wXQ0qgruCdYY6loP/wjUtF6kLvjJBteZ+8D/3mvBmiojRJLMZlPyaUG/3ac36JKw4uzsjKv5JaYwsIJWo+UjUpwhIUkSsizzulzHkFqtVmkUybIUo40LBNDOZWq+mPP1m695/f414/nE6VGF4v9Qf8XDw0e8ePiCN795SyyafHb4gs8ff0EURbx881u+fveKq8klqVmRmpRvRl+BAO3ryhs0H05PmDDjoH1IL+rR7TiG+eqbr5kwIjUrxzQL0IUzao3HE+bzBcY4He98vuTw4JBet1djMw684jhma2uL3d1d0jTl+PiYly9fkiQJQgguLi4Yj8f8zd/8DU+fPiVJEk5OTrxusiApNN9884qXL1+WFViPj485enjEn/z8T2g2mqXu/tPGC3HvLrXWMh6P+fo3v+T87UvibIIxlgfjjBdf/nO2NjaYtNtoXVAUOaPRNf/lv/wXxvpXjKc5hW7Q7W1irKDRavLocJvt7R3eNhqkC7fepJC04hYb3Q26Gi7OPnD8+iXv37wiK3KkMagiQ6UrhMmR3ojZaDTYHm4Tx7F7huCq5Q8LC85dEae/tBhXatsajLGkqxWAkyI+hRai2jdxHJcSaRlFBfW4BVqtJju9IQe7h8SNhnMJVOtRVpVKwO1Dhbzrzv/Lt08w0zBREiUp3W0ajQa7O7t0Oh3G4zGrVdBvVe0moIbyCXC3WP2DtRtO3SUL0aHiY/lohMQP37c3IRTRXcZSaAdIWZGS6xwtnc9tmmZYbZCFs9bWgd35fXoe4V8X3t3M+gCJYFwJfojaaFZZwjSZMknGLgTSSpJ8iZSCZtxCaYWyEZ2oS7fZQynFmw9vOLs+ZZ7PKEROToZNqiqp0s9tnuWszIo0SimMMwZlRcYqXbEiIzOZM5SV+efcs4fMQHlekKapO6w8qGlvqAGLihT9QZ9ev8fl1SUXVxckaUJeOJcemQiS1RKEpdlsIJUs589Ygy40s/nMGVxwfW40mnS6bdcPrPMAUIrChOxNwRhazbt7Kcyh+6lMJhajc5LlksViQUun5EXBx49n7D98wtHBDoONITKKyQpNkaxoxindjW02tjdpNPt02wM2NjbZ2hrQaChyAVEUg3UMTwpFHEVECCbjay6Pv+H6/e8w049gjGd8EmVAWoOQVYLoyNsnIKgl/VwEJ46aFBlUW279GLR1eksZ1QIt/Lc+/be/hVfrIZ3JSEWS7eE2+8NtHu8e8mh3n067y4d3H5gvF2gbKhdUcfuOmYbOizvvVe/F92GIf1QJ2LdvTcFXuakoGo0GvX6P3d1dkiRhNpuRJC6U7SZIhmxJhEOpFjnx43JUWzFkWzHS8t2aaP/7AHv5XDgwdfXNNRqN8SUoSj9M/3njw0kR1icvD85M7r+Qtiy48lhr0abwKGBraIDbP94J3OJExyCCWUDKyh9YSMF0NmWVJ+Q2oxA5hXAHn7Sy8l+VEkPuriFAC4MW2hkOqEJN3SEQopfCgVSLjAsAJly4orG+JIcAqQRRMyJqRGR5RpKu1p9FBJu28VFK1gUjeP1feM96NY2QAqkE2hQYU7jf/tAUIuQctWXgQmksCQONpAyHsq5ukixrJ/nx9BE6aboiz1MiJWm22wgVI+Mmnd6AnYMHbD/+gmZ3i7wwrJYJ1ixJFiPaqofWOVJGINxWkyJCyQhhDePLj1x8eMv84oSGyIiss5ArK1FW+KTOhZ9bU1r9yygr4R3fTUiCLitNqQihC25OjPfzNFLcCOWsC7aVDtV6bx4QaG38UqwRAuOlVGPIdUFhDY1Wg8K6flICuiwPKjfq4Rrfwb/nHpn7Pvj/YwPqt4Cp35hC0GjEbGxssL29TaPR4M3r14xGI9Isc59cY15VQoa1fGM/Uatnz7nLv/QP744ojVcagxQFhXQ/msIFNgjpFrKwHky94l7gtoVwPw5gRckQXd+NDyUlnEQEUJVWooxCBwd247eL0BhZIGWElgWFzbEY4ih2UoUnCiFuPPivRjJGCPccCIGRhtzmFBRoKkYvED5Cy5YRVsYal45QCoSSzqBjjTdKgpXGGcmEM5blOqOwuaswrIS38jpHfgfcxt1TukPKlCU2vN9spIgaCq3dARQ33N9CQWEK0twxSWKxpuOuz5mreeQkLoHCupISDkytRlrtwdQZp4xw1Rucq6sm14YCQbM34ODhY1588XOGB0+ZLlPev3/H27evmc3m7B885vPnz+hQIGSEJfZjF7mKEGiWs2tm1x9JZ2O6/abP22C8X7EPTDAaZ8RxIaABSK236gqff1rg3LwqPuijlAIzVaAjgdEiFFYJo7LerF+nWJf0xVgfgh/UCe5QLbKc84/nLMczJhdXLKdTNv9yg96wT6vbRo4UQrjS0TKQAlySH2mlP40/DX/l0r/vvRt/fxuY/tgwdCeYhmggKQVx5JJX7O3uMRwOMdby6tUrJuMRaZqVBihVpgLzLIv6YASWWslbDnB/WN3JbZh0C+H76ke/2808KyVHAFrkaFE48PC+t8atHK+/AiMce6WMQAkhnYJmq4mMJCFZhlSyZFXGZzHK8txHO/mwzmCl9j0pbI6UglWxZLaa0TcDHjw8ZGomZIsUhEvbBpVIqKRysOFDiAyG+WpOZjK00J45OvA13hoeYuFt2Vvh/G8DAxLuEHGqIfeMhcm5uLpgOp/S7rQYbPQ5/Xjix8AdOEY49ccqW5HpzB06yl0v0ylp4V4PSYiL8rldqWQVK6JYUeDZnO9vSK4iQy4B4WuCSYnVYd248sihqqeDNYVBs7GxQa/TJktTRuMJq1yjZESj3aU3GDCdTvj7X/6K4w/H6CLFWoikJVaudIgRMVpEZVCFEoZYFrRjQ7cpMQ2BovCKSOFVAqJkzA74fR+FQUYSFYUgAQ+owiVsEdZ6VUzIvQtWWmRDQgN0VpQHqnSiU3nPcmmbdUIka945wf9XCuUCTvKc69EIZWF/d4+N3gYiUuW6dslZSotVWYDSlpiwvq1uc+Tb7S7gdATh01sW8eMC6u0UfFDqWxoqZtDr0+126bTa6KIgXa2wWhOrCNlwp5w1Tn9WkndBGd7oZpxKeX2Xz+fv0e7LYFUuAiGrDEt1NvoJXYP16H8n7gp/+tuqmo+xmoLMMdBII2NYLRIIorsEqw2aAmsl0/mEs4szdvZ22N3fIU1XTEZT4iji6NER27vbntFarHRMsDCO6TXbLQofHYUFqy14NttoNsjbTl9LBKP5hIvxBbsHexw+OSQRCeIErsfXRJGTMOI4pshz5osFeVY41icUhS1YpgtUU7G7v8vh4gFno1OsdO43eZGTew8Eox08KG8EKUzu1oEUxM0YEUmXmQjQGLI8YzafMdzcZP9wn8l0zHw5RynF5nDIg0dHpDrj/PqCtEiRTUVmMowyNLpNVCsm9wxNCYVRFhqKRreFVZbCFuQmL8HZJREJZ7gTS12lGT+DQpDpAmkKpLAoBa1mg53dXfJ0yWoxp9Vs8uJnP2N7e5vVasXVaIxSMe12i063R6vd4eLsmmSZIKyk39uk1+3z5NETNje3SGdTVKvrnO91ThxJui3FoGXpxgXthiFtCqwosMKJ1cKXey7XtYUszbi8umA6H2OFptWOaTRj0mzlP2/R2oBwAK48v5UC+oM+rV7MMp9ydnkMtkBh3WEfyE5tc1jP3ispLojkLmwY6w5hhSSSCmXBSkFhnSohajWIGw1WXmqVJfqF8i5ebVS/NXcD6F0wsQac/gPfVhTShs/8iIB6JzN1pwk04phuu81ww8VqW2uxsWa4sUGn1XadtM65fzqdUhQ5WFMxTluJ+GsP+Wlz63du9fEMLhcVExYlEy758I2Ju+ta93ardgCEhCcGKESBwZCalGW2ZLacel2f+5JGu8QiQjFfzrkeXWGFZWd3mziKWcycNXxjc4iKI4q8QFtDFEcUONDOtYuWynXhDApBF2wteZGTZAmrPMVKFwG0WM05H52zM3I+oIcPDml1WkymE4QU9Ps90jzl8vqSxXJBlmVEUmGUIdMZk8WE3OQMtzd4Lp8xmPac2G01o/GYs7Mz7x4lSmlN+g1YmIKsyJwBQglQjj1pq0mLlLPzU6JGRG/Q5cXnL1hlKyIV0W636Xa7TGYTLq4vma8WWGkRsSTTGRhBZnIK4WLupbJYJTDSkpuC3GrHbrEuQinkfV23O1YuUX4uTcleNelqibWG3Z0tOq2YIstoNpvs7O6S5RmX5x+5ur5mmWYYBNP5klWa0Wm3efrkKQf7hzQbLdqtDv3eAIFAG4tGooXC+AJ7tlixGJ+Tr8YIUlRksEZjRIGwsmT1wvpqDtZ5UExnE87OT9gabtEfdOl020xXMyTKHcBWOzZoBcpKJI4Z7u7u0Bm0mS+nnF18ALT3bXY7odKfut+BUFlrvNpA1EDVfU5KD9ZKgTFYKRCRdFFPRpPpwoXrSiCSSLle4mX9nnfsPXs3TNyllvguOtNPMd0fqq2BaTgJZTBgeL2gMboU5yMV0W13aDZcfDUWFosF6WqF8S4Ud9LtH0PUvn2L8jlugeXNiblj5L+td2tJsp3wXorC09WUs6tTZvMZaZ76MEdngNE+21Oaw2w+YzS6RqmIwXBAf9BnlbhkMVmeoQvNMkmQSmHzgizPmEynnJ6dslolfh4oDVyT2ZTTj2du/IUDrSzPubg659WbBjvbO2wOt9jf22dvd889uoTzy3MnURQulNNgIHZeBXquOb04ZWtni8HmgN5Wl7RIKXSOBT5+PCfLc+IoLvWSUjlL83Q2xWCYLWZO5+nPVWMNOi84PjlGG83+wQFbO5suKksqsixnPp8zO58xmoxYrJYAyEhweX1JlueMpiOMMCihsNIdVItkwen5KfPljMK68smmZpC7ex4dwCN9om5ryNOEq4szjDa0mk12d7ZpNVsYa0iShKurS04/fGA0nTGZL5nOF6hGi83tfXb3j3j08AHWuAThRhvG11cspmPyVcJilbrkyAKKImM6uebV737N1ccT8nRZriaHDJWON+i2g248NznHJ8d0Om36G322tja5mlyjZITFooSraOrAFJSSNBstDh8cELcizi7GXFyfU+ovA8TcRLHyl6SKH/PwF8iRT0Rjcdm5tDUQKYyAtMhZpSvyXCOUyxcQik8ig7ro7naX+H5f+wOF2x+83c4a5RejMbBcaNKVi80v9Y5eIV83NhltKHThki3UkklX11wXxX/oVjd+UXMNAfyJfVs/+/vC+i2DlnQL6XJ8zjyZkec5i+WSIs8xRuPC+wDjqr5fj6/5d//+39HtdOm2uzSiJlprRlfXYJ2jtbCCVbJiNLomipz1ezobMxqNKHRB3IhpNBukWcr5+TnzxRxduBj1NMvIs7x0ej8+/kCr0XSx8tK5DiFgvpwz9mJ2FLkcqNpqkjxBFIL/9F//E4NBn82tTbr9LstkQZKuGI/HzBcL4obLJFYYV1dbSEGapvzq17+i1XQqiTRLCUa4IDCMZ2Ouxld88+4bdnd3CPr0LMtYzBcslwlxHBPHCm2cO9Tf//dfYIxhsVjg89BRaM10llK8z0jSBadnJyyTJdoax4K8IeV2iW3hvYmsc12TAl1kjK8uMFpzdnpCt9djZ2eXbs8ddNPZlNH1iPl8TrvdBhWRrFZ8ODsn079gOHzr9JyeuelCM7oeESlJq9FA55n3KrHkecbV1TmjyzPS5RRTJF5Pu64LLPWVuATkUaSQRjKaTLieTNjfP+DJs2eM5lNHZrLUWfFrus52q8XBwQH7+7tcXV1yfPKByXxG1IxrSPQJvZeoxPsKUmv72SNrGVkmQTUi4lZMs9Wqqul6/2rtVYL/6FDwB2p3ly2h0p0aY8iyzItIPmu6P66C87qUPq3YP5JWTz78Y7Lh4P8JODZqNbrw/qH+v7AMrT+k0jRlMhnT7faIVezck6zzlsjTDCkkzbhVBkoopcjzjMlkQjD+CCGQkUQUgtl8xjJZlOChrWPKhSlYrOZkRUaaN4iUu5aKXF2gLM8obEHcjBBClu5aBbpUj0wXU5IsQV5I8iJHSEGe52GQQeASlBjtQwddQELpb+o/F9xsCl0QRxFSKbQpGI1HGGvJ0syxcp+OT/v8qcEtb76YkyQJRZGvuWAJAYXOmU4naF0gJChbO0iDTF9Xz1jj8ds6I40VUKRkyzELmyP0imSacprMEEKRF87lKs8L0Jp0WSCtJpJgTU4yn0CRUeTahc0KVwNJCsFKazKg1WohbQFoTJ6z0glFvkJSIGyBRNcYqR9eHBaFso3gpIbFcsnJ2RmtTpsHR0c8ffKEV9+8YrVK3FqzFikUUkC30+Hh0REWy+nZKVfXV6hIEVzDbBl2ele7LfbffIdAVJRARsqppxoRG8MhO7s7LBZLr/bJvb5fU8oMPyK5+mO1G2L+zbe9k4T31wssL2T8llKVUS6VsefTN3R6rB8P4Koz9KeZrGBpN7lj53h9ZjkeotIzBcADyLPM5RQ1osqkXxSOi9gMa43LyKRcFv40TasDQlRsPKhg8GoHKaR3LTIUonJ6V1YitERo/MJ2jNHlgjblvNig5xYu12hwvLe4XJkho38pcUgZqr2XVRdCpU/rVUPhIKmkFDdGSZJggSLPS1/lkP1dIgh+oHnJ8sMBLtDaejWUIUmWZZgvfBs8WCQh5NFZ/YUxiExTmIzYkwJTJC6Vnk/aH1lv/dbOOi1E4cqCFAkmyUBbhPGSm7HEPhELWJS2YHOszVFYpDGgM597tRZQ4lDLlWkmeEpUYngIEhmPR5yetWl3O2zv7PDh5IOz+Ds0JY4jur0uw6GzdXw8/8jH83MWy2WpCy1F909uk7sAtGph7wOkacq7d+9IkxVxI+bJkycsk6QMtJgvFy7D/w2f6X9K7dN+pvesysBIlZS+/o9ZE+0/fc0fws/zH08LbF0bjdC+zIsHJYFzL6sLcEIIms2m+9v6RNsI8izDSUqGvMidEVBVeiljDEJVqgrjGZb0zqgOrJzRxwY/ViXQElDWlYvw+u/AKl39o/qGqVQjpVeGD6F10VLCHaSyOrKiSAIhDR+lGkhJ5Wr+1NyplJLl9bWpciME6SYcQiGPghtfV9UhiqIypFH6OkfgdJ+5LTwB9Tk67zmsRWCktdKaLiWcRhqNyFOUlEipMEJQWAMK8K5CzhlduQoIwnmvNKxAFcp7b3gGqUDYgki45CMNs6IwORbHWKXABzUYqrLLtvR0saE8Tv0ngKuFJFnx8eM5QgqOHj0s9bFSSefT7KPDpFJMpxPOLy6YzWaAi0Rz0pStxulelliz1N3zvsV1P1klvH37hsl4zOHhIYPBgI4QZHnmD1mCiFaqD/4p4QDc0pkC2O/IwMPkeuL+LWzzxzY+/bGaCJuyFm8cjJbBl/Mur4Iy3V9NF1Xpp6prV5VBLCE00ALWBB122AvW47OnUMJnfJcW6zPcW2GdhdwKFwDkrcVYH0nj/QKdn2MVAhyu75ijLRloKQN40LW+WGBgw2uGC8+6CMPhi12FygxBbVQXKSv9Id65PvwtcT6h33OuQn9slZ9B4AymyvoKBkYgqGfpD5FEwc3KIKzx7FQQ2RzlP18qyKwvb2KdLlQZwBbuoPD9cEVOnBO++9p60Z8QtRvwx3g0csETmsVywYfTUybzKecX5xRFQaPZAOOATV9rkjTh+rpNslphhaXd7SClZJEsykKHdWpTH0/rRXG71qvaWK7Nl3ut0Jqr62tGo5EnEa7vWZFTGE01mtX9/imhwieZaRDx73vTGls6dbvN7t5ya2N9An6fqpr/q7QAqA7kaqU9CMDqy1iUoFqJV4FIhfLQLnzTR02JkA09qFco/Xqt25Gl6sViy4ip4FjtHObN2jyG39K/7+V7gh9Ktbm8v4KtKU6CVOF15tYE9ZvfdDJ8C1+VtVobSC++CqdWCM7bpuY+5/p1M49BbbOXr1UifWCYpRvNJ5dZACTHUIV1xNO5CYWQR8/EERW5sNVhZ/wh4lNVOLHduqilUCDPjVVIPy3AOJdBGcbDUAJ0vWdhQaynlwsVFNwbgb0WHlAXyYJ5V8uKAAAgAElEQVRFsnSMN5II6fTY8yQjyRIWyyZCSgqvs9ZGu/LjgQEHpk6dh9bVJWKtn+W7HuzXJAigyFI3fr68ETiXqUhGaH+4BKXUPy0Z9d6sUXD3qhQlay0dem39O/7fN1/4IzZx498/dK+qQ6MGnrYuMN/OSSBqIbY2fCf8G3dA1VzyKu5qw+ayteGtuK0IoOaleFt+v9Lhhg1u8fWhArX1O8l6hCy3V21n10NxvQ2jUg2szXe1NtY4uah/QtS26frBWx1N9VZdw9SMShV3c2/e3PoBHNc/XylegsbDhT2G77gA4HoW+BAVVadiQghXzcuDMR6QK/brx8LX6ArnUtCFihvzVPbQA6otu+6F/JoEgl8nIU8BErTVqEihZITJMwqdk6SWKI4x1hVGdCWhy8wo1Q/1jtwB8rdmIoSX1sZe4PxOa5KYxRUHtCLshvvbd5U0vq9E8lO1e5jppx66dmp9AjD/2FAa1kgNcyqQ+cHvVAFiONnLZWmrjVP1ZZ2Z3trsPgSz/lowzgRROyzUNS5ZJgWxtcVbiee1q/mp8y7Z3q0HW3PSWQPye55c3N584fG+vd0Ever/6xBblp2r+mTXn6V+DRv0cXYdrkssFtXciNrfIqhMqG61Jnj778uSUIhK9RwYbAnsdYCnBqxesrg5/9TF6erOpQkqgGeYLyHKZDraujpS1lYGSCEFwkiwxpd2rh3t3he5nl2qGkB7A9mrmbgJYO5aojau7n8qinCGzMqoGVQ+az83nNFvXj/Mw82D5vcF0p8Cj6J/rCj/h7S7nqkOoj/2M4va1AUVANbWGKitbCD4pVpuGL9pApp6nWsFpNWJ7xjaTeZoKwNGDViDhbjkiutEssYGRbmCb47X+t8/5Ch6vry+j91dAlteY0v3sNY72rqB7Z6P1vGkRtVCtqygOw1O57ehBagdmqGMyKd7eGMCbgBpeLU2Y44veyd+5UET4UqtuzUlMda4HA7Wh85ag/DltKsMXtIby9YPY7fe1k726u729lObYGQN4G/trSxtlCobS5lgem28b3z87tvfanetvm8DTCvEt37mO13ong9+awq+/1XbnYD6k9JlW9u9tgTQtfdKMdgrH70caEUAU7kOgCKUrQ+W5UrEX7svNwCvZE7ro1JJd3YdUG/ou9cZpOdr9nusuXvbDT5auk4Fq/9d7TZQfd/73f775g6uJ427aTJRa2xNeEMaJYjYEn9vs7nb3fAQfOdn6odmwD7ri9D53NA+Y1jF9nRIW1iXYuoLX9TLmtxuwTN6/QgKbmi3d1UJydYx1dsfCSu0WqmfOs+cVFG98EMd2etpB3+QK9565Z8smP7RWw1IKzC0HkDrXEBUi11UouW6Q3X1vfLVGvust3V4vekhcBs0qu/cFJirr4i1zV4ZaX7ItnY5UzMwlS/5JMl15/Gav+v3b/WY9PrzibWfuprBRU/VSsF5xh+836x3dZJe0rC1B6tLFLa8T3Xr9QOrei3Mtcsj6+6sCekPXZYuWya2N2gv7pePZQMjrfmu3rynDQeoWx/iroqS1gFmZTPx4+//cIBa07XXv3jzwX7Edr9iolovlUfYt3eoHkL+be1/g+mP3uza73VADSygUkKEBS9KkevmO2Fj2tord9yytiMrQL29KMLmsvdtgB95B4QRCNFKFrzvchXtBVW5buVzvoYk3YI/DFDrYrV3lKJiptVnKBlg9V6lqqnyWGDxnhyhX+vwUl23rrJZb2szEfSY/retX8X63KQ1gAvhu0BpxCxXiahWEiWwBKlJEPw/w7hWNLHS9ZYgZf0NfDjkulPG7fmoxvIHPoXvvtEdy9bNifGqiLs8RqRfd+7j7kmDKuO7tP8Npj9JW2d+VoTFW1+Bd09ZuRVF7ftrHOfuFlyPPt2rYBj7xLX8+r/JTu96/fu3GurX9G3G7+jguRuCDYLDfh1Mw8HzfQC1Dp43WamogaX1qhdRgo/7TIhPsZReYkDFeiLp8s3WN+ZN0LzJ4O7DgBIEy7M3AABUpVkq8KyL2Q7vRAmYpejsDU+lXt1W81liaA1sSuv8msuORaLWhZh/JB48n2rhAIFq7ZiaJBT8wn+fXCL/G0x/guY2xDrsBCdvIZxYVd/WgZXVJ71ufArXXK8aUBcO67+/vXc3rf31Xnoaza3tXgLK+vfu8g+9r60BdGBJ/sflH3B5A/I8RYfQVOvdgSKXsSxE3tVFzh+z1cVEgEIbD7/G600NRikipcqyHiFx+tp1fnhNyb39LedErL2BANaqJoh6WRHXQvFCwCUM17p8PYpil36vZL64Eiq/BxDVm5C/n7RRVVVwzy3XkhvZWk0yf0Dr9blxzxSRp1n5HWsMVoUxsJ9cXv8kwbR++vzQ7eZC+eHv4+jBLaYobn3kW67xe969BHJ3nXVHosCC7mHR9m5gxd4G3ZvNJTWpFrYr0peTZRlVxncZnBscYyx1lbZUE9Su+O0Pu0ZMb6pB7v7+LdcqpbyLlMsIVeSGuAFCSOI4XhMdK3miUiHclAnc6FZ62apfMnTgVn/qMktI5EK4V40dG1+3CesqiIZcpGmWoSIXRiu8aB8ODWNDLTLnjhXLqJQE8myFUgprDEYbnyRKVoEXN9axm6J7VkLJiLlxeH/XdvvzWru8wiH8PVKRS9rkJZwoCvDnxthlJlu67GqR8moUUL62lhNQ6gRg/b4/LJiGhXYHwPzxBIDveUre9fE6KbvvcrfktO+nH1r/ek0I9NgVYKzckLa2ge7b+HeBcv19rwMsy5DcnLcgXZbi9NoDrn/0higYcg6sqRDqfqk1UVn49wTVwteFq0ElhKDT6ZRJQ0KFzurAvNlnUVvkgvXx8aAg6vW2vL9oyai9+qC87Dr3D+NBDdzD1aVyErm2ksIYlL+P1trPW92wVRsZUbtXKdELrI/LCmG/Usi1j4Z1AdZ5FZTMqRLfg9VfRso/o8bogvCQ1Rg6jwEpAevrP4VxtCFMWBCpBg54NFhDJH3kl/EJboSlLFYYdK7+mUIw9M0VGQ5vUV8iN8YkvBaOspKFlocF5fOX81k7f4QAJQVR5HJACClQqgJRYyxaWy9jiDK6T0SRV/dUxjdRdWZtz9wdARWWTeh8eVrd9emqyeAwXR8LAij8BHBaX9n+nmGjfudLcOMaVKxqTa9yq4WJXN+4dXXUt7UahPrv1gGu7hJuK7/Tsm83niLM3Q1WWDfslP5/Nefr8sTw873ed1EZfe/qfwBSIStG69kIwtcSgnLBh+vfbKF+VhTH9Ho9dnZ2WK1WWGNoNBpIKRj5MuO2zB5VMfoKuAIsrc+Z21w+z7y4w280ANI60q2NQ6vVptVslq8LoDCGNM/I0xVJlhBLiH1SFisERkiCUkDWvTXCYWnrPpoChCtf4p5BIoQKJxvV/gRfUa9cIY45GoxxzMpYgZQRKoqIlaLTapJmK1bLpc9DrJDKHQaRckASsnhJqYgiBdaQpRlag7UOkAb9Nv1e14WvzhcuTaFXR4mAjH6yg3EslICuDi98/lkXkReCIqqtHFZvWLd+LgpTm6MKt8OcKl/2GypPEKUsSkVYi/N6MAYpnCpJKmg22ww3t1iuEhbLBXmWIX3iInC1tQSU1YSNP1nDur8DTEU5EAHho8iX0/D6kvva99GX/ZjNrIHQH7vd5nO2fKVyvwmv2Oqt0oJdnsf3IlmlZ3Qfq4Gl93e/60CQ0ldQNa5ipClZiCjBCfBusNXiX8ftu01QbpNIrHcYx0Lls107lGoEO/RxtUqx1jIYDHj06DFffvEFSikazQbtdovFYsl/+2//lZOTE1a+HHEFnnc0IRDCJWdxgONKXJc5eAN3CM9YTUHZ27ChAwQePTzi0cNH5S0MgnmS8PHyktOTYxbLGZkpaEWKSEqsjBzTFBEIgRLuWxZK/am2BZW3qiBkDAi9MEKVBxIBsLDuAsKHbFqBEgKMRVv3t7YWhUSpmK2dbf7tv/2/ePv6Nb/5H//A6ckHGrHLf6oiz9YsWOuqH7RaEd1OG2sLZlPNapVjtKTdbvH02WOeP3vC9fU1v335OybjaZk3wnr8MCKkO/TVFjwrdIdDdfhVMVLCZ9aqMoxV69tnLhMCdJXSMeyRcNAIXxet1+shhGCVJKTpimazUSZHT7Oc5TIhWeVEjSYbG5s8ffqMv/43f8Prt2/41a9/zZs3r1kkSzrtNtJUgG/LAofr6y260/BfY3RSKpRSLrlwpMpSJXmRU+QFWZaRpqlPZOwmf70sgV1bqNynM/kD2rrIW2Ns7iHu3Oz3Nr9z1npZw5W6S0V5L1uJIhWo1eWVm8wnLDC/UX0/A21zIowpc3RKP6b1zUy5DNfHwYmeNZcinwZPiCpvarCEA0ihXDo4Y5DGECzaSvrqqOG094u5BGMfiRP0YO4JZHkAC+GdH60rM22sQfvKoo24UVbXrMYQL5Zq8NeO4wbD4ZDtnR201sRxxObmJj/7fIv/8etf+wiwwL5rPo4Wx2KbzcqVylcCMFq77PVCov1nA3sqZ8lWUx5irxwYVFLBcpWQ5hlb266WV29jSC4VrbMz3l2cE7XbKJ35LFEOPIyIkbKBFAJlC4IaRAfwUQodWJMX0auDx7F1K1QJotYffr6ADq62k/bF9CyRUigVo4Rk78EDPv/yC168eE6kXJLpJHE6z16vS6ETnj9/ymcvntOIY/7D//MfmM0XfP7FZ/zpP/9nxJHlP/+/f8vbtx+Zz1MQBmNz9g52QFrUK4lQzj861y6BdrPVpB23yLKC5XLFKk2J4oZPCuPHWEp6vR6L5YI0XSGBZtyorXR/AAoQwvgD3wF/Uehaohy/z4RLKD4Y9PnzP/9ztne2+ep3L/nlP/ySRjPi//zX/5pWq8XrN2/4u7/7r6RZRlZoVNRgvlwyns14+tlnrLRmniScnZ269xHEuAKRVtSzplVucffqTC2uhEan06HdbtFoNIiiaM01ZblYMp1OsTjLmDYuc9GN8N6SUH1XcfcPb5WItsb2vt8lPtnutVjWgBfPLqr3bPn6nYdYANVACAu/IaKIonD1oIR0eU7v77Zd63uapgDOGKLk2t9R7KZfCeVA11h3qscNVqsV1MB57SAuJ1iEVJxU8eYCrQ3GFK60CQ5YJZQhjNa6OkkE0A+6Rysc+PqWrFa8P/6AkJIkSWi3Wzx7/pz9gwOiOEZIVTE3b211h4YFb1wxOIZcllgK/wmXo6sc+vp8l6y8Ouyqre3axaWrS7V1dUWj2WR7/5DhwSGtjSGFjLBxjMDpFYV1orFFYazrs8RFxBmcOI5yKauDD7GxwXsjSIrSMVOpStHSer2lNgYrDcInm9bGIK1AyhjiBo1Wi4PDIx4+eky3N+B3v/015+cXrNLUH4gGISy9Xof9gx06rRbtToNVmjDo9zg83KPZhMFGh7ghvX7WYG1OsxURNQSGAhkJrA7w76KxCuvLn0cCZRRC2jK7mBtq66pUlJn4LbLwoy985RPp9puxBqsd2bipj6+i1dz+aLVbbG1v8uDBAefnJ0gFjWbM3t4OnW6Hq9ElYJFKIFVEYSxXoxG/fvlb/uwv/oLd/QMePX3KaDphOh7TlJFbUzc8BMofC9FtlKn4jlSKVrtFp9ul2Wi4rxlDFEU0Ww5gpXIhj9PZ1CVIpmZxrd3ypwPSwJQq4FpTCX6XdntI1t8WNUulB4G6H9/Nz1Z9qrPVG4Ac2FBQseAXT7iHL0TWULKsvxS+r7WuMtXXVBxuw7mEwO4wjFmtVmijS32Sta6onvO1cxbPSEVYY5FS0Gw2iFTs1TwOcN09BMKXmgZQuE0upED7Mh9KuqqZ+Iz1UlqXPFs7cSmKY1qtlivqp13RQVkyVMsySXj95jXnF+ckyyXDzU1UFPPFF194kU9VwC4g6ArBxZ/nWYb0BwKe6eqiwGhDZrKyllnYhh7qqUsza1MvgrFOMJ3NmEymfPx4ThRHHExnPI2aNDe3MDKqMWXXOSsEBkkhlGM2Mqg5PAcTogwX1tbnObWU0kkkI4hihIpcTL6xoAukVQgjsKIAWVCkbp6EUH5QJMOtXfYfHKGiJu/eH/Pff/kPXF1ckhcaYWG1SogbBmNyiiJFG0kUgRAWYwoKnRJpiyXDx1959Y0GkaN1Rq5zVKyQkSS2kZ9DQ5qnYAVR7ErmFIVT+4SKDZGKXIUKATKSGKN92Xi3/lDClZNWvtKr0RRF4fS/NW8JZzBz5EVK4d2rnMkLn4VNSNAmJy8yiiLHYGg2m6i4A1Ixns34h1//hlZ/wJNnz3j07BkfPp4xm88BiZDqxsrwa8ZP9C1mWl88xloKrVn5Us5pmnpxK6bd6bA5HLIxHFJozWwxr1goPvt+EP9qouBP0cKGr2fXqedT/S59CSCxluGnposMbE0gfMq8OwCydq9b0RZBFA4sVFcVNUP/XQ5KTV4UNBox/X6PbrdHs9WsWaNhuVwyn83IfH0mIUTpVrS9tU2706bT6RBFEe12ywGqB19tNJeXl2xsbLAx2CCOY5bJkkajQbvdZmMwoNvpMp3MWC6XpGlKkblEx0o6YI/j2FnZpSRuxEipKLRXAXk1UF4Ujl22WjSbTZrNJh1fhvri/ILJdEKe5+S5YyhCuCJySimyNENKRa/bpdftUQ5abV1prX10i8Z43X6z6e7VarVcITxgOnaFCZMkYWtr049XZd0vw1ZZJwRAyWgRkl6359Ra1vm9NppN4kYTiwIROYZdSxhjhcSqCKOamDiChkFKSyRBaOPqfynlKvwWGqsdg0+zzB0cnSadTh8VxSWblNbSa8ZYm6NNSprOmaSpK3gtFK5Ai+ToyTMODo+YL+b86n/8hrfvjhFWE3l1z3K5oC0kWZ6QZQsaDYM2K6zVaJOTZQlCFKxWM7RJsWislQipsRRoX0Wg2XLSaxzFGGtJkoTFYoH1aiMpI4RyLlq2MDQaMdvb2wgESbIkSZYURVZ6CmAtKpI0Ww3iOEJrzUqAxdDptBkMNmi32mitmU6mFIXBGINSkqIIpXAcIdGmIE0TsjwFaVmlS3SR0+n0sEKhkeTacP7xnF/891/S2Rjy5NkT/sVf/AWXl1cU84XjwaV0tn5cwn2uUU7moigKptNpucik97/KdUE+nbrSBM0mxrqcibpwxoCgN/upjUCi5Be1VwL48d0B/aZe9ObrQf9oxe0sOTf1qd82DuXnRa1/wlnE2+02hS5QSrG5ucnBwSEPHz5kMBis3efdu3f87qvfcXV1VTLT4XDIwcEhjx49ZH9/v2SAi8WC9+/fc3p6ymg0whhDv9fnxYsXPHz4ECEEr1+/5tmzZ+zv7zPouXtdXV7x6tU3HB8fM8kmZV+Pjo548uQJrVaLwcYGnW4HC0wmE968ecP742OKwhXIazQaDAYDjh4+5ODggOHmJoPBAGMM08mE8/Nzzs7OOP5w7BiMDVZlaMQxUkWu3Ak3PR1CHXecXlE54H38+Am7u7sMh0OGwyHGGK4uLzn/+JHz83POzz+6QnxClomMnXagdu3KREyIHEJ4XXRhSk8FV1LFMXQpnCgftOUWMBIyYGU0jWaHf/aXPyeKXG0pZSymKHj99i2j0ZjCpFh/uArZoNnusL1/wJNnL9jY3KLRbDhdrNXEViNtzmR8zvG7b1hMJnR7DYyBVFtUs8nO/h7GCi4uLjk/v6DZamN1hjQFFu3rdVm0LtA6pygUWucYU6B1QVHkKOVYawA6d+A5R6KHjx7wb/76r4kbbdrtFnEcM55MePX1K05OTpnP56RZ4uwvcczh4QFHD47Y3t6h1WohEORFzmQ84vT0hOPj9yTLpWO/IkIqaLWabG1vIaUiTTM2NoY8ODxia2sLrOXj2UdevvyKs7OP7vDO82pv+kM2L3IKnaO0ROvCsVYgWSYYGaNabfobQybTGccfTtjZ2+Xo0SM2tzYZ5wUizblLxg1uWJ/OtO/pc1hD1gpfbxx63R5SypLlOHcWUy5yY24sxp+q1UFQsAam4Zk+/XVxL5iuf5A14JZy3RXjpt9lYFH1+weLevjOuvuOKJl1vz/gZ59/zmcvPqM/6LNarbi6uqLZaLK3t0en08FiGY1GBO+Lo6Mj/uqv/op+v+8YZZYRRzEPHz5kb3ePb15/w8uXL3n//j3WWjY2Nnj69CmDwYDd3V263a7bYEazOdzkweEDpFQsl0tmsylaG3r9Hk+fPuVP/uRPWK1WJCvHRJrNJru7uzSbTUajEePxuHSS3tvf5/MvvuDg4ACtNelqBcDu7i4HBwc8evQIbQyXl5eu6GDhfDS1lBjPNESYgBvzVp+L/mDA8+fP2dvbo9AFl5eX7O7s8OzZMx4/eszp6Qn//t//38wXmTuCo6BaEV514zXbIqSe8QYoW+l6tbUYrYmi2O0LY1FWEFmXZ1RaV7wwWaU0+w1EI2JzZ58Hz59x8OSRKy+9TGipiP7GBt3hBienZ3x4+4Hrs0sUiqgZs3v4iBeff8ne0SOuRxPmi5xWs8nOcMjesMfF6TtWmcFogRIxQsYYNEYImu0WO/sHTK9HnHw4YTaZ+v0sy8NBKYUQ7qBdLhf0ei23pz3Dm04nSLnEGF1zb3MSm8WyORwCDcaTOXEc0+/3GXiJZnNzyD/86ldcXFzQbDY5OnrIz3/+z9jd20UIwWQyIV2t6HS69B/vs7nVQ0jNu7dvWSVOSsmy1M3b48cMBgOkVLRbXcDVTpvNZsznroJt2HtFkZMXORcXF4wnEx+NVnD+8ZxOt02WOaN5cOBHVq5yS7+/xpMpz549YX9/n3QyJ0nzUi0j6izVt3v8TIMRwyv0fQmCRrNJq9lCRYqNwQZCCBaLhYsqMJW+7hZo3INHP1WrM9N635y9ZB3A6v++j1kGoKu7I9UjKvI8v/UdW/uvfp3gArIWKVMTXR0w7fDi+Qv29vcYjUa8ffuWk5MT2u0OhS5ot9u0222shXa7xfb2Ni9evODZs2dcXFzw9u1bJpMJ3W6Xhw8f8vnnn6MixXw25/T01Klt2m2GwyF7e3vEcczx8TEnJyfowvDk8RP+xZ/+KXv7e2xvb/Hh+Jgic/fd2dlma2uL9+/f8/btOybTCZ1Oh/39AzrdTqmPVZGiIRs8efKEowcPEELw4fiY6WxGnuccHBzw/Nkz9vb3+Xh+Tp7nXF1eOrVSo+E2g65Vt7znUBRC0G61efLkKTs7O2hj+HD8gZcvX/L48WM+/9nPODg4oNlssLW9RV7WtGddsV8elrZ62VpfVsaBkDXG6e9UBMYijWOakXGGNIGg0JZV7nW3rSbbB/s8fvYUbQuurq5JLq/oigi9t8vhi2c02l10AdPLGVZDs9Nj++Ahew+fIRttXp98zeh6xEa/i3nxlL39PabLlMurMdPpAoEiKzQ5FuKYZq/HYHPIxw8nzMYTdJajYlHWogpgitBMp1Mur65pt5teVytZrVIuLy4xdkaaunUddMvCW5uzPGc8nvD6zTuMsWxubnJ4eMDh4SGdTpuzj6eMRpcYk6OUBZEznTrVzsXFBUWes7O9w9Onz3jy7IhlMuXy8ow8TbDWjfHW1hYPHjxgY2NIUWhG12POzy8YXV8zmUyYTefMZjOvL4Y8d4dDsloyGY+9OsZwfnFOd9khWSZEPnpLqRghJdoatHbS5nK5ZLFYIKRkOBxy1ohZ2vX96zd2aTf+BDP1+OsNJ0ophhsb7O7uOb9TrwNL03RNB1df1GHg/6jNroNonTWWxgdxm+VI4So93nymm4B789/fR7URmCfgjAi1PgJkWUa/32dvb4/tnW0+fvzIL37xC7755hvSNCWOY169+pp2q01RFOR5Tru9xc8++xkvXrxAa80vfvELXr16xXQ6RSnFy5cvGQwGDAYD9g/2GQwGZK2MdruNEIIkSTg+Pubv/u7vODk5QQrJ5fkFkYoYDPoMBhuoKHKiq7HoQpMkCefn57x9947FYoHWBS9fvmRre9sBY5HTarYYDAa8ePECpRS//e1v+du//VuarRZJknB6ckKeZfyrf/WveHh0xNXlJePRCISg3W6XB1TwhLlvlKMoYmtri3/5L/8ls9mM3/z61/z2N79hNptxfX3NYj7n5z//OQf7+zx7+owiz5mMJ95YZ+65KqW1v0zi5F+vu8YJ64rnRRZfO0showaNTp9CSLrtNq1Oh6LQnL5/z8nr98xPPxJlBZdbpyyt5enPPufRk2d8fHfO+HpGp7dBuzegsJLri2u+efuB6/NzhoM+jVabRw/2WWWa+WLFeDRFAasix0SCZjemOxgQx874GEtFJJRzc8OrxaTCGAVWMpsuef/uA1maYo1TXcymcz7GYO2cyWRGkQfDmUSICETEh+NT/vP/99948/aYZbKk0+7w5Zdf8Nd//W/Y3Bxy9OABV1fnnJ5+4B9+9f/z/sM3WKvJc+dNsLHRZ5lMGG71efj4ATs7m7RbMfNIYI1AqQilFM1mizwv+Op3X/Ef/+N/YjZbIKWgEcVuXXgCaIwlyzIuLy6JIslymWCMs0vM50vyPGc+X9T2qy3nX+AipbDWGSuLwhk6vUE4SCy+ZO0avpVgamsXvgsBpZQUhWY+nxNFina7XVYgFFL4KAa3wdZY208t5tebtU4B7YGqslrXQNGGU/bbYX9dZPf/8K8bbShwFukid7/rbkohvO/7tKJw7G9/f5/t7W3+/hd/z/n5OUCpN02ShNVqhZKKbreD8Ay56aNz3rx+w3w+9xb2nKIoePfuHY8fPyaKIjqdDsvlEnCM+uLigt999RWTycSpDOLYu2QJ+v0+7bbTvVprWa0Srq+veXB0xJdffsn+4QGnp6ecnJxwdXVF5v2PoyKi2Wry/PlzNre2ePfuHd988w2j8Zh+36ktPqxWtFot/uzP/4x2p02j2XTWfmvd5g6s3RgHeuFA9A7ggLcCOy+BbrfLbDZjOBzyxZdfon2fd3d26HW7tNot9vb2ePfurfOB9XNWHorOrQLpxXlw28JHW/q+uHl3f/arnoIAACAASURBVAsHUsZ67w6FFQ1Uq0G/ETNJCwbDLYbDTZQRpOMFKtF0tEIWhnySMLmaIr6I6G9s0ultMJ4kqLhBpBoubl5GgEQ2mqhWG6Ui0lXGfL5gPl+QrFJasURL338VETVagMQUGp1rrDa+5LaHU+ESljj9oWE0XrBYrphNZ1ityNJLRqMLECuSZYI1HYSIXUSVaINtkueCNNVIoYijBlr/T/betEuO40rTfMzMt1hy3wCQFEmBlERt09WqmurT033OfOn5XfOv5tvM1HLm9HSpTo1KVUWVSIrYE8g9Vt/N5oOZeXhEZgIJCgSx+EsmMiPCw1fz16/d+957NVlWUlWaKHJBwDgmjELGkxFhuMnOzjZr6wOGgz7D4ZDNzW0ODm5hTM1wrY9SLvbiZsVlWZPnBZPxCV9++SXjsXU1YaDICkAQBCE2OQOyNOePX30NaIoyp9aG+Tzn0cPHCKerrjVgamwyhcBIW3g7CgOE0VRFTlUWREHg+qv5kny+SIwnBvsr8H+J1j/elNXapqnp0kaUy7JiPp8TBIr19Q2SJKHf75NmKanWlG5ALkXCf0CsPq3aTxIfHLj6e5ddFbAcLBKLE0ajgatMQ5qXjv2KZ5RxO2iuWS6OIpI4IQxClFRWUZFlNqDjnpS5I5ogCFwk1T7F8zxndDHiYnSBrusmiGhT/6boum6i3N4a9hKrsrBVc6SQVguptSUVFyVPksTKVaTi/oP7pFnK/sEBe3v7fPTRh+zu7TIZT5hMJ/zp23scHh6ia91IWfIsoygKwjAgzzI3lbPHMhwOGV2MbAojNihSlZUjgJXr486cdLIxYwxRFLGxsUEcR2xubgCwublBWZQIIej3egRBwGw6JcszV0PAPkgahYS/D1y713Z30uYiuQFmZV6t0eRJX9iovghDwn4fXYxJ+laNIBGMjs8pZjlSSySKqjTo2pCnJQhFlPQIopjZbM50NuOWVBzcusWPf/xj8qJka2ON23vbS37HKIrsVDoI0YFEG2HVEUZQFPb+XR3PEmth2hKHFUVeUxYlZWmPtyoLUl0gRE4QWKWGriVSKIQIEQQUeU06zxBCEkdJUzO0qipbhams0BgGgz5BKPjpT3/CBx8cEEWKLJuT5Tmj8Rm9Xo9Bf0iRZdR1ZdUcMkTXwo57p1YBwXyeolRgA8Haj4MAKe0l0LVmPJ7QEhiDMNQ6B3wCiutX5XSzwhXPCV29AV1V1g/u9PXLMyLTjAk/U1ma5i+mLo3NZX2hjox8xlMQKOpas7u7SxzH9JIeuUsB9I7pJiXxB7ZOjfNxrbocFupC+8oubBofqi+k0M6ush+LZp65lOdlXOaSufohIvxZp/W91pR+YW0tvhuGEUbrJnMncAGuuqrAYDV5jmiksMHBsigoyqKxHgULmVft/LJJHFspU5Y3R+9bVCtlUxZVq4AFxmr+vCsnjiJMrSmrksPDJxwdHbH79Ck/+vhjNrc2iZOE4XDAnQ/uECcJWZZyfHzs5CkZQRiQ9BJs/ri1BpWyWtgkjm1L4toHH4qG4KyEyXrsfPUjKzHz59IGS+MoJFD2rsqylIuLC/I8Rwq4OBfNuZvP5zZo4SLnviiJ1VFbqVNWFOS596u23Dru+hmzyNUxBrSpKeqS0kX361JTpDlC2LykUEoCGWELPUu0splgWtgAV1GUYJzwPlBkRU6aWt/hcDDk008/BSFI4ojAlBw+ecLo/Ax0TRIFzGYzAtG3BGkkeVFTa4MMQmSgmkIjzbhvpuxqcQ4RCKOslSfA2uOBTQIwdnxIpVBBCCKwNQB0E5bBZ8D5DLnpdMJsZoNTt+8c8JPPPyMMBecXJ5yfnXJ2fm5TiGvY2zmgqkonbaqa3HnlCuf4WI412pQzKurGf9u0/vFjWi4y42TLbdk2hDwx+ntPSlBCEChJGAQUWU7li9UIlhI8FucSglWtlB0UrrahUlZyIn1Wi24i5GmaUhQFicuO8oTiheIrVLJEEq8V7mibshfCT2/8yVwsZ0/UsqW4FLByy3rStJ/rxuq96pmxdPu1nlY+IKadw9y0fLm+7YU/z6OLC6qqYn9/n0ePHjWzA6MldVUz6A/o9/uMx2Mm4zGT0Qhh4GB/n92dXabTiStCYde5t7NLFIQcz+eks3njOw6UQooAXduSanVd24Qk4XWYnkQ08/msVcIs5/BpyfnonDCMSJKE27dv89/+t//GYNDn8ZPHPHr8iDzPmU4nrK+vsbu7wx/+8CVRFCGAtbU1dna30bpmPB4xn88bQu31eouZk/sJQ0UQKqra1pq0umZNVRZkeUpRFpxfnPPNN19z7949O0U12iYfVBVSCnZ397i4OKesSpcOrSiKwvmTb7GxucGzo2OOjo+p0mr1graGmHBie5vxU5uaStjypllWUExm9NbWyecpRZqxsbfB3sEBuq6Yj8bosiCIrPRLGusrt77nGoS1uosiZzqbECcxBijLnNOTI776/T9RjM6Jpe1OVZU5oopBhqAFVakpKs1wY53++hr1I03g3CKLiLQthGIfUCCkcsFtK96XYYDAB1WteF2pgChOUCogjhMGgyF5XpDlGWFkA5pxnNgZ0mjExcWIjY0Bn9+9y97uHl9/8wf+5V9+x2xm9ctVWbOztQ/GZv1ZX3xGHUCvN2QwGBAEtoReOp8Th1bfrLXnGzdQhSVUgXFZcnZsaFM103PLA27W0Uw2fb0oCbomDCT9XkIcR4zcw9jTycK8at3SXBGAsifYRvL6/X4jvXn27BmTyaSR3ni/o/dB+qIcfsp4Ex/k943WvYf3D11F6g3VG/9gW7Y4m6+8wkMyppVN3rJmhRAoaYsxKGmn6+fn58ymU375i1/YCCP2hgPY3t7mgw8+II4ifvvb32K0YTKeMLoYcbC/z3/9L/+F3/3z73jy5JA4ivjRj37E5uYmdV0zmYyZTieY2mqI4yiyEre6Jp3PyfOCOI4aogrDEIDZbEZVVdy+fZvNzU3CMKQsS+ZpanOdi4LxeMzh4aH1e8Yxw+GA4+Mj5rMZ+/v7fPbZXUYXF5yenZLECXfv3uUXv/wlZVVycnzMZDK2KgBpC5IY4RIR8hwlJb/81a8oypJ7336LEIIoDq1VJK3C5NGjR2xubvDxj35EnmUcnxyjpCL0iouiIMsyW37NGOq6pCwKhIDPP/+Mv/jNb9jc3OTho0f87d/9HfPH6eVxI3yFLP9QrYmigB/f/ZTDw0PSdG6t/CDgfDTm/OSUyfk5H96+w927n1JXBU+rkqpU7O3t8cknH9NPEiajY+azGaPxiOH6JlLBdDbl6GLM737/r8zmcyQGWRWIfEJsagLXHyqKE5cdVaOLgmw6RVcV/cEaUX9IaSASotWJofEEg3FZU6aV2dM8xdxDH1vKTypJFEXEccLO7i4fffQj+zAqS3feP6aX9BiNxhRlBUYgRUC/P0RJhUC62W7N7s4ecdzjgzsfMOgPOT8d21mgI8e6ti7EqrJVqZQLCFVlhc14UvYYWrPGRjvsLGspAvAWLI0N6u/G5l4UxpDO54RBwPpwjUAqisLODBsSddZpm1gvTfN9AMqnY3m5TxiGNqK8s7104xtjmE1nzc3l/VjaNRXzVuCbgpch+HawyU/5pVn4ghfnAHxAqh3AADdUnxPlt9kZy/vkHQ++KElVVZyenvLll1/y+eef8+tf/8r6zZw+s+cCSPfv3bPaR605PT3l/v17bGyu88mnnyCE4LPPPmfQ77O3v4+ua+7fv8+DBw/cOnpoXZNmKXEU0+/3W35v608cT8asr1kfZBTFKGWLjnzyySdsbW1RlAWT6bTx3/Z6fcIw5NRJV4q84NmzZ/z+97/niy++YGd3l//8v/xnppMpSlkffKAUv/vd7/j23j2mk6ktrjNQjf9tPp9xdHTE48eP2dzY4Oc//4K9vV0Azs/P+fbbbxmNRjx9+pS//du/4y//8jfs7O7yF8MBZ2dnBCogCkOUUkwnE/7mb/5m6cGvjS3C0u8PWBsOGa6tMRwMCFRwaRQLbABCKXfF6hqpa9b6Cb/+5c/Z3NykLCuKsuTw8JDRZMZkNOLw0UP2dna4fXALqpK97U10XTMcDhkOBpw8fcaD+w8Yj0fkeUZYZBRVQRgrPrpzm1mRNS4LURUEOsdkU/LxGdPTZ9TzOQEaZSp0mVFMLnhy/1t2dg7Y2b/N+vY+VTpyVphoujwYIzGOTO1QVW5g+9sgcMft08U149HY6p2ThLs//oyd7R2QwibzDAaMxhMePLjH6GKC0ZDnJYeHR2xtb3JwcIf/9Nc9CldgWteGvd0DjHHjS4YIoTBGUJfW1TWdTBlPps7tYmu4Clc/dcE1vpbB8lR+ocJYuDl87zFj7AxMuiLQG2tDbu3vMez3OHr6lJPjY5uJJtsuvkWBEz8e1N7+h//7pbvclbnyg6woikZSZIy2OdrGkOcZs5klU+vXW+j1FtagaMzr7wveSlZKIZWyUXtXDKEdufdeUp8nZR+6yzlTSy/8g8O7CkQ7o8ouWLue5f6/JoDhl29tZ2nF1x6MfyK7FEmt0bX17yFw0yob6Q4jW1Ls7PSUR48ecXFxYVOAq5KysOl0Nv0SkjgmcSmVD+7f509/+hNHR0fNNjx5etKz+cg2ZdRg2N7apq5qjo+POT4+Rimr6EiShCBQTXppkiTESYIBzs7OeHD/PoeHh0ymE7TWZHnWEFgYhsSJJeY8z3j27Blffvkljx49IstzlLL53N6v7Pc1iqNmShoGNpV1PBpzfn5BmqZUVcVkPGmqnAWBrTcQBIE9Hmd93Lt334rThZXfBG57w+GQIAzI85zHT57w4OEjZrOZvziLIeIeorY6k2oqzEdRiK5rosj6vC/Oz8nTlKosqcucKs8IJKBrelFIP4lRAsajC+7f+xNPHj0iTVOEkPQG9gG4t79PnETM51PiKGDY7zHo9xgO+uxsbxFFEXmWM5+NMWWOqQp0bUXmQRCxs3eLMBmQZhnj02Ok627qx6cP1grh/Y7LxpAfyb7Qir+GcRxTOCtfKluzQ6mA+XzOk8dP+Oqrr5hO7LUX2AdWr9ezachBhJCKKEqcgmDG6GLMxfmYB/cfkeclAoUxkv29fXwm3pMnh8znWcs3a3+k++2qovqbsPnt0y/ad7zPdrMyRTv1v337Np999hlra+s8fPSIP/zhDxRFsVQM3EbyTeNAtV7lFVLyo8RgKw4dHx832T2LilELkXlVVRRF2QQnxAppeIPsh7ZPLxPaC3BNIOlG2/LTjdXt82LPsTG22o4w0grCXZbZ48ePSdPUPvX7fSInfcqzjPPzc87OzpstFEXB0fERWZYxn81JkgRjDGVZkuUZJycnjEdjG9yRdvr88OFD5vM562vrnJ+fN7o+Xdvo7rNnzzg9PWM8GjeR79PTU6bTKXGyyH+PoggNpKmVTY3GY9LUTpHDMCJ1xUuOT45ZG66xvrGOMZDO51yMLpp1el+9Pyc+OHRxccEf//hHV82s1/g5nx4+JUtTO+Clvdm//vprTo5P2NjcoN/vW/laVZFnObPpxAVbsHIyN76rquLRo4dMplMGwwFn5xeMx+PFdTTL11AJEEYzuTinyFLOTo/Z3ttHqACtYZ6mVNmUkBpkTT4+49s/XHD29CF7u3s2o0cp0vmcs/MzDp8+YzpLUWFCmPRYH66xub5OgOHRV//O6dEzm0ATxUgVECU9dj76iF4Uk07GnB8fMpuPocptVS0jefDtn7jz8eccfPARP/npF4yePSKfnFHlqe2nha8i70LhttYWiEWZOV+a0Vp5hrKsODk55ttvv0VISZbnrK2tEbkAYjqfMxqNOTp6RhhZwqzriqOjU7755gHHx2eAJs8z+r0+R8dHTCdzlLQ+2Nk8R2D1rwZjU1LznNOzM2bzuTMArCXdZDiuxEMa111jzFl7tB0w9IFjoQVRKEn6A+7e/TG7O7uk6ZyHD21qKwhEIG2wDo0NJtjB4O9t8fNf/vXCeyKsEaxbnTCvSq28lCoJyxpOKZqnNNiTbyOv15eO+3Pgt2XLyoVkaeo0hwtL8kXE2Pg/nAO1vbxXKPiHSbvJWFl5MbmLMLqbmdZDRLh1ND6XpYrqV6NdCd5X9r4uSaDtdvCtaf1xe4tz6Viu3aab7mpty/y5RZVSNhhi7FRISmVJv3mA+iMFhGi6APgarLWzLKMotkqE1vauO46FtSAuBTT9MV35XTcjsIG9lcI0reMX2Iit/15jaMhFSNa486mb4OJyuLb5rlQLy8aRUlOs2vnAq7pqFAj+PEnhLSeaMVcbKI2gNBIT9Pnwxz/ni1/8mkES8/f/5/9BkU4JlaKoNeO0ZOvOj/mrv/5PbAwinj74ij/87v9ldvaUUFoSHM8Lko1dfvI//RV/8Zv/mQ9vH/DVP/8Pfv+P/4MH975hPLpASUGSJDbTUXirSzury+pPXTMPW1HMGIqyREg7Nto1jBdE1r6eyz9S+sP2Chl/Lu05lgKEcYoSIRczXnfltDbkeWG1ripofKjWPmxJ6Gj5NIVBCtNUYvPjy7gHA1KxtbPHX/zH3/Bf/+v/ymQ65R//6f/jt//4TxReN+6vt9YIo5GmRlIjHb995x5Qy1Fu0QzitgnqB+myRq/Dy8Jf+NWiKteiRRxXdUe4zne8RGa6RU4uGwYXNBVmURR6cRO47y24oUU8C5K2i15+GF+3j5eVIVx7Hux4a43FlWNqwxdFWZ0qWCmgIwN/DK1l2mfOGh92AWGM607aMkQcOUsUga5b54pL213sl3DWWIAxNaouiKjZHCR8/MGHjM6PGY9GBMCd/QM+/ewu672IKp1SzC4wVe7ajBg0AhXF5EXJ0yeP+dPGv9NThp9+/jnjk0PS2QiJpml4ZE/AYue8ewt7zdvn07+na+3KC7I0DpbPmKApfAuLuh3XQGv7ONKOWO1Y8y7Ehbuh6TPmtnv9xNOSncG6NhCtzEMhiSLJcG2Djz/+mM/u3kXrmnvf3uObr74mnc+Ie31qp27xvtbGGqWxv64n05tMi0X7yb7iK1wcxltOpFfsvDFe6OsXEdcu++fDTbNu6HJopjzPW6O5euC1N7EUgHP+cq8dvjGp+31y/7Qzl74PvExKr/HLNczX+uyK967fpl+b/+IiQwYcCdUG4YtEv8DRY5BW42hs8WWTj0hHzygGIR98/CN6Gxts5hkCQdLrsbszJD17wvnxI04ff0s5vSCMIhCKogajrc704vSYP335L5jZBb/62Wecn56QpynKFQMv2jUK2o9B48e3G4d62QJdKn7ehHbar/2f3gr3y1xzcv2DFoPV4jZ7slgPrjgLfiawut1rT647JstKRhvyIke6mVfhZFyHh0/5+ptvuTg/IwwCTF1bzarl5CUvchvXW6Y39C8ucvDFohvgjb755mJ5uAs/T19epv3ac2k7aduPm1exMy9xQm+66E047UpSMu2Ehhvu00uQ3CvBDTfTPrWXdk089+UVG7rKFrc3rs/jvn49y5AYAmkwVOTjI549CtCmZLD7AWptk43tCCWhzmaMzp5w9vQB508fMj4/QRcFKo6pZUCtfZE5TTGbcJROyC+eUU5O+PabbxiPzlFSEIe2KwFmtUbn5Q5lixiIJ1Fr3S+M/OccoVn9fHVZf0X8g7v93uI7iwJB7ZttdR1Xb0XgesRpQ60NeZ6jgpDxeMzDBw8w2CDXdDan1tbPnxWFI27RnB95ac2vsNXzIuhyiYreHojF9V74WhYfXsVrzdGKRfZHs9wrIFQ/LX7dut1LPuNmf66Z8z4XyzKSNwovOAZvf5jWv5fRJtK2VUrzLL7xOBDGi2moTcXZ8SHT6ZiT8xFy4ymVjAFBWaSko1Oq0TM2YoEoU6p8ztpwnaKumaczshpQIdJoAlOhdE06yfnXfz63GXN1RZaVVrOq5Ao1maUjF61/V8+Q//f6Za480JXfbSJtvWxuIt1avv2zur6lLy+/a01q55u2jpw46SGlIkszLs5HnJ1fEIYhYRgjhGSa5SgVIJTtTmrw1rrrM9u6rkuFTlo2rPMxtCzPlZv5qqCOTx9rLkATgGoVBXiDseTOEitDybkvLhkw3tXhvrN0zr6Xfbw60+r7hrNLbrz86iP1an/aD4cXuC4d2qrE77ANPzNt31cv3C+DMFZuJxFEcYxBMBmPMPMcjevjrmtMnaMEFGWNNBIRJKRljREShSEWi7RbJTQK62qwKglb6T4KlX3tsvpa3rrWWYDVA1h+yNjarZcnvpcP+grbfeUTZx03DyHPJU73igDjM5euchesWLft7TkdKcL24DJCIF2grt/rkyQ9pLJptBgrA7X9Cmqkz/40i/0Szr/sg77BVbuxfNDX4zpCbb1y791whW8AnrebS58tTfNF66J/z0+NH+g8/nmbfTMv/s08q9/Hel+8Bnuj2pz0GtBVjqlsxo+nMemWM0ZbCb5UNg9f1CisoN1ypF22qRXlH2zSTtcXvmNraS38wE3/3Gv3VLRI40Ujf9levIqyzRV/t758iYBvZpma1eV9Tyi/tLGNJJU/sw1hWQWAdO6P5rw1v1y8yL31Z0/zr/aHvQVm6A1x1fEZ04y4ljvg9bdp6fC6cFPr9NVdf18zUxiBErbf02Kqu7pNZ835AJixLUUkrARK/Y8nhPYU/rIN3g48PXdfX8J4X2zxepdB27q83ry7bh1cer9NzVf5dVftH3su20tpp2ZYJfjl16/WZ9ps490jlau0tle5Pjq8q3j9Y9pWRa2dLOh5Y6tFFX5cto28pXVe9T33QUOunqhe4iHy3EWvmv7fxI59WVxnqb7oaFbebbsq3Z9NKqq5/puvjEzfR7yLD40ObxaEtzpv/gW+K/FfNgZekTW+FEy6tNWbr+fGuBFlvhzMiyMGl1s9rzjLb0IYq1bppYvynpOOucGF6NDhncZ3j+O9JH642eErz++8eqr77k5/xcrPVeiItEOH74K3i0u6af53gJe8CPMmX9oOHd4FXOXtvInP9fXjO5GpWZEBrb5+l2GEKybiC57UuolmegtUi84a7dDhu2OVR1aLur9IDfDD4KXJdLkSjBNa/AAZOj8kfJxPCokElHGFo42tmFQJQ41G0yoa0aHDa4KXSb72kfeiDTpF4c32a1WKdDMZ1OvE6pZvTKaXA1Htp4MrpeXTnN5R/jDYWJo/PKUCNvsDhkFCWCmqvGaWpozqlEqUTuPXfvB06PAa8FqJ9KbR+LZqtWkSsrKetr4ULhPq6jZ/eCK9Mp30xitp1Yb0QnVbUsvgK1y/s7FrY2ytTuyxqyBkf++Ag/42Q9OjmlQcPjsimz4hr2uMrBdJFy+jbO7Q4c/AD6GIfYGsf/Gnz2+/dpru7hPRJtTnrNP8kIT6kqL9tj/U94WyxZhtoeS6rimrsilg/C7Dt2BppvkIQqFIVMyHG3fYur3F7tohF1/nzGcltevy+s6a6h06NLj5/f986vU+ilUL9UXbfN38c/mevppMm5qCCzKVUhIGtmfPcDAgThLyzNb/y/Lse9vlVwXf7M/DV+G/Dtd+5uqFaqNJs4wHDx4w4oRyN+Und37Czs4O5mvXq0lFVFX6vstsO3R4SbxM9pVf/ofHlWTqJ+1N3q/zaEspSeKY9fV1BoMhaZaitaYoCsqyaKbBbyL8g2FRyFrYh8Zqjj1YwrymBqfwHh+DbYmczxFlxZk8Y7Ix5eNbB0RhQFSHVNJQVxm+7FeHDh1uiuv8pVct92ZgRbRv2mmpLYvKdm+ME9sGOAhC4jhm0B/Q79uWvk2hD7PsV32T4EUIZsXyXrpkwvdOEk3Pp9XrJY0rOSYESAlKklcVszRFKkUURoQu0r/UobRDhw4vgdWUmKt+3hwsl+Azlk79fx51XbG5ucn+3j6DwYDpdEpV2SZT2miyLGuI1xj95hCpaE3XbSOZRVcAB+M/g1ZgzT8QbFsE387Bl9uS7lglUBtDJQxpVTCazZjN5wht0GVJZYpL3Sw7dOjwbmLZMm1zoLFT2kAFDAZDtre36CUJWZpyfHREnmWWON9AphDtStTCvpZKXv35Vd/HNuy66qHgn4fSZz9JgRYQxDH99QEqComiyE5SatuPfuE26dChw7uKJTK1QZmFhSZdC9itzU2G/SG61pyfn3NyfExVVQ33NkVnX+++X4OW+sAJ65XrZKiUcpW0nxN4oqUhu2Y5ie2A02Q+CYEIFCIIKHVNEIZIIRdWesekHTq881gJQJmGUKVURFHE2nDI5uYmQghmsxnTyYQ8zx3pOH+g95F6X2QrI+q1CxbarSVbetimh3yTwXXN91kE35pEL8PC7eF7PbE4PiGg1hVFmVPrkq3tDQ70PnIsGKWjm/vSO3To8NZCLuhjcbcrpUiShPX1dXZ2dlhfWyPPM2azKcYY1tbWCIKgISmllNOeioZgMYvOht83oa4GvNrtjg22D47vv36TffHtjBd94duOT0urWiwKxkpTU+RTZrMzpCj59JMP+Y//4dd8/tmPLwl7O3To8G4iuMpkUkoRBAG9fo/NzU2SJKEsS3StSeKEoiwawX4cx+zu7nJ8fExZlvhy/6sJX6+TUnxCgQHb0pV6IXVaXba1f7rdxqHWIBak6mEE1E3WrCYClKgw5ZQqPyOUc0azEbN8Rj6fgNE/yDno0KHD68UlnanXlGqtKfKC6XRKnudUZWmF+2FIEAbEUUyt6+Y7xkXL21W1Pam+FhJpMVajI9XakaRGSXVjracxrt/4iktACIHGV4UySGMJVWDoJ5Kt9ZgorDm+/5jH5yccT0dY10lHpB06vOtYIlM/Xda1pqJkNp2CMQQqaKbLWtvOfmZrG4GgrmqyNMPUCwvOBmZen7fUuxea1yxIfGmq/rx10JJJXSOyt+8tqNGeE4E2gjBQ9OMQZTQXF2ccPjtkVGag1Ks5yA4dOrzRaMi0ISDjSVNTlRVZmiKEdISkqR1pbm9tkyQxVWlJV+uappnXDxjXv440m6DR6d8LdgAAIABJREFUC0i1rTu9Co0rwGn5awPaWC2qqSp0XVPqmrSuyKqKIOjItEOH9wENmbbz8H29UqMNpbHWqJQSKYUl2arGR7t9Oik4kTvPyWv/ntGUIHEWtmm95xMS/vyNaCcFEw05e3tVKUUUhmglUb2YMLDnq5vid+jw7uM5VaOE+1+glCVSjC14kiQB52fnhGFIlmVEYUhRlk4S1cokek0H8bpgjEEKaa14Y5DGIG3pfWvNGwOBIqtKZnlOXpcEbV1r11ivQ4d3Fs8twSdcIAlhxe8G63sMVMB0OkUqO/0XUjZ6yxcV2HqbIcBKwIzPz9cEQhJIQdJL6K8PIQwotKY2V9TZFy92M3To0OHtxM2KQ1/R/rksS0Rl3/Q9kYS5XBTknUJjcRukgCSI2OgPGYYxB7fusLG3y7jIyKsSIQWhCqxD1aMj0g4d3llcXYLP6Cve8xpM6wdsioiYldJ27wHKqiIMI/b29vj1T37Gnd0DhkmP+WzGb//19zx99oyCmqiX2AZ8zlvbUWmHDu8uXq4HlJvL+4i/n9C/L55AH9gKwhCEYDQe829f/oF74Z8IlKIoSw5PjqhxcjLnR200uB06dHhncSWZWhH+8nvtutcG7PT1/TBEGzSGtxBUGOZFTpkeW/+pEGijmRc5hIGtJtX0x+qs0g4d3nVcY5mKF2rulyrTvzcQSwWlSwy1rm05PmNTTQkCtJNltQtRd+jQ4eZ88TbeNS/dnfR9xpIO16WWWp8oTT9wg/WRvl8PmQ4dOnRk+hJotzsB22WAKwQMRrQDdh06dHgf0JHpd4AtMWgtULi+DEFHpB06vD/oyPQV4Cr/TkekHTq8X5AvXqRDhw4dOrwI10qjVnrrXe4fLxYtS9pYKqTc5aJ36NDhPcGVxaHF8hsLfWmbHF1E+3KbZLESqOnQoUOHdx+XpvnXESm+en3TssNYUbq3RBeVTpbwtiVSdr7ODh2+b7w9fPAyuGSZNmJ8R5yXeiYZ0VSPcguicdWU8C4Bv67Fcm9D3r7f/x9+T1dcJ5fe6dDhbceLCPXtG/EBrEztnQVqLoknF4J17QqhGKPdbF8QSNdKWYhWI7p2U0/dFI9+UyFeU4bsdzkPusuk6vBO4Cbj+M0xa14GlwNQTX/m5Z5KttOnRhu9qBAlbNqplAopZdPyw0/sjfty2xPQoUOHDs9Hu9fa28Maz9eZCpBCopSirl0nUlcIGiEQzhq1PaJsfyhtzKJVCKZp/Qw0lfiblXfo0KHDO4Kr65m6f4Uj0iRJms8al0DLR6q1JsuyptneIofdtfpg0ULaOHP1LXChdujQocONcU1xaNPU7lRKEcURBwcHrA3XEEJQ1zVaa2azGbPZjCxLyfO8FWxy3Trf0ahdhw4dOqwigOUCHqbWCGn7b+KCS3t7ewQq4OLignk6BwO1rinLkrIoKV0zPb+um/Sp79ChQ4d3CcutnmlVhW+1IuknfWbzGaenp4wn46a5HjjydN05aYWeOirt0KHD+4Rrp/logxGmaVdSFAVpOidLUxe9F4v+9MbKpKwcqqPRDh06vH+4JgDlrMtWZD5JEobDobNAW8saQ11ryrJuAlBSdtGlDh06vF+4WhrVVtu76f7u7g7D4YDxeNLk349GF4zHYxuhbyxSqw2TPlxvNfzub4HoJFEdOnR4B7FEpl6Ib7RGKYUKFFobJpMxeZ5TFAVZliGllUxFUcTa2hpZllEUhQs8wUJw69drW0R3RNqhQ4d3FSuW6aKsnnRNjcqi4OTk1P5d2ci9lJI4jllfX2cwGKK1QYjpUnrpatZTR6QdOnR4l7FEpj54JKVEa01dluRlSVlVRFGEMYaiLMDYgFSv1yOKIpuTj5/pXy5sIhZvd+jQocM7iWuLQ2tto/NKKYqiACzZek2pF+8335ECKQXGiIZIu8h+hw4d3hdcLg4tF0QYhiFxr0dZlgBUVdVE84MgaAJRxugrq+43rztS7dChwzuOKy1TrTVSSpJej63tbaSUFEVBURRUVYUQgjiOCcOQosipqgrwpeXMUrV9i+WAVIcOHTq8a1jKgAJsNpPR1ipNEtbW1hgOh1Qu+KS1lU0FYcB0OmUymVC4qb9S0n4OVxBqhw4dOry7aFmmxhV+tgRYFAWzyYSLKCLPcwKlCMOQMAybKlFFUVDXNkfffq+rBtWhQ4f3E8vR/JUPi6Lg7PQUdXGBChRBEKKUwmhNmmVNg71a1xh9OYrfoUOHDu8LlkX7uFx7R6veAsUYpFJNLj4GqrpCKmXJFVe2j2VCFiu/O3To0OFdRUOmAttAz3ZvXm3ophFNMRODkJJABTby72uYXuEefbuaDnTo0KHDd8eKZWr7PAkhF5X0ja24by1S0xCkENjKUj56r81lKVQXgOrQocN7ghVplK9RqhHIxfS9FZm3nOpK9LW+Z7OcFlP9LpLfoUOH9wmXcvMt2pXyVyfrovn8WrrseLRDhw7vGS5nQDVFSpq6ee1PG8u0zZedEdqhQ4f3Hdfm5j8vdGQznTp06NChg0fHih06dOjwCtCRaYcOHTq8AlzdtqRDhx8QC+VIS2rXyqy7Simy+LhTNnf4YdCRaYc3DrqubbadkkghqXSNwGmdsSUfL6NVjLxLae7wA6Aj0w5vHNqWp09fpmWk+joQdoGOPDu8GejItMMbAtNI8mxjR8A4YhXXJIH4xZbcAuaSVM9ybUe4Hb5fvHQAqhuSHb4/uDKQWjsts62tq2uNce81HR2u8JEuJ5osfjoddIfXgZci06ZqVIc/E+2b/bvhXb0OvreYJ8Z2k0clJUJKhLTjUCCa2hAeHXF2+KHQqhp1/Q2qWwNaSol2PaHakFKi6xoEKKmWPjOYhjeem4b6FqBd8AWwLbFZHJcPjrSbCi4nOfhaBxpcyUO50pVAX8MIStp6CUIIpJSt5obgLTThC9S4bdtOs77x4er1NStTZL/PGumK2zTr8f2+/DeNvpTc4beNbxXuz8vK8Vw9BhbZdXESN+cmDAJu/+g2Ukrm8znj8ZiiKGzDR3TTQnx5/+1xt8/x8j6vXpflfVxtCHn5daco7HAZASyI9EVdRaUUKCW5gkuRQuBjrL4pH+1Z13V+r7cIDVEJsWQCLWxM4xdsrCZoqhksr0vKpn5s81sItNFQt27s1jaElAhXeEZKuUjtNYsOBw21GbtXS8nALVLxi/hCNn4rnvy89ccK8fkltVm2CBsixY4FqewD1Whtj2n10l9DqNLV0/VqqDiJ+eKLL0DA0dEx5uFDjo6OFut0ASgppB1jrpKZHY+C1SF31RD056G9H/7QtNaLdbtjbl+TDh08Wj2g3ABeWcBbTkEQ0OslJEnC+vqCfI0xFEXBfD6zzfYQziq4bI24Fb7VczF/nvyd7AnFVSRsOrWaVgBFeymP8FaNWDzAfBTFfS6FbKytZlvOVzjo99na2sIYw+npKXme21mAs0wXVqkB3bJMjW3bjbGNEutaI5VESkFd0XxfCoFQKw9CWmPCk6sxGG0o68pOv5VaeiBLKR0p2gePMG46LsUiEn9pHCx8m6YhdUkQBOzt7RFGIWVR8vjx48anutg/gXLkXemKuq4R2DFrMLYGr79iTfTf/tzkAW8wzQNvsVHRVEp7e0dzh1eJANx94y0SIVByMY0R0k61hsMh62vr9Pt9giAAIYjCEGMM4/GYh4+yVqFT4X8tBqu/h7DLvA4r1d9ArwqLKWvLKhPCOp6FAG1sCxehlyx9rXVjrQpHmLWuERjnC1TUzkUipUQqS6jaaOc/BKkkm5ubfPGzLyjKgslkAtMpKgjcsouprUBgpCVUv932LKGsKkICS0DGgLNspbSdE4SAqqyah4AQzk/peoRpbcm5qiqCIEApuVjG1cI1LdK9+lqvPmxZFB/33R78mJGC4WBIGIbkWQbQPLA98UpprUdR223XdU0URW7tdVNvd0H29hosrNv21H1BmoEK8FV820V+PB2bVz3IOry1aEmjlpvhCTdVi+OIfq/PrVsH9PsDsjzn5PiI2XzO2toag/6ANE2pK++XW4iqF1bbwvp63VP9pen2C9wYN1rfim+uLCrQEAYBQRCghaaoCqSy1pInR601da3RuiZOIoosxxiIooggDCjzEq0XJGyn/JYUMIYkSVgbrhMEIWVREaoIXRlKXbkpv6CsSqSwFqeSAUEgyLIUKSVhECGwwZ0iLSjIieLIEo4BgUTXmqqoGqOxcScogZR2yuyJVAhBHMX2c4R9z0igdiRaY7AE3ZCQhqUH0TW9GNrBJ2/JBqElf22sVR2FEbXW1FWJAYqyRDkruZf0ACiKnDCyx5jO5wRB2Gy21rUlU3DnTF7aByMEcRQtWplLYZUF/oHipnKdD7UDPEdnWtc1QgriOGZjYwOtDadnZ1xcXDCZjKmrmizNOFNnlFVFWdn5onBTp+uCWT6g8SrhtYhtkrtuG8+zjE3r82a97e8K/8Cxnyskg/6AzbVNjIE0nVNEJVEvpD/sWZIsS4o8ZzQaU2QFSigCEbI52KLX6zMYDIiTmCLPqOqaLM+YzWYURYFAk/QShv0B6xsbHOwesN5fJxIRH976kLXeWnOj53nBs6NnCCHY2thmuLZGVZY8fPgQgUQJZR8qteCTjz5BKklR5MzSlLqukEKRRAn9pE8URhRFgREQRIowDlCBoqoqRhfnnJ6cAoKt3W2SJG5da3delCJQijTLGI/HpOmcWtcEUWBnK8Janf7B5I07jWgszaXxYwxVWTVT/r29PdbXN6iqisl4zGg0Is9zirJAG924PrbWttnY2GBtbY0wiggD2578+PiYk5MTlFRUdQXCoAJFFEZsbW0xnc2YOav/4OCAOI6JQkvE4/GY09NTsiyzDzo6w7SDxRVkughCSCFJkoSNjQ2m0ynnZ2eMRiNg0WzPk2NjTWCDAG3RVdur9L05750fU6wSpfAUv+SavH77bQ3jSuTFtBcxglCF7G7u8eGdD6nLmvFkTNSLiNdiVCSpdEk6nzOfzUnnGbqoiYOEzfUtNtc2WV9bJ0kSENDr98iLjJPTU54+e2ofWHXN5tomBwcHbG9vs7+9z9pgnSTs8eGdmjsHd6iqmizLOD09YXR2AQi21rc4uHULXdccHR45i9jOGCSST3/0KVEccXJ2woOHD9G1fX/YW+Ng7xZrgyHz+RwjDGESEA9iVKioyoLDIGA2naE1bG5usrW5RRSF0DrDSWx96xcXFzx4cJ+yKKkqa6myzLvOR4z1C2v/sDKthQTGCMIwYmdnh7t37xKGIXGcEIUh8/mce/fucXx8zGQyoaoroihiY2ODDz/4kJ2dHZIkodaawWBAlqbs7Ozw4OEDnjx+QlVVGOwDoNfv8/Of/5yRI8woivjs7t2WKkLz6PFj0iylrOxMwu56R6cdLrV6NtBMXQQqCIijmH6/z2g8pqprN5Bj6rqmchZpWZZo7bSBvl+UxhLq9zbOFjecDxA08qvWUj4SCywR/uq6lsIZreltVVctqdJiWmp9ywHrww1u799BGsloPCLqh9RBzTSfUGR5o2wQ2CnvcDDk7iefsdYbEqjATruLgo3BBnJ9iyTsYWpDOk/RlSGUAXEQE6qYKIhJggRRCZRRhEFIpAym0igUUWB9hOuDdW7tHiCE4F/CfyWtUhu00SCV4M7BHZJ+j7rWPHr42D1sBL24x/72Prvbe2R5Rl6klKbEhBoVKpSU9Hp9er0Bda3ZWN/gYP+AOElI5yllWSGFpD8YsDZcY9BfI51lzOcZRVXbGQFufNmrA87PKrQ/v1ZiZ6+VbH7CMGJ9fYOdzLqU6rpiMBiwtbWFCmzn3FrXTKczlAq4desWH3z4AcPhGkWec3xybJff3mZtfY3BcMDJ8Ql5ngNWztfr9bh79y5lVXF6eooQsLe7x3g8pqwqijxf1A1oKxmuHFMd3jcEbYFPY2EajRKSMAgIw5CqrlBKsre7S6/Xa57IWZYxnkw4Pz+nKkvqukbLhR9JmIWMxFuMr0JnulzowoBxU1hnVTbyHk+K0m5b19bP1bYkfBDDQwhDENgHRhTFjCdj8qJojqH5MQKJPcZhMmRzY4tBf8BX977iydljzsan1NQMBj1m0xlpmhHJiN3tPf76L/+ax/cfc+/bb3n27IiyLFGB4qdf/ITbd26TJAlfffUVs8mUbJ5ycnRKkvT4q7/8KwaxJYH//v/8d2azmdtpdyzOvxiHCcP+WjPlFVgrWoaSvMgZ9IZEUYhy+y+FBCNQQtGP+uxv7RMEAQ8e3+cPf/qSx6ePMcqANujagLHTjsFwnbWNTaqy5PHjJxwfHxMGEcPhOltb23zyySfs799hPJ0zyzJqWWGEdganL1wiEcL6lpUBXRtKU7optECIAGMEeV5wdnbGN19/w6NHjzDGsLW1xY/v3uVnP/spda05vzjn2bNnpPM5RVHy6NFjZtMpT58+5cnhEz67+xmff/45H374IbcODhgOh8zmcwCkUiRJgpSS27dusb29xdHREf/wD/9AURRurI+ZjK3166f4zbjg+3FhdXh7sBSA8haD1tbJL6RoAgxra+uURWEJU2tUoEh6CQYvjZrb4IABYyTeNPVyFC8T+iGG2iLyzrUmhGmWE02AoSyLS/67Rvngg1pGIk1APs05enLMk4eHPJsckdYzkIY8T0GD1jW9fo+NtQ3KtODs6JQnD55ycnxMFEUM1gaMTsdsb+2wtb7F7tYucRCjaxvskUZCDaY2UNP83XSOxYB219BIJBIMSCNRKJRUtgKTqZBGIbWyv7FZRTaaLhBGoUzA/a8f8M39b3hydMioGCFDSVVWCCSBCqmqkiIvydKM+Tzl9PScLC3IRYUQAevrW0RBQhTEREGEkgEVdaNFltgAj00R9edSNJ8upjYKnMxpPk958sSRdhRRliX9fp9PPvmYzc0NkiQhDEN0rfnmm2+oKhucC8OQO7fvsLu3y+bmJmvr6xhjiKIIJV1UH0MQKKuflZKTkxP+/u//nmdPnzUqiaIsrcphRZrVoQNc1eoZL06myYJBWCt0MhmTpRllVaGUYm04JIxC1taGTKdT0nQ18GOnxV6X+f0Pv1YUuHmnle+tW9Y3NMfmgyA+8u+n3kJKar1c7s1bsv4b0pFPPis4O7pgfDZhXqSUsqQWFfWsIg4jIhmzNlxja30TRcDe9gHqJyHFJwW9XoIKA8I4oB8PkAYUilCG1KZuSFGXBlMBtWh+vPXt900IgdASUUukEUht9y8UIVIKClMSipCAEKUVigApKmpjg0LKBCgdcnJ4yunROfNpRlqliEhQFTWhClFJYINaUoERlGVJluVu+l0SyIwqrwhUSKgiJMorsDDCyZncuLCzF2HlWVqwkOQuJHbWX2koyoI0TSnLEoRgbgzT2YyiKAmUk4hpK9+qqorbt26xt7/Pxvo6YRSxsb7Ozu4O62trzNO0yejzEimvkb64uODB/Qc8uP+ALMusXMypGd5mjXSH7xfPqRq1HI0fj8ecnZ5SFAVVXeEn8JubG8RxzHAwQNc1RVmsrMcR6qvd75UtOF+mab3jhO6NnGdpir8SpWfZ8qy1tuTSrMst5yxAW4DDsoM01sLLs4J0klHmFWCF+mVdURU5YRCCgDAI6SV9FIqNwQZ91UdKSa/Xo9Ql82xOlZXMsilFVmIqpxV1lpm3SoW2xCO1I1MWGTrW6rREK4VEaIkyioDASoCMJelABEgCJAohJejaHY9dvpiX6NwgjcQY0cxIrJtTEoQBYRBa6ZPxKg6oK02ZlxRZgUQihUJgLd/GHUHrgYYA7YhVSxZpdKK5fkJIO7V2flepFEZr915laddrSIUgjGM++OADfv7FF+zu7iKEYDKdUlYVaZqSxAmmkaHZi661ptY1SkrGoxFHR0fM53OEsH5zGxyTTZpshw6ruJZMvZ7QW3R5njlrTRAHNgBV1xVFXqCUot/vk2aplZo4XJXv/H3AxszMKv+7D3FZSJeJtB2QEkJgWt9fLrTRDjw56939K7D+U7T9kUiCIKQgRxgIopBeL6Gcl2RZSlXW1KXm6OkRTx89JU0z+oMeGk1NjZGGvM5IZ2lzo1vr01qBxllQSig7nfcZU243vR9XtJdDYvdMEciAQAZI4ab4Qiyn/7rjiKOEJO6RiB69oEdOZqVSKkQpRRiGbp8AbAJHkeZIpznNsoy6tA9dIRaps43szD1wJHYKbaw2ylqoYrGscSxstAaMLXYC1o+P9bXGcYwxxkbkez22trb4y9/8huFwyOnZKd9++y33vr1HURR89NFH/OKXv+DWrds0F1TQJEj4c+GvfxRFNnGCRWruJcVIhw74DKjW1NU+fQ1a16Rpyvn5OWEYEgYhSZKQpilZliGFJIpihmtr1FXFeDxGa086b95As7nay+XYrurC6ul1ucjFQudlM4BqZzUZyrJkNp2TpVlTUEQbQxiFiMBQ5DlVWbnsnZzjoyN++ekvCYOQ2XzG08OnqFDZ6a8wGGXQ0gdpnHre2Gszn82YjCdoY9jY3GSeplZoX9UIgUupNNROWB5FIbu7uzx9egjAxsY6d+/+mOFwSJplCwJxKaR5nnNxccHF8IK6qm2OvVQoESC1zXJSQlHrGllLqqqkrivquqIqK2uZ1jWYgqIoqJ2/tywr0ixDDbyyYaHXFRrrg15k3NLr9ajK0hZy0bpJfgjDkF6vhwHKomS4PWRjc4Oqrjk/P+fk9ITxZMzOzg63bt9mPBrx6OEj/vjHr5jNZgz6fXZ2d9je3llKKPFpvUuuIGzWWRiG9hnjovgdOlyHK6RR7m9jA0vT6ZSklxAnMVvBFsk8YZ7OCV3Eu64qsiwjc7KRN5FIF1jO8mqsTa6Y+IvlZdqvGgWAEAShQgYSjabUFUYYdF3bQIU0jU9OyYA0yzi7OCPNU3Z2t/n8J5+xvrnOdDqlNjWD9QEoGE0veHT4yKkmDFLYzJ/RZIQRmu3dLT798SeoQFLXNWEQUuuak+MTG3nOU/KyYHtnm1/+6hfs7e9SVqVNMNjcJEpi0jwFYaVSWZa5wIsgjEOSfkKlS4qqwFeQClRAXdVNiqmUEl/+LggCm0oqrTtACkUQho2XXClJoBTGVXkyzpIWLJOrcBdBCmFdD85qHPT7bGxu8PHHHwOGg4MDqqpiZ2ebg1u3qOuaJ0+ekM5TfNJIEARsbm1y+85t0tQ+OO7cvs2HH33E5uamVVAohQoCAm1rFmBwMj+Nz+FfqqHq0FmlHa6CJdMlNlmINWuXkTMej9na2qbX6xNHMetrawRhRFVXTGdT5vPUlkVzJc9W8aY80O1hXr0zVxHqtesRNloupUAFCpShNAVZmaLRzuLT4BIfMGC0pqgLzi7O+Ld//zfu7H/AwYe32L21x2g8oigLesMes2xG9jC1gTDtXCZSUJmKi/EFp+en9AY9dm/tEiahVVZIZZMqRucUac7p6JTTixP2b+1y64NbDNYHFGVBVVZcXFwwTSdUpgRlqHTlpG8KFSqCWCEjQaFzSl2gTY0QBomgNqCN1YCqUNn8fCcTavLksaSsAkVtajQaqSzhVpTWBeEznxyh+v8Q9r2yqqhceUElFWVVIhD0en329/bY3NwgDCNrwdY1jx494uHDh2Qub382m/H48WPu3LnDRx99xPr6BmEYMhwMKMvSKk+atNgFaVZVRZZnNqvMuYfsFL9DhxfDleBb6DPB+w/tjVFVFZPJhCCwN24cx2xubSGV4uTkhNFobLNltG78e+82BEpa36OQgrzKGM0uuJieM8umlNoG4JRQGCkQ3hozhtrUXIzP+b///v/iV1/8mp/95Gfs7x8QD2OKImeez7k4Oefo9IjKlFS6shYfgrI2zLMZf/j6D8yKGT/66EfsHGyjtabIC6bZhNIUzMs5z06f0n+csL61Rq9n89RFKJhNZ/zTv/wTJtAMh0PyOmOezVChm84Kw6yYcXxxRFrOqUxpCVFrDAYpbbS8rEukkmR5xsXogul0Sl7mNlCjbOWpSpfM0inzNCUvc3wBFoFAmka139JRLJIh8jynqkrrkxWCBw8ekKZTsmzGeDxid2+XYRxTlraK1O9+9zsOnx5S5AVVVXF8csI//uNvqar/wP7+PrduHRCFEU+fPuXevXtorRmurVkff1k1KblplnJ+fkFZluROBljLhUi/s0g7PA/ii1/+1aUR4rWmxjn8VRA4X5gtODHoD5wboKQocsqyJAyuFwa8ajHzandKH2UNo5AgsPnwZbmI8i6+t7wPq0WYtXi+k6Jdbk8KSaBDVBmwFq+DgTTLyOoUHdUEiQRpKMrcCuN95F9LRCnZWNskUhFSCoIgJIxC8jJjns3JigwjDEVu5VlhEICB+XxO3EsYDAYkcYwAprMZgbLn/vDpIZsbm9Zf25ru9no9pJKURcl0Nm0kYZWuyIqMStTU2jAIB2zEm1bqlWVUdUkpCgqRW1JRVmtalqVLhe2hpGp8rTYYZgNwvV6f9bV1ppMp48mYos6JhhFa1E3wzkZ+nCTJBcikkE0wqa6t335zc52iyBDS0EsSWxzGXecss4HRsrIpq963GScxvaTH3t4eSa/H0bNnTT59rTXGaJQKmM9nlGVJ4Cqj9Xt9AGbzGePxuHl93Rha+uwFn3e4OVrhvh90P67HZVXQlQzoArSNf8tHwo02lGXFdDq1q3KVc5ae2kIgxbIcT7j33/aB5vW3Ni0SG30HpsUUiURL6180ctG3qJ0F1kyDFaTFnMykgIvWK+tbrUxlrUAlqakRRrtUS1CxQlMzz6akxcxOTcuqIXkVKUpTgLaBtqqqEKUgLa0yQGsbPKsqmyJrMBhp0Nhso6IqGNdjK7sSAi01lajQQqOFAVNbS9Voa20K69+sa00QKow2SAFCGMoqYzS20iUVQBwGIDS2hPhCdoZoifWFew/j/MWaIBC2UEpdIpw/2kuWtNFN1pfViLpgoQFda+bzOc+ePUMp1Uztm0w8DIGylb4Ei3qo0+m2Xxy6AAAgAElEQVTUBhZd4R73/4o87pqxYRdoXnd4v3CtOblq0Qmr4gegaqXSATaDxv/N1brmNzPG/x3hXCIajQyU9SPismKsI9De6G0L2hGFEQakoTYVIBfvVwufI8I9vIR2pO2s78AmFVRUljBdQRntpF8yEjaXXrvapsrWUS20zT/3CQtauOr3zkbUGJCWnApdWCGVlHY5arRXGrjvGmldFrWuMC4QJZUNwlnxg53VVM5KDEKBRlJTIdpP9Cbe2SLXhkzt6yAQWFK1SoXrKoK1kxcwNH/73HtYvNeWXimpEMEi06/JbjKmee9l0k0WD84O7xteLNpvSRBvBKuyXqyl9aR+VwjVZ3RZ0qwXVrzP7nEkaLE4akuUGiMETkTVOr96QSzCfmakcUvZIFCzrHBKV7FYr/ZWryMKjW6KVDfbBmqj7X5KvURhQtiHA1R476Y9Hm0JtLV+qaRVLRgvJXKE7JRm/jw4U82dL9uBQKwOACf7Eo5ZTaPaf/mRIrCJCubSRq6GdWX53TBL2W5C2BY9nYXZ4aa4kkwXaZYWTauJl8TqlOiqnkJvHxaCHoOz1Jw57o/MiJbHx7SJ1BNXe6pL8/nymbFkKYSwU2ycUsIxkp+iA40LRmMj+xVlE1RcJlND7QqNNBaecFIloZ1m3jeha+2Xn5ngSUY58lloL42wOe3GPQhqrAJAtDIhliL3reNuvXgpK3AVq9Wcngd7/HppGmWMbrbvEyW6wFOHm+Jqy/QV+HyvItJ3ZVA2lineCquXHz7+hlz9nv9ULDuvDask4tdt31+WxrbdAYvt2TYlltwbynKqjPZ+2cLM7ncroAbtZa+ntPZMQ5tFd1CMtW79OWkmxysnoV0qsXWoPwgaf6s/Jt34HVxqauf77HBzPGea/+ei7UV9d3C5itTL+dM8QV767KobV6z83fhSzZKUzRNkM81esfaWXiw59fyHsrXEMsE077ctbHP5/cV3F+XoWDlXNpvr0qH/YFg935c6K7xjY7fD94vvjUwX0U97g72JeNU+3JsEH553Ji5NUdu1DV4iEPLCqW6riEhjl4oX7d3V5HN5W94t0LxqrNHOyOvwLuOd6QRm+G43qzPm3j+4AiffJcnCa1ih5Xs1y4ZnNz3u8L7hO1umTZBqcffYXyxuJCkWtUy/j8yo9u3qqzlpH+Bq+WjFqt/Rvev327AkQHgl+/PaIcSlY7gpoV1V8OXSMj5w5IJEPrB0aSrsJyJOHiZZyJXeZYJ9l2ICHb4bnkumzdBoxQyaqawP+HtC9fXirnDXvXoatdtqey6bHfGFKTDgAiFNJffmYK7aV0cQ4mak+Occ03e56RbfuXyCLclddqdcFQBbVg29+Ci879N+d6Fk8Od82a278KvevIKt6ab/Hd4JXJ0B5e7Lq8a45U2vQW15Cb3/TZjGGm1/x6l4Xon1tnxDO/I0BmG0ywn1N/MymTbmKwv6ba3Q/jK82Eq9yTJ+Iywf88uScHs/l0jYLFOZP+Xi/2fvPZ/kSNIzz5+7h0hdGrIbrcWoJTnkkssl976snRnvn921+7ZmZ2d2tmZ3nN3lcNgjWgwa3WioEiidIqS73wf3iIzMqkID6AIaaMRjKGRmZKSHfvzVb+XlOgdN3/2yI2npjJzd3yrDx1tvm7858yt/L1Tz65l9b676EyLSn9ChtHgOBOdJL3ZJWjjj2V1eJub9zt3nyo5m5w5kMW+tcd6YTw9frq1JlkIghHUxncYgrEHi0hFpkinC7YcQvl/SXMK1nmhNPYtc/Gg0SeL7cMZpA09drb3ZfqWpip8Xk17ZMZ/aA30ukZ5/UJVJp1koe34ITRPOosNsPpnM7as/VfxY/c1avDo4I5kuP1LNQOhzibDOdXaoSLVaJgD5Qlw8nkit9UHwEqzxnuq5ZOrWm7dxmzdqOzOciy1EPNWD8QyC6Q9GZYeWT7BtLtHYU4/7VOvV265+Y89830SVnPEs22jR4nXHMzmgzkiT50isy++td1hYLssJ1VQxqyB0cAmNLr98LlZ7Mm0Eo7vWH5V6Wklc9QHNX14gCzythLa81lP97iklpGc9vGeRvH7KEuhFePOOuMUyLi50At5DfFYybWK5z1PtvWeZXBftbD8cEtuMvrS4QhvG4sosaYTQCNeBzttDA9whK/fbSl8Xl71vT8bzPngvgiQvc9s/ZP0WLV53XCyZNqRIKV2ZNbNUCOKi6j21Ol27j+dhSJcD4YmxqlblGslbSgQlUpSowCJliRA52Nz1pzIdLF2wvgkdAmcl1c7zbwPsTyf0tkWLFi8RZ22mPl6xKoIBoLWhLMsz5c+qzpZSyHNy8WXNx8JecnaADcF2wcaAwNoUZAKUCJERRpr1tR79QYyUkmky5uhwTJb2QFsEIYLAk30BInc7aatT0hJqixYtng3nS6ZL2S1107Rzipc0JdSqF9BZhxUvQO+TgPJhQAqs660uZc5ar8dHH77H27fW6PYzpukjdncP+PqLE3YeavI0Iwz6DWOE9lZdQ90sr0WLFi2eAUtk6kKiqjDFIAjodGLiuOP7pFfSZkWirs1wnuckyQxj9NmQqhfijLBACeTeglA4u6gAkBgtyTNLMsvpdEu2trpcv/4+JttmNj5iP23UEa1qg15QdPh1wgv2m7Vo0eIJaJCpbUhlAqQkiiJWV9cYjYaEYdQgU9/q10JR5IzHE7IspY4BbRaEFi/AXorBitTbQwE0CI1SAUJ0mU4Nf/7qEffvpWxdS/n5r2L++q9/ze7NgoffFZwep04KbQRQuTPw9Hk7rxoEbUpjixY/Jhpk6j334Cuuuza3s9kMbTSBCuqHteqdvrGxQa/XI0nmvYyar/XI3vwquJzgZuu99T7RBpqUKBTaQJIYyjJFhUc83tOE6pegJ2BSupEg0xprcF1VX2MSbdGixauBC4pDV44n1x2yKPL6c1E4R9Tbt97GWsvR8TEHh4ekaepKar6AgiaLqILBzWJ7ioqsfeZNVro+S0WRozD0Y+jHgliVSEpH8CZAWG+aEN7++uIjo14IXHhYOyW0aPFj4YLQKBc2ZIyhKHLKUpLnOdYapFLEUUS308Uay2QyYTabUWp9rlf/xcDWRZbnVe2FSwl1X6OtQBiw2iINBMISihwlJmByMAZsB6xCoMAqnFNLvKRo08tHS6UtWvx4eEKze0dTWlvAkGUZSin6/QHr62uEYUiSJKRJitFmgXxetN3Ou4zca7XhRtUS651kWAkmxGqwhcDqKdhToMRYibUBECIIsSgvkb+ONNqiRYsfGxeS6bLaKKUgikIGgz5XrlwlSRKOj4+ZTqdorWvTwA8vZHIJsJVDRiFsB2EibBkBKVLMQEi0mWEYgA2wxFgCrHAtm1sZr0WLFs+KJ8SZLiaAxp0Ow8GQ4WhEr9fl8PCQ8XhMkiRIKZ9YhONlorkXwkom45I7X89IE8svfv4x16/f5NEu/Lf/+x77hz2SJMLoEFBUNVBb22OLFi2eFRdIpku9Mq0lDALiOCaKIkAwm03J87z+/iJP/suCc341rZ3zMoC6yDk8OOTttwf0hwNyMwNfSWpe2k7M1fwXFh/bokWLnyqeumqUkJIgUK4ve1mSphnGGB9vuqjaP6kwyouDxfoK+vPNWsJQMFoNKXXGdKY4OU355ptDJpMZZdnxabP+GFmeRlq0aNHi6fDUZOqkT4lSiqIoLiTQl4OLCM8nhVrrPPtCE3UEW1eGXLt5he/u3uE3v7nNH/40ZlasoEtXrk/UfexbIm3RosXz4akqekhfhT7wqr4Lk1oseNLEy0nNrErnNf9M/eoynApUVDBcg95QcnCU8uBhwtGxoCxDrJW+kLQv1dc6n1q0aPGcOCOZVrR0Rs70BKm1ZjqdYoypM6YuwuUHkjcIfF7JtNpQ/X3d2E1orMghUAQdiYr6GPqUOkWYrvPg18q95rw6rC1atGjxNFgg04pERJ0JNLcgSiHQRUkynVJkGUpIlJALNU6XIRbI7ocq0nbx1Va18sWS3XPeEwos2mqSPCMtS0TQI+ysItQYbbtYYkC5kFRMg5y/Zy8rM8L37nJLyy1avCkIznvcK4mzKVlKIcmzlJNjR55hEKCLgkLrp9rQ5aj9jiCboU/OEW+xvl6AFO5PCYNUTnGfJobDk4S0lIhwQBBL8rKLIfYmCl0d7VPtZ5u62aJFi2Wc64CaJxUJlHRm1bIomJyWC55602y09gRyuVzamaePuo+i9uILDEIalNJ0OxDFAStrfYZrHUTQR6MpdEBeCgwRltBX59euKZ9ti0K3aNHi+fC93vyqQpTQVW5Qw4tvG5+fYD19sTKcjw21hkLnCJ0y3OzwySfXuH7jHa5cFVy9oZhM4cGjQx4fnJIXEIRVz1QDtvSZT/P8/BYtWrR4FjxTd9IF2EWS/FGV3roWnwVRYsmwIgEpSXPJo+2Uk6NDbt/e4fgkBzmar4/xf7qVTFu0aPHceCKZuvx2ubRMLHxfuZl+3KLEjhSDQCFVRJKk3Llzn0fbBqkK8iIlTyWnxyFFMSQMY6xphlJBK422aNHih+CJZNokyfPCoC6j0PMPh3GtnW3pAxBCygKODwtOji1Ode9hrcKaHkp0nY1V6PnvEb4EX0uoLVq0eD48UwbUmWWXuivPAh9kVReHNr5Iibd3Wom1oaui7/tCObIMmNtF5wH+LVq0aPFD8Uw20x9fCq3gbKMupAlAeiKtnEfeBloVfbaRe78As/TXSqUtWrR4fjy/A+rHhDCu3z0FThKNAIlAzqtFi0riVEAENsBNB9qr+F4qrd/LNna0RYsWz43X0H19xnLr7bmVVNr8k85Db5tS67xE39xM0EqlLVq0+GF4zSTTKlC/kjIr1V1VrU+Zp5tWDiXppM9K6qwlVt/WpJGi8FrOLS1atHgl8BqRaRUXWkmcrjr+BWVZ3DpNG2othTZLuSz/QSultmjR4nnwGpEpLBJdRZTnVhfgjEr/xPWWx27RokWLZ8NrRqZNVER4kdPoaXpStUTaokWLy8HTty1ZCto3P6rnW1zw/nnHaNGiRYsfhu/1uNRlO5eynZbJ9cdNJ23RokWLHxdPIZk22sw1CVM07ZHN11bia9GixZuH7yXTxcZ5duGz66TcSqQtWrRocS6ZnlHnhSAIA5RUtUBqrUUXJaXWWGt8+xLBS21Sei6WJeYWLVq0ePG4WDIVjkillARBwGg0otPpIH1JPmMMyWzGdDalyAuMyV/WPrdo0aLFK4cLJFNb1y2VUjIYDlldXSUIAvK8QGtNHIWoQCGV5HQ8JityBNZ7tM6Kpz+6wNqiRYsWLxByObwd5v2dLCCVYm1tjX6/jzGG09MTDg8PSJKUOO4wWl0ljCJXNsT61iZi8e/lMukP64HaokWLFs+Di9V8O3c2RXFMURQcH5+w9/gxWZpSak1/0Kfb7aKC4IxPv0IrkbZo0eJNwLlxpmLuZQJAa+2y2ZVESukk0Kb0Kt1y2yDgCq2M2KJFizcB57d6rsjUvxqt6XQ6DIdDsjwjimMGgwFB4H4upJj/pkWLFi3eQJwh04oUqxrL2miKsiCKIuI4JoxCsjQjDEM6nQ55kWOMQQhaQm3RosUbiwCakqhT2Y02WG3Q1mCtZTKdsr6hWVtZYzQakec5WmuKomA6nTKbzrDWekHWYq0509W0RYsWLX7KCKCZxSQwxmCsQRuNCgJWVlYYDAZMJ1MO9g+YTMYEQciVK1cIwxApJZ1Oh6IoKMsS4wkYWkJt0aLFm4MFNd9iwaeIBkFAt9djNBoRRxGHh4ccHh6SpilxHFPqkrXVNYIgoN/vkySJy4IyPk611fhbtGjxBmFBdBSImkyVJ9PBcEgcd5jNZkynU8qyJE1T9h/vczo+BQH9fh8VqNpc4FJQW6m0RYsWbw7Oz4DyIU5KSrrdLp1Oh8GgT5allGVJWWq00RhjkEIiQ4lAtEVPWrRo8cbi/NAon0yapil7e3usra2xtrZGt9slzTLKokQIQb/fJ8syJpNJ7ZRyzieBtW24VIsWLd4cLNpMq6B7z4FFkXN6eoIQsLq6xurqGsboWoVP05TT8Snj8SllWfjKUSBlS6ItWrR4s3BWMhUghctmKkuN1ilaa4yxLnVUKcIwxBhDmqYks4QkcetAFWbVkmmLFi3eLCyQaVW71H1wZfastcyShOPjk7ocn5QSYwydTgchhFfv7dP1sGvRokWLnyAWyRRAeEeSdSFOFlBKUhRl7WByGU+CPJ/XMHU9oVo7aYsWLd5MnI0zNfNUUkuzbYlf1vDYVzbW+bK2D1SLFi3eTCwGg1Y9nXw1qCZxLpgAqtVtVTu0SbAvcG9btGjR4hXF2UIn4Ao8L7GiELJV4Vu8oXgWCaF9Rt5UPEWrZ0ekUrqwJ2uNX9pmOP1U8CKUicumFPsCSEo81ZE/T+eGllDfRDwVmTq4Vs9zWNqb5iIs9He99LErpeE8TWHRxv10216+sk+z/svE2X37IXuwfA8/+9YvhmAuZDypS+5Z89iTj6l9zl4HPDWZCgHWNi+qWHqdr/cy8OpKU01n3GWeDDfunEjPX8tdp2cf/WkaZF90NMvLn4UmnoSzPRvEOe+fF9Y3jrzoiJvO1KfZliNS11Ky+ZvzxjdA4V+bvz87prjgOWvx6uGZJNOLH+Af4UKLyydUcUkD2gah+tIvlzFo3X77yXDX6fvI8Vmpolr3id/5QetokGcVeZdgG1sVjU/PP2RzorMgquC/5RGXJ0TlXq14omnA1v15K0JtbKtxLNW2vXeCi8+sAKsahNriVcYzkOmricsi1Ff5dhWAkNLXPJgfsanD0irVXiIbZFutb619Iqk+67FfNOlURCes70zLXFJ+1m00w/NEc4Hf0vNd9wYZLkzGy4RaEbfFEePyWTpv6+KCbxvL/ezikgQrMr1oPBBWXvhdi1cPrz2ZvnpYliN+OE1bwBrjCGAhzhcfxmY9TWi0/2JBghXnaxU1ZSyHvJ2zDzVRssRr5/ywbvG9/OPnhJP45lK+9RXKbL3RxQlEXFAbwpFyJZUan5iy8OXCenMzQPUbwBrOQszX8WNba+okGFfLQoAxWAwIgxBuv+c27rbq2uuOlkxfCJrUczmoyGmxZmzTnuYkUJfaS110xmWmVVLiedLT4n5+nwT7ZJnsCUT7FKiPseKlM2MJn6HnvjbGrTg/J/N1nrSPTcOzqIwyjYOri5tbON9ZVC0/z1pcdZrQWAECBVVtX6HBaqCqY1HtjjO2CDG/ji1eP7Rk+sJwuYYDiTOEVim7QgqklHUFL2uMK0gjDMtKvcUibE0b59hdfxjxX4o76LwBrDcT4IhTCm/uALSxZ46z1grs+bbluYovajkXUTl57BnJ/9zZo1510dTgTC4Gg8GiEaJ0UqwIkSLwUrAGcozVYAzSS62uyprbH1sdc0uorx1aMn0NIFiWRPGE4YnUGkpdkqXZ/DdVl9lGnYX697LhEvHqpSOtH8dyvEykVnjpVHgp07hykEoFdMIIbS2mLJFC+KI7TdOHxRqQ0p+DSjK3laQOldvtPL5qnmMvL9bvmp+q763T3tHGoLVT763NUWGBNhohYsJwgLGAKDEmo9QZWlsCFRLHHZRSaH2e+aDF64Q3mkwbSh7wNArvWb+qOEekcmrj4rjPv4+LxFg1PJTSEamxFmM0xj+Mxq9TMYWUEiGdY8ou21Kb++xtiZbzi9V8H83axkpNP3Xl164I8txx7FmHk61ETOuOSYURUgUUxpJmOWXpKpUFShFFIRKLUk5Sr45hwfHlJdy5w05ghQSMn0Scs2fJcOLfuaOorr5tDioESgmCQKCkQkhI01NKO0MqjZQhxuZYK4ESKTWhEMRxjJIh1ljKokBKNb8G9clsUneLVx3nty0xtnqK62VSnm+LorbPVQ/qj2dIP0MCtUPEnmE04TsB1IRqK3dGpQrPpbr52O7hEl73rFXu6iGjOne2Zg/3AC9LRX7M+UL3+4ZnviLu2vnkf1DtkzEGLZx91HopTiqJ8N574zseCCGwxmBEZRZYPke23oeKTpvnas4b4sx7e2aluXWxMjZYQFakZj1ZiXOmpeqUNa5BPbBQCCkxMgChUN2YSCpnH9YlQoIwRb1PpgpPEsJNIsK3H284kSzCOcrqw/XbNO69v5P9ZNmUSt2OCqkQQnmzqnHnuNSAIRCWILBYYbAUaJ1iCRBCe4lZIVVAnhZobVAyIArjeoIQzZoYtHhdcEEPKAONMBtrbS3dLKxXfWeFL8v3ElNMvdBQPZQVkYuFVSrv7KIEWi0TzhKJxaKtntvDqufHMielxnYE0mmgtnova+rTaCwNe54Aq009aKNc7CJB+c9VKJNbXYI1dftsAcSdTt2XazQa0el0oa45e8R4PGY2ndUdEZRSFEUxP0fnzDcLi6w9o3b7I6dyYglPUqZad/k4/NEbqIlBulnBSY0s7kf11vqdsU2Ct7hoAxVgRYgIYoajVQaDIXEYItHYPEGnp5iyZDLLOJmmyCB0FoLaqaOpTJPWVl51iTHCT3ZuP42f+Jx8W5GprPezUjgUCkTg7KS6QIoSq3OEzemNAt59/x2s0OztT3m4nSDoIJVFCUGvF3Pr3XfZ23vM0f4ReZpiS4Gwytu2Kym5pdLXCUsl+NxjsBwXKIRTYZwa1VQ57bwwNHPJ62VIpq6TaoPgKilzQaryitqCGDUnWSmkl0CNF0jsnEjBhdhUpC0FwgqkUJ5EPamgagXQgpd2KkdEJeGeI9Q3CKi2Wzb22n2uHiiB8Z0MVldWufnWTW5cv8EHH37A2toaZVGyvb3Nnz7/nK9v32Y2SzDGopTw6u2ihH3m+izHo54pclOfSfdPOamPqk2NmNsSHYlWUrkF46TUSoSey8CNe6k6b8z/qsplxloQEiEDhIoJu0O2brzH1tYWV7c2GHRCiukxs8MdkumY7x5sczh5hFCBO5fCjWWEwMpqtvShS8JihfAE6iYsg3DSPZVkWt9tXiqtdl8grcRagzYZcZgThwm9Ts6Nm2v8H//09+Sl4H/8yxfce/AHZwKwTiBZGXX5p3/6O+7d+4Y//Otn3PnqO7LpGBWvg+xSmRzmokBjwqHFq4qaTCvVsAoEl0h3ExpDt99jdWWVXq+HUgpwDoHZLGE8HpNlGVJWtrYXP5tWRCori1ylr0Ht/XUE4CQiaeTCr8FSmpIwCpzx32i01oj6wbJIKevOAgJHpMKKOszQbV06QrauUHZRFHQ6MVY4adBgiOOYbtyh1KWXMBuFYs4hVKBW42UgaxVUStdKZjga8t677/H++++T5Tm3/3yb8XjMdDar96EsCnRZIgBdlpS6JAxDNyEISVFkSKVQKvAOE28agDNEW89DwkvpKEJPrtr67rRK+fNs0NUkIJ29NisyTKlRxqIsWCkJhKxD4SsSdbLiPCxIl9rZSlVAGASIIICww2B1k/c//SWj0Qrp9JRHu48R2Rg9OeVwf4+j4yMKY8jTnCiOXQseAVYqjKhMLhYhDMIYrBUYNNZojNHOpIAjztrJXiVH2MrMI8E484GUFm2mlOaQ1ZUZn3w04H//zx8SdzM+/2Kf3e0dlKykXIXQhjI/4fj09/ziF6usxBvE5TZffPEYY/uUpoMRqhaBJXZO7j9GpmGLp8b53Ul9kLdSijiO6ff7jEZDgiCkKAqklAxHI98LSrsW0L5PVFNFfmGwjsxchkhDHfRig/DEU0kRlSo7t4q6hWVRUhYlWmuKoiSOQzBeKpSCOIzJsoy8yBFGEKoIJT254iQTiUQJhYoUoXLnIwgVMu6irWuHXRSFUys9wbiT7NXGyq7ZCN6WSqIC5QhdSKwNKMsSgJs33+La9eskScIf//Qn7t+7R5IkbiIwhjwviOO4bi8DENkIqSSBCrBAGEVobWr1v9ofLpBaRcPeKqQEKSi1IS9LVKCwKKQAJZxqb4RAYyl0CVIShJIAQWgdOVSCai3N41R5W9tNBSoQSK8lJVmGMBGdOKQ7Wme0eZ3ZLOGb7x6xd/9rOjYhzI4ZnxxyMssxxARxBysVGm8BraVvcBXQpXeIOTXeCPcnwJGk8Iq2EIBxZFv1ObMC449F2QJDSqdbcOOm4pNPety4LviXf/k9X35+xMH+2Nl0rTdwWEk6m/L7z37LsPcRb91QmL9aZ3y0w+6J8/KDokoYmKfRtjLpq445mfqbWM6VY6IwZLSyQn/Qx1o4PT1lNpuhlGJlZUQQBAwGA7Is53R8Wkt39ZAvbCYVtbhUy3a2soVBFIW4hoAlxhjUkl1PSkkoAxcRqDXWWAIZgAZpJUGg6Ha69Pp9IpWSJCllXiKM8CqtdM+jtahA0Yk7GG1Bp+TGEKqQqBOBEuRlxng6Ji9z99hWRM+cSJvnq/K4SynnpgRPZFJKtra2GI2GPHzwkEcPH7L3+DFalwQqcJ5+o4miiCiKCKOI46MjAKIoqkm2NJrpdEaSJO78KFXvRyXRu/ee3L1EW4UaGePMIjZQlIFCK39evZnHCCgBXTZMJdYfr3fwVHAOoiXbrT/HtfRqA0wQoToDov4qNuyxf3rIzsEJ+4enDERKlB0zOTkmKQW228WIACEV1oJSAf3+gKIsSNOUokgxpiRUAdYY79WXoNSCvVopN6EZXaLLHG1yrDHO3GOr9j4lUmlWVyNuvd3nresrPH70HX/6bIf7d0uyJESIoCZGYSV5Krlz+4Brm13+7i+2+MXP+mw/CBj/qSCdGoSRzDO+jJOibUunrzqWJFP34FQqTRhFbG5u0ul2efjwIY8fPyZJEpSSzJIZV69cdTdpUZIkCVmW1f2hEN4m+TKN6FYQBIr11XUATk5OmM1mXr2d/0VRxOraKlmek8xm5HnmTQeuSeBwOKidO0LAdDLl+OiYyekUqw3W4DzsVtDr91hf3yCZzSjSnH6nz8rqCoOVAWEckBYpu493OTw5RJsSIQVW2ycSqYuV9KKbgDiOGQwGxHHM2toqYegmi+FwiAocERZFwchR8zoAACAASURBVPajHax1XWS3trZYXVvjs88+c79bXWVldZVut0OapOztP+bx48dMpzMXBSDEfI6isoM6DUV6ic0Yg9YWLSCIQjq9DnQibBRgBAhTC7h0cCaWPElJJzPyNEV5h5+sDkz4yaVSpT0ZA3WoVxhH9AfrqN4W3bXrdEfrZEYxLSxBd8jG1RsMmcFpSTo9xZYGKxWlkfSGTnvqdnvcvHGD2WzGweEBJyfHZOkMKaAoMmfWko66+/0+YRAQhCFxFKOkIstSZtMJs+kpWTJGGIuyAiEMoOl0BJtrQ96+fpWVbpf/5//6Z+58WTLNhsgoQtSEaBE2wOo+42PDV18c8ektxbs/i/j0510+v1tynJja/iGkTw34oRVjWrwUNMi0kb/tc5vDMGQwHBLHMWXp1OFOp4OUgjRJyfOcbq+LChT9fh+tNWVZ1nbVl4mKJNfW1vj1X/0agDt37nD37l3KsqwjDYxxdsy//w9/z+PH+9y/d4/dnV2sNrz/wXu8deMmV69cZWVlFV2W9Ps9Dg4O+fr213xz5xvGp2NKXWCsIAoj3rn1Du9/8AEnRyc8fPiQrSub3Lx1k8HKgLRIebD9AIMhyROmsynWeCKtCL7WBKil3ZpYpWA4HPLuO+/yq1/9iqtXr7KyuoLRhptvvcXW1hZKKZRSPHz0iP/6X/4LAG+//Ta//vWvuXHjBnmW8cmnn/LOO+/Q6/UoihytDV9++SW//8MfuHf/HkbrWt2uHP5SOpIWVdC/t6kXZYEG+sMB8cqQ6++/y9bbNymFI0kpBJEK6EYRnTDi/rd3ufPVn9m7/wCZlS5Mqlbxq9Alb3+0c7tpmqUYY1jrdti6cpV3P/k10eg6mezTH61x7abl2tYmA5mxIhNO7v6eLyPFt4/2OTUBvdEKn3z6c26+dZON9Q3W1taYTMbs7u5ysP+Yw6MD7tz+MzrP6gOXUvJ3f/8PbGxsEAQhYRShVECa5ew82ubO7a/47tuvSMZjeoEkCiXSGnoxjPoRmyvr9NSIf/lnTVZaZCAoTbOCFE7ilT06vRUe3vuC777b4ZP3RqyvBYRhipQ5QmvnExChj4BYHKLFq4maTOeOBn+bC9fCeTqdEkWRm7kFlGVRh65oo92DJ+SCV/9lo6mipmnKV199xc9//nOue9vi9vZ2vc76+gbvvfcenU6Hw4NDDvb2yaYpvU6PYWcFUSoOd445eHhEnqSsb2zQ6XZ59/p7XBld5Z9/8xvG+SnCGiQKayAKQm5cv+7Iqsw5ODjguwffcTo54XRyytH4iLIoFwPnrVOBpXAqnVnKgKnWyTM33p///Gd2dnf4+c9/wcrKiOlkwp07dyi1RpclR16dN8YQxRH9wYC19XX+4R//gd2dXf74hz8ghKDX6/Hxxx9z/fp19g/22dvbJc0yaCiWCAjDyMUWG7dvLkTMOXF0WZBlGT1GlGnG6cER1qe3KinJhSSREiUEk8mEsihcOqg/NunXlUo5W6b3srvW4k6z6XQ6WGvRpWb70SNMuMbWrZiVa6uA4Pj4mMOd+9jZIUMmiKPvSLOMMIzoBT3effc9rly9hrWC7+7d549//BNBIFlZGXHj5k2uXbvC8dEhxU5OWeSMRit88MH7XLt+jSRJ2N1/TJoXGCsZrWzRX73K+590mCQzjuU2MsuQJiNSmlFP8t6tG3TDLvfv7hIFoG2P3PaxuuMl2MXA/zzXIAL2dibc/85y7foNbtw45XAiyE5SBBHCBjSdEG2G6auNMw6oZv52UZaMx6e1E2pdr1MUBQJBt9thOBgydwCdX6DhZUyoTWkuz/PaHNHr9VhbW2N3dw9rXNbQ6uoqN67fIEkSTo6PmUym6EIjYsHJ4QnJSQKlxRQGqy3T45SbN29w7fo1Nle2+K38V6TxsaVWOBK0gjAMkVKyt7fH8fiYSTolK1LyMnMebV/1qamtNYP+TaNQsKk9x5AkiVfHp0RxzLVr1+j3e5yenvL111+TpCllWZClGXmeo7WuDI3ossQay87ODg8ePCDLM1ZWVrhx4wa9Xo+V0QqhdyqaZnaUEM4BJqQLPLcgjPURQRIlFWVRMJ1MyLd3EIcHaD8BKyFRPkZZAroomIzHlGVJwHx84TOzABeQ773WLjiVWrsxxrjfP7xPGQwJB5v0kilHB/s8fHCf7HibnpnQzR5j8wRjQ3r9PteuXUVKyeHhIQ8fPmB3d5dut8utt98ijmOGgz5bW1ucHB+RCcHq6iq3bt0iTVMePHzEg+1HTGYJhZFcv6H58INP2Lz+Dls7D0jHY3RZILUmkoZuYFkf9AmIGJ+kBMoidQ9MF2yMEAXzotHu0hrt7PSzmWF8anj3vTUGg4IoyhGkznsh4nlSQUukrzzOevMbQZFlUTAeT9xs3+vR7XbQWqOUc9AgXEjQsqNpOb+5HvcFoqqYVNlsT06O2dzcYjgY0ok7pElCHMWMhiP6/T4PHj4gSZ0DpioYsrezRyQjenGPfmdAN45RVqEIiIMOYRighMt8EWJOPlZYpsmMnd0dvvn2W8azMTKUqFBSmqJx6JWEYRccPdUk1GydbbwzLy9y8qJwtl8hmE6m6FIzS2bsPd4jyzL3cBpNnudUKadlWTKeTLh9+zb37t1jd3eXLM8Yj8ecnJ44W3inQ1h5/essK+FiKL0M5dRu49NYHckHUmGA6WyG1QU6UBRGV+GXBAgCKwiEJFCKLM18CUE15wRrG1J6FXZRhSA1Iy/c6+T0mOhgj7XjA0YbV0mnx8wmxyTjY7SeUpYzhM4hChh0YzY31jg8PGFnZ4dH29scHx/T6cQEgaITx4Rv3WDzyhUePHyAlJKV1VVGKyt899133Lt3j0e7uyR5gSaiECM2r7/PlRurbF69zvbd21gBgbSEwhALS4hA2RBsB4vC2ghsjBUBruBJddzU0SjWKqwJsTZG0EFJkCJ3NlYipPQFXSqH5Qt4blpcHs6QqZSyvuHLsmQyHiOFYHVtjdFwSBg6Sebk5KT2Dj+JTIGF9LgXiaIs0LpEBZL9g3021jdYX19nfXWdnWSbtZU11lfXscbyaHubWZp4J64iCAMoYXVtlXfeeoe3r9+iE7tso163iwoV02RKt9cjnI4pypwqYMUCxyfH3Ht4n9OJ89yjLaIQICzCF2o/40aw1hFUY7mT7gTKe/2b0n6WZXWEgi4108kUIR1hCamcp74s6zCpNEnY2dlhd3eXWTJz9m4hmU1n2A1Lt9shjELEdL5LAmfTNFo7U463g2ut3XUUIJUi6nQIBn26m2tEK0NK6dNZjUXkJTIrCC2YUnN8cMBJ5s6JO2x33MJohFR1TKn10qmxFjN37SOwmCKDIiEgpxsYIlGgbA6mcFWYZEAQBogwJgoDrl3dYm93j+PjQ05PT334W8HpySmT6Ywwitnc3CIMI4wx9IdDBsMRSZIymc7IstyZPVTA/tGYo2lKEPdZW9sgkBKNIZAQCuiIkJgIZWOs7WDoYAgxKPCprcLiQvl86IK7tgJrQ6CLtTFKSaTSCGkQpkTg0lNbsfT1wAKZNm2PWIv2Es7h0RGT8ZgwDF1coYU8z51DZGXFkYQx3nEhzpdMxdmA8OdGVfDSpyfiY0yFpA4ROj4+YjIZc2Wzx9bGJod7B6yvrNEJOxwdHHJ4uE9Z5E4QU5IwCvnk04+5fuU6kYw5ONznwb0H6FJz5doVbr1zi5W1FZfYUAWYC4vxfyJwY0TdGKElxmqsMCCsCwqv4luZe+4XwoEa56YZOlWnUAFR7MKdpA/hqbKmirKkLIra+68CRRCGSOVy2sMoJCgCtNaMvcqd5wVJkpJlef2sisZfFVNpTRWvawkCF6eqcaFWG5tbbN26yWBrA6MkKghQUiALjcpL+lHM/u4eX00TDvIdYjW/3apYX+vrOljrirN4WR9pq9hQT0fWoLOE9PSQbHxImZwiyhRlS4TVLpPJ3wvGGqLQeeGzPHM24Mg5lIR0IU+dTockTcgLZ/8titLd75V2gyCQAVYFFEJ627FG5wWhUmglkMb6SIjAhW8hMQKMsJTG4E5dQJ0fZ1Wt7ls/eRgEJYoSRVpotLY+DM1FClxYHKbFK4e5A2pJmqw8uyCwWpOWZR0crpQiDEMCn51itAtodg+iQDakLeHf2HobTTXueeGIzLm/nfRXqZhCOiLL8ozjoyNW+ivcvHqDvYd7bK5t0YlitvcOSJIZpS4QEsIooD/ocfOtm0gNe7s77Dzc5ejgiKIoUKFk68omw5UBFpcqqn32i1VQmJLClGhpQYk6rEl4L/WcrJbEU2sbGVFz3jwzGVXmhPrtoopsjVPDqwiBLM1Ik4TRaAS4qIwgCNC6rEndSZyFM4348az33ovG9bP+P1nVXfDfmbJkdnLC3n3L4cEBRoq6foM0FqkNsQqYnI4Zn54spJxicckRgFBmbhP0b1TDtmitT6rVGlHmSJ0TS40sU2SZEtgS4T3ext8SZVFwcnTEaDRiNFrh6PgEYzRFniMHA4IwoChLprMZWrtwL+ckM4xGI4bDIdNZQl4YhIV+GNKRIIoMdInVBUI4b70VgpyASWFYkxD0A0pRUNoSbS2WAIjcNcNPvJWD11g6gz7DjTUKIRhPc4pCIFDOWWdL5vUjWkp91XFGzW/mtyvpSDOKIoqicBkz1kkl3V6XThyDLyFmtfExhmKBLDwb0KSHKq7wh8GcabchfK491gWvn56eMpvOuHHrBrduvs3WxiYazcnJCbos0KZECoUKJFEc0h90Odw5YG9vl6OjQ3ec3ZjhcEAUh1gvbVYSqZAgQomRlsKW5LpAW02hC68O+4pF1eF6QpnbTO1ig8pmeBpnJfkqEaFS9Rcyp+Rcq6jWcXbkshrZO8qC2iZbRWA0c/KrCXCeDNGUpqnNEjrLOX78mMe7e5TWuFTN+igq5cEXt7MWVWV+VdvxxCmE9BOM347FJ444ArF4s5PWYEpCYVjpBMSUBCZHmcJJpli0dZNBkRfs7GyzsrLKzZs3mEynnJ6eALC6tkKv3yNJU/b399Glk8DTNGM6mbK+vs71a9fJ85KT0ylR3Gdz6wqbgy7ldEwyPqEsMrAahKHEkmjBwWTGlh0w2AhR3RIzy7FGIGWMMU6TMLLEUiAoEbZEyoLB6pDR1iq5tYwnJXkuETb094HP37LzUMNW4X91sZCbvwBrCQLFaDhkY3OT2WxGlmYI4TzXcexm28lk7BwMdbocVJe8lkQAGg/+D4VtvptH81Tp7ljtpLUsz8myjCAI+OTjj4k6EQ8e3edg/zHaaJcxJaA0BWmWUJQ5YSdkdX2FQCm6cZfV1TU2tjYZrQypypfUqr20BLFX7SeCvMzJdUFpDI47HC1U+f7LqvyikPr950bgzCtpmnpJVKKLgqoQjduOoNfv0x8MXLxmmjmbpHE5+IEKXCqpt4Naa5wkXZ/Exf1xoW+iJtFaZTVu/wNrkbY2BdbXp/l7YZ1n/zyV1YIXKZvrV+fGkaoRTs2nzBBlyiBWzm5KSW5LqljMqnxdUeTs7u5xszPg5s2bBFHInTt32Fhf58qVK6ysjEjShIcPH5LlzuEzmUy4d+8e77xzi7fffhshFY/3Dlhfv8InH/+SXrfPwe42D+9+iykLjM7JdIYMLbPcsL2/z9tlzJXrio0bkuNJgTKKIOgxmRZ+dhFOs7EJZbbP2vqM/somQSckyS1JaimLAKzLmMIWYEN3H1nxg1rCtHjxeEJx6Eo2cPfBymgFtSp9OqRrkTEZTzg5PfFVijQNxf5HgW0UatFGM5mOOTw6ZDwdMxqMOB2fsLO3w8nk1KnX0mKEISszjsfHbD/eZtQdcvXmVW7deodIRRhrSdKE3f1d1rc20GhHqcKlIbqz5PLQszyrpVOLK58nFjmUhanALn7+PlSkGajAS4ouiB5vGnB5/ZAmCdPplMGgD8ylSaUUcSd2GUpxTL/XJ6jsmHUMzqKE2XSMVa8CVyO1utrS/6h5JM1jru6h2qEtFlesiHe5gGMtn1pDtxMx7HXohoJidowsE6TNkLbwRCqxFnRRkhwfk33xJzJtuPH2O1y/fp2NjQ1GwyF5nnF4cMCDBw/Y2X5EnqcESjGejLn73V2CMGBzfZNPPvqYD9+zKBnS68Yc7u9w95sv2Nt+gNAlSgqENWijOR0nbO8lHJxq3vl0nb/9TzeYTAt2H5ak+dS3gPI2CFGg1JSwe8yHH/e59W4fIQ3f3t0hmQEmRooAQ4a1BQIFtbW9xauMABbtcnWoipAYY+pQHBUEBCpAKu8pTlNms4Q8z+pwnB+9qk1tVnDV57M8Y/fxDr/93b8QRzGlLjk8OSTNE7TUWOlu0dIUnM5O+eL2F6z2V+h3BsRBB6sth0dHJElCECpW1lbZP9qnMDlGWLJ0xp+//jMnkxPyPCMvnA2yci1YX3lr3mTN7dvzoLJV//73v+fud3cZj8cURUEURZjK1GItSin29/f57LPP6HRiDg4OXAUp4SpizWYzPv/8cx4+eOi0jSy7MEZ44dRetEDMSfKM1Glh+ZY4O86TiMKdO2NABZJ0NuHundtMxifs7O5Q5jOkcE5IbS1Yg1IhSipmk1PufP0Vh4cHDIcrqEARhxHT6YTDwwOOjg7J0tQLByXJJKdMp9wuMrb7Awb9If3uAKMtaZJwcnTEydE+ZTYlFM5mCgJtBXmuOThKebhjefcEPv7ZO3zxxx2OjzJOj49dmBQ+o0yUqDBjsFLw8c82uXFzjfG44H/+j7tMxjFGh1gbADmi4bZspdJXH+Lnv/z3doFMF74Vi3a0Ru/2PM/Q2jhvuC9X524WeeahatZArV4ve6ZdMClUDi8rkdarSMYSRiFGGHKdQ2idxx3AClcVSob0oh6dsIMUCl1oDg8PfQpqRBTHzNIEFUUYKUjShLIs6Xa7RJEze6RpisUipcDFnbvCxJdh7QqCgDzPAedUStOUbq+LMYYsdYkBYRi60nPS5euXZYmSzuZWejtpFEULhb/N9xDps6KynRs7d5s87xYMAm0cSRpAa40MgvpiV6YAbQVWKGQQIlVIkhcUpUEGzuZflVLM84wsSzFl6aIjgqrAs6myqBEI4ihm0B1ijWU6mVAWOQpLqECQI0SKIMXalDyb0O1P+PAT+Pf/YZ2//Mtf8Id/G/PZbw+58+cpJ8cBggFKKqSa0hse8umvDP/pf3uPQb/L5398zP/5Xz/HFu+AWQMrsGIKGIyNsUS4tidvjs3UXjhFvyqYm6YqBNXiSi9zfpK5o8Q2luPDZcBV4lGqWse35Wg4mpoE2uw99CKItEI9bv2gGe89FVgFmXVEZ5ULoq7CnIR0Ul+pCybpmGk6mY/XdepniSMmG4BVrm6nEYa4G2OxlLp06ZRKNaT0qn7p5RxxFUNqcTG1Qgrf74l6uxZ88gJ+sps/hNWkZ611dUeFy43/4c7Ai/FDRxZQTwZC+ONcuIcqE4E7DlNoyiIjFIJACecoylK07zWoEPQVCCWQqkTh7MYG04iHFogsI0nHYAUBLp5UgFe6Na5hs8SKCMIBhRE8fDQj/N2Mfn/GL375PoGKmE1vc3w0Q+CKPgth6Q9i/vZv3ycKS37326/5zf/3gGQSEIddhO3gqKTAUFBX+b9En0OLF4ML2pY8PeFV4VPggz/OcTJUY75InDu6cIRaNWer6p1WMY6mVscrL7Ksg8VtoyGe83P5osBWAKXLelxwUDdUZR8CdtEhX44k6OugmuqomiFVLiD8crf348I3TaGuIGDP+95HozQjSpYgvZNUCJDe+++KoVdV9edajqw6KlQdHQBhBFo64cGi6pB6C5yclHz5+Rhd3GZyWlDkJXE3xtgcISwWFwEgkBRZxL98+SVffL7H4X5Ep7OBLWMvgVqEbw9NMw31Us5kixeFS+tO2qyyf54bakHCfWlw0qMRPjDcL53HvtraFmVcw4p6D5eD7OdRCsJLgKKW4MGTqZnHOc2dSz/MVvokVKp0/VnO4zOfansvUEu4TFRaUlP5O28doJ4ozzuuKjKhuv51yUAqL+GckJ1jzXdYaIzgTeCe40QdB2t0ALZLUhpufzVFF7v0uj1OT2LAe/NFjhUls0Tzb7/b4d69CceHMcYMKIuYUPqgMAHWhmBlHf73OlynNx2XQKbn2zYWHdg/zkM7bx9sXTaSbdLl/KGqFjrprv5FvWbtAPAPnLWu26eQTdXLYqoNehf+fIwXdfTNCv3Uduufnjpoa0Kta7FcsGZ1fcXCkvk7Ya23F1uvccyv33xN60m0bv/nl87Hs1REKr3HHYJgiJRdJpMTvv2moNvJMGWAEB2/8RIwJInhi8/3mU1DpFglCoeUufWqjq/04lv6zQORf2rX9KeHS5FMz/PivwoPdN1x2X3y/zddVc2HCmio/RYLDVXfVA+eMHXqohCylmjPHG2V6fIiD3Bxg2ccfT8NNCTvesZbXE5jjbOf7cIn4W2rlacc0TQRzDcp6g3ZxfG8BcFW95aQ3twjXUHpMEAXinRWMJu4Cl5SVhlQAmslRaEYnybE8Yi4s4KSXcqwaiGj3ZEuFIT+KV3Pny4uTc1/VeHsXsFCEHnzoVuUQF0wfq3kezJ1AdPC273qBhQ429bcptZEpT5K+zIJ9aeERTmwCVdwZU408y7356F5redDWUDWGsTCJhf3oV5W0W/TnDUvdCMsZFlBkeVgla/ZiifFqttogDESIUKiMETJkCwvMLrAGokQVWEUv98NjWl+Ntq76VXFT5xMvSzicjnPvQ3nUuXcUVV/c+7T2Yz7c6YDK8Q5o9sLft/i2WCXaLJiwyXzSSNUqlpgl7+s3trqZXFqrefEJWF0WT6srTn1wnn0i6k/VY0TRcMpqzy5ejurcXvhaslWO9U0UjRfWxJ91fETJ9MKT+5EVT1YVbdKK5r93ZtrzUdb9vGcZxVuufQy0bwm59ihPQctKuyVBrFkzxc06e4sGhr2OTTemG7nn6qtVFrKopHAzu8XIbDGrW0WDqEKMbTN0c7d/xavJt4QMv1+1LZUX2PgIixZ8Fq8JDTbHp9HplUpxipUz1AVSVl0QDV/ZRrLz+gV4pxlCyM5c0PlsDxPE2nubW2jPVMDo/mm2iMfDuVbmbf32euBlkxrVBQqzgg9Z9ZsBYWXjOUp7DwyrUTJigUbcmN1weycIL12PifYc67595GY49FzpOT55uvvm5Lq/CtPwvUIS06vZfZv8UrjQk3nTcNPywPeAuaE2aLFy0Cj0IlbcLFn80lozrevGr5vv+aSztPwaVMOWbCdiSrsxi1zzSoWnSe17Nt4yu18wfkOk4UtP+n7nzLOE9HEwvtKqzhzluwTbuUXOX9+79jfJ3a+adf49Uej1fPSxRNPK63Nc+9fPa1ELP01cYEj43tQ/6qeP9zvpZ1HsDpHVhVAZfx5qeq9CsSSQmAtPkur2ufma3Ory8f2JqERJySWl599Feessfyr88705aNJ882nbPlAlt+/adf39cdCoZOqJuacSBuX/hxibV5uKZ687mXj6aI3nc9WWCcnziUXZ+wXQs9bf1Ql877H8nGO28Nl1eCKYMzJ1ODqV2pffMuCFUgU0s4dXgZcbVS0N9fK2vGwKL08yV3ypqChPp0hVPcnzv3+iaOdef/Dcf5oYmHHmq8XaB1t3b3XCo5Mq6pOQiB9D3Nwdvuq0yVwbjRK/d6v2ywy/KIwD5JpVh8/58azAosCoTBItFAYX9BZWNfGLBYligKh5/Gj9kJJsHJ/zL23jq5BYlBCI8kRYgqiABSWDkLGlKUFqxFSI8XMjWQjBDGGEIv06ajfF3x++Q+YfOU9ao2JWix+nn+/NMlUURkX6friHDJ9rvu2OdBZUnTV/wVV8Zv5OrLx/hwytRdpVC1eVQRKSrR2UpGQc/dmJaUKKSl8z6HAtxMGfBdH10NISjEnU6CuiVx7WC/vlmgSqRFLiYD1JO/XERJt3XrDzWus3XyXtWs36fS7HO1tI9JTJo/uMt25jxSawlZ93S0I14O0GthJt4Ef2cUDukpTCiUsAQXKzhDigLduGT765BbGDvjd7/YZjy1FqYGU4WrJ3/3NFlEI39094btvj5klHZTtIYjQvjeUFZUU03ig6vN4OWezqZFcNn64dlJdzIZt+cL1mprKXEKtWkefP9Euj/DEjTzDvtqlbxrS9MK6T2NiWjZTtcT6KiPodLukSeL7B4ExVdKcgEbb5jAMiaOIKIyw1lKUJUXpa3x6542LRZ6r0ksV6S4NcyIVVJVU6+Z6gnpWt0Jig5B4MOTGx5+w8e6njK7dJO7E9DY2sSd7bM9OmGzfx5bG9bevxhLQ9Ej5Jqg1pD9H0koUmkAWdKOUlZWCv/nrdT75+RoHhyFffmmYTp1ZwZARRhlv3TK8994VNjagKKZ88/WJa7tB4FMlm+aI6iGqzA+Xm576QpSISytss3jjnD3yRWl9YWJtLGFpeZM8L+Vc1hP4+YR63j6c//mi37Qk+jogWF9f4/DQMktStJ631xBSoLx6Escxw+GQTqeD9JKstZa8KEiShCRJ5iXoGvfSgrf7ElE1b3P2xuUskUqlkhgkcX/A9ffe56Nf/pKZ6PDw4SOmkzEb/RBzfESWzNC6pMhSVDcAobxWKAA1H3PhIfFqPsKXaSuIg4QrG5pf/PIG//gfP+Dw5JC739wlTTIwK16tN0zGE37/b3/kvVv/wCcfbzKb5mw/uk2ahhgTIlD16PNjqmy8vBA72qsdFua7uDY+n31/kY2ywpMNJ5ePyxz5xZl3WlwugqtXryGExB4cMJ1O0cZV0xdIkJJAStY21llZWUFJRVGWWGvoxB2SJOE0cM3dkiSh1GXd6dIJqS8yjLWyLzZfq2ryAboUGCQq7rN65Rr94ZCHX93hm8+/5HR/l8exxCTHmOQEbIHshhhZYoT1dtbYO6SgIjMrSmrHkpdGlJREsmR1NefDDyP+8T9+RC9a5Z//eJ9/+197nB7GIAcoIbA2ZHYS8+Vnvj+2NAAADwlJREFUJR/cPOYvf32VX/1qhaPDmN/+dsx4GgEBQkRgK3cWbnui9JJyVQzjTXq4nnSsZ787f+1XacJ4lmv3Jl3n1xtBHMd0Oh3CYDEZyhoD1hIoRb/fx1qYTKdMJhOsNQyHI5SUtbSaFzlFWWCN9XU1X+RuVyr9IpHW30rpetsjCOIuo/WrlEZyejxGJymjOEYWU4o0QQmB6vQoigyka7NrCbE2xNaRYwYoECIHSrCuLqXFIpUhDApWRgVXr0q2NhX/+q9f88ff7bLzQFMaQdyTCBEg6YDRmCzid/9zh0E/59NfDfjrf3+LP9/+llmWok2MEAphAm9laErFT2Nne1H6wI+N9nhavNqoGfS8RzQKQ0YrI+K4w2Qy4ejoiMlkAliMsQwGA+I4RgUKeTSXQl+Kc1hcTCtSSd66fp2ov8LwylusrV0HOWB96y0CGRNRQHrKw2+/Ip0cISSsrGywsnmNw+MZWkesr9+g0x0AAq1zppMjdnfuoosJVidYmyIpQRYEYcbaOmxdEUwmu3z1xUP2tjWmXEWqHpgYoQIkEikFcWDZ3X7El19kbF67zvsfv837H4yZZRMOT2ZOMhWht2fMS7LNIxWXzQ7n4Snjg1q0aHEpCHRZUhQFuiwB6pbAAkHc6bC5sYmQktlsymQyJstygkCRpAmVVBtI1/lRePtWs/r7C3ugXXwTTVKxFt/uWPLRJx9y5ea7qMEWNt5Aqy5vf/grkpun5LNjOuQcjMecTGcIKbj69kd8+qu/4c7dHfIy4OOP/h2j4ToqCDC6YG/3Pv/rN/+dw/175Ok+rhVvCZSoMGV9M2BtPeDu3dvsPxZgVxn2RmgRoJEYK5EiIFCKMLTkmeLedxPufD3lL/56hX/3F++y8/grjiYzrOkAsU/rrshUehPDk8i0De5v0eLHQp1OanG95vG1Oev2zf41SVLKUtPr9ZBSkqYpWTdjyBCgjkV9mSGLzvNtPIm6fTBGkGcp9+99y/E0pbuRMLrex4aC7e3v2N+5R5kcM+oI9nYfMUtTgsEAo2JKFXPr458xSyw7x0d89uVtVldWuXb1CsP1K/zV3/4j/+9//28k2bEPuykxQiNUTtzpEYSK3b1jTk8H6DJGyj5WuggJIVzxXyUk1hQYI0gTOD21pIlmdaXPcBQSRlPytEBrF47mbM8LfV95MqG2aNHix0BgjHGtc6twFmuRQtZkqqREKkUURWxsbLCxsYEQgu3tbQLlrQTNEKiXIgk1fN3WxxIa9yoQCFNw/+63iN0DVm8ZPrr6EbEo2b77JTu3PyMqp6RKw3RMJMAqy2mRUQhLmk349t59bt/+mul4zOr6Bj+zP+PjDz5ktDGkNxpwchpSFBYjNMgcITW93ohBf5OT49ukqabUJcYWGGP9iQl8YoTCWIMUXYzO0EWAkkMGwwghQrKsIEsTrBxR9ZESwuDaWXjn14UOqOcJvWnRosVlIDCNnvcVqoB96TOilFIopZBKMhgM3A8DhZSS/7+9c/uR46jC+O9UdfVcdr2OseMEHAcEEgrwCgiJ/5kHJCSekPKIAEUhBCwRTCC2I9vxrr1z77ocHqq6e2ZIiGF7nQXmW613Pd1ztqum6+tzTp0L0mulrwpSSpd37ce0JA9AfhCgrObn+HXAfm1GEOV4XNMsnrM5/ZSxrEm6oQbM+AixsI4etZbzszMePX7Aw8cfgwaW8QU3Xp/y9Tu3uHF8CzceY6zL9TJVEZMQA4rF+4rlEmLMQakiubu6kuNWVUqolRqMGWNN9osG74CIMQZXWZxz+EhnJZQ3sauF/qtYxoO/9IADXjWq7X7vndEodMH6MUYq50gp4b1nPp8BgveeejRCRAgpFHH7ZufwC3o/2dJkBwWmvN6ldtK2JsuN7+rxCCsGJ8LUVbiwoUmpvMEQEhjjWK42zBcLVCJu4tg0S2aLF8xXS44ngrE5PRR1gM0PHWMIIbJaNcQoWOOwNmdLRfWgqVTvr/MVikFKP6AQhM3G4JssazSqSeaIuGhrCmQC7sO0XjbQ+4ADDniVqDQpwfuSUirZtCz59T4E5osF9WgMwOnZKWdnp1hbgcDx8bV8nvd9fv+llUjdD4Dqi+pK2fROCmgi+iZHY6oiSTEqhEbx0ZBkDJUjxYZEAxRtVg2GGk01KRjUJ2RiMbZGTHk9joBjYAqMgBrYADAajTg5OWI6tUymU9YbRwgRZY1K7NOnxKEp50/Nz4XTswpXHSPUNGvHaqUETVhrEXGQXMmOGiGEnOet/RwccMABVwPGOcdoPGY8HlM7B2RtNKZIjBHvPaDUtcMaS9N4mqZhVI+o6zr3aU+vblF3zSg0dd9G82sWxZDQFLvzrEYqjViNGHKKacJkD2ROSoJCuKI5Bz8TVhuf0H+1em/uk25BDaoWVUNKkaQeN4LGz4hphZhArhqVN8owuTpUwoMEjq8lXruRY1W9V5QxRiYIVe5UqdDWAWhHn9Hmfx1wwAFXBZUxhqqqGI1GhBhRMpm21aK8z+Q5mUw4uX5CVTKeTk6uUY9qUko5P/+L2jdcCvqiy30DXs1hmSU8CiO0tFnhcTRYAqIx1yFQSJr9niTFSvbFSopdTr5RLd/lmCZIAYhls82Q1BGTZblasd7Muf3GNap6hTIjaSqpkIZcwSqWoloJkSW3Xg/ceUux1ZLTsxnLhUdTjZgRGsmhUGXzSYig2XHx+SmVBxxwwFeJqqoqnHNMj45wdc1oPWK5WhG8J6VEs9mwKKb+za/d5Gg6BeD4+BhrKzabzRaZvjpkCmk3z/JPpcS5F74xkqjw1NpQ64aKDYIvkQvlKymSEkYTJgUkeiQFjIAtDwhLwhKwuoG0Bm0yuYmgWhGD4Xy2YrF03H37Nscnf+PpsxneJ9ROEHGoCqpZM9UUwK64+TrcuWsw1YKHDx9w9myO94ZqXKMqGKNAJm8lZ12hvYZ8wAEHXB1U1lomkzGuziZ+4z1PnjxhPp8TY2S+WIAIN2/e5Nq1axwdHQGKMZZQSvOF2JKpIPJy7T8uhl4LFrY7RLZHDEkUowmbPJWfU/maSjdY8eW81MZWQQpI8OBXEFZY9dQkXIoYTVTJY8IKwgyJcwwrjPGYpJAsMTrm54H5PPDd79zh+o3H6McvWDcwnk7BOFJQtNRQTbrAGc/J9TGv3ZiSUuBvHz/gs89mNP6EauIwhuweIJa8/BwaJSZruaJ0rYJzRJpc8YIlBxzwv43q9x/8npT6alEJCCEQYySkhF+viTGyWq+obJU3e6BzA8QYiSGHJrWmfq4i9xWbnwpGlNNPH/DuL36GqRznzx5TaYMmRSUiVdbumtWKp48e8Ktf/pwmJtJyxtREXGywqjz95K/8+rOnuGpEs1oQNs+xbLCiObQpOD75+4KjUeAbt+/ywx99n9niPvfuzajrik1joXWHMGdcL3jzG2PeeefbvHb9Fu+/9xFPHi+AKbW7Buqwhl6T1YZcbFpBK/rCwtIOlVfwBLsyUE0DF9EZ/p7Vrg30kDL//8atReaQBczb9XLhcbetmsraq2bns62D+QQFkmpHst57YspxkKZ8mG3aqKbyU/NGSa8dXSaZ7oZg9Tnru0cEJTUrFk8fZfM/brAmEz8SyyeVIARiWPJ8vcHYCtFITcKmPFFpvWSxXoGAsyBpiaHBSAK1xGA5fabcN2vu33/Bnbfv8uOfTKjcYz788JyUAKmwlWPiam7fNvzkp+/w9rdu8fTpc9599++8eC5Iqcqfoimxu5rJtPhLt6jzEmfzasrc3nobavG3jSFai2oQmfQRJkOsgcsZd2/FDCFy9xq3X7mYTG1X9SWMewiZ+xKqHdNQKdWW6DRNLaRK+1rbSVPbNM72nM8LKr9sQqVsPvV/bTuASlRz4eZC8kk82QfZX59oAk0IMZNjihhVXHl/zg8oWUiaMqnpBhGfIwdUiUGIvub0WeLeveccXb/NW3ff5HxW84cPPwRT5XAotdTjEd/8zhvc/dZdzmcr3nv/CX/80xzVm6iMsoc2ta4SpWuh0i384We1XaRDuQnaFNjhikTT3/xfVDn/PxHZJVIziMx23Pv90y4mtNzdbQD4ECJhsDH3QmXQz2b7aTz4/X4ZwnSfTOm9kfu786qKxm0y3T2247Ms2Ui5YP3lEOouhe5rQnkHqq3Fb3P8E1ECibB1Y5pCpPl4VlRTaUcCUnb78/2cw5tEc3ETwSOS0JQISalkgg8Vf/5ojbq/8L0fGKwbMZ5MWW9qUqOsN0qIwpt33uDTJ5/xpz/e54MPHuL9FLFTFJetgpRos6ZyFEBOH5Xt3bWB5/Uy/K6DE+pVxyXc6r2CMNyDrpc7EC6lM7FsWQ5XG+0DtNo/oEkRI70fTvtFsTO6HY12Sx9sFSnZC+DZ8i9cZH5akz4v/uI71FaD6/7a1m9bXaO0J/eWoFrSNSXtU5HuWtnepCp/R9o52SY1cbhqirFw+uyM3/72IZ88nCNyzHKVN+iMqRmPp4Q05ze/u8e4Tjx5vGS+OGI8vsUm5EjZnRGokLOlbDepgkW0NE15CZPqZda3bGl9Q5qS/841fLlA+ntxILSyhuRAkf1G3heXN3Sfrqs+7k7XGdi4lUH7J2WC6z4WgUr2tBEpO0yZpmTrJv6cC+vM4LzoOymt/0l7z4eYC+qo2v7T5sRTnPHbGnQ/+6YdoUruTdWSp1RlHgTtuoHmlNTchKT3/ezTvkAhMlcIt33AGJoghCaBjkn+GB8UYzzej0jkjSQRQwiOR482WJNo1hNSqvHBkSKoSO9iyYy9ZTq1zz1TSvP1jo2LYkfCEKrAtkYxmGqxbeYPg8E37tpxD32NXILMQcddOGQgmTt39oCXmfceLi6n48ItWXmFdsSS/XKGre7eOwy6p2puS9n9ZW9O83+63bgvEPOl0J442t29NiTq8+anG69I0WABLD3lF+27rdav5bRWpv7zvLdkm0+yWyaTlM06wZgjjNT4RlExiHEYsUUjtohM2DSmdM00mKoiYRBbzhBD2jHG9gkzd556GVyOg+WAA/6fsc1z/b4SQOWc21+rVx/aXuaXPWZKn3t5WR9j5xDYkb77SOm8yt2ZUq7HFDM0l9rLJKiStdftBnmG407utk6dWzwLfX7Xrt/63zHOWu/Ef8PHecAB/21oN+bbiCcF/gGCjhuY4qy85wAAAABJRU5ErkJggg==;" parent="1" vertex="1">
                    <mxGeometry x="960" y="40" width="266.72" height="262" as="geometry"/>
                </mxCell>
                <mxCell id="53" value="上述代码稍作改动后" style="text;html=1;align=center;verticalAlign=middle;resizable=0;points=[];autosize=1;strokeColor=none;fillColor=none;fontFamily=Helvetica;" parent="1" vertex="1">
                    <mxGeometry x="537" y="1350" width="120" height="20" as="geometry"/>
                </mxCell>
                <mxCell id="55" value="&lt;font style=&quot;font-size: 14px;&quot;&gt;改动后，在foo中加入了name的定义和赋值，在bar中有了对name的打印&lt;br&gt;&lt;br&gt;左边代码执行过程：&lt;br&gt;1、在执行前，会先进行预解析，生成GO对象，对象包含全局对象，和指向自身的window&lt;br&gt;当发现函数声明 function foo()时会生成一个函数对象 （图上堆中的0xa00）并在GO上加入foo属性，将其地址赋给GO的foo属性，&lt;br&gt;解析到 变量生命fn时，不赋初值，默认undefined，预解析完成&lt;/font&gt;" style="text;html=1;align=left;verticalAlign=middle;resizable=0;points=[];autosize=1;strokeColor=none;fillColor=default;fontFamily=Helvetica;gradientColor=none;labelBackgroundColor=default;labelBorderColor=none;" parent="1" vertex="1">
                    <mxGeometry x="879" y="990" width="820" height="110" as="geometry"/>
                </mxCell>
                <mxCell id="56" value="&lt;b style=&quot;background-color: rgb(255, 255, 255);&quot;&gt;2、执行代码时：先生成全局执行上下文，包含VO 指向GO,随后开始执行&amp;nbsp;&lt;span style=&quot;font-size: 14px;&quot;&gt;var&lt;/span&gt;&lt;span style=&quot;font-size: 14px;&quot;&gt; &lt;/span&gt;&lt;span style=&quot;font-size: 14px;&quot;&gt;fn&lt;/span&gt;&lt;span style=&quot;font-size: 14px;&quot;&gt; = &lt;/span&gt;&lt;span style=&quot;font-size: 14px;&quot;&gt;foo&lt;/span&gt;&lt;span style=&quot;font-size: 14px;&quot;&gt;()，会执行foo(),&lt;br&gt;执行foo()的过程是，在执行前：根据 GO中 foo指向的foo函数对象 ,创建一个函数执行上下文（FEC）,&lt;br&gt;&lt;/span&gt;&lt;span style=&quot;font-size: 14px;&quot;&gt;FEC中包含三部分内容&lt;/span&gt;&lt;br style=&quot;font-size: 14px&quot;&gt;&lt;span style=&quot;font-size: 14px;&quot;&gt;第一部分：在解析函数成为AST树结构时(预编译阶段发生的事),会创建一个Activation Object(AO)：图中AO对象foo&lt;/span&gt;&lt;br style=&quot;font-size: 14px&quot;&gt;&lt;span style=&quot;font-size: 14px;&quot;&gt;&#9;&lt;/span&gt;&lt;span style=&quot;font-size: 14px;&quot;&gt;&#9;&lt;/span&gt;&lt;span style=&quot;font-size: 14px;&quot;&gt;&amp;nbsp;AO中包含形参,arguments,函数定义和指向&lt;i&gt;函数对象定义的变量&lt;/i&gt;；&lt;/span&gt;&lt;br style=&quot;font-size: 14px&quot;&gt;&lt;span style=&quot;font-size: 14px;&quot;&gt;第二部分：作用域链：由VO(在函数中就是AO对象)和父级VO组成,查找时会一层层查找；&lt;/span&gt;&lt;br style=&quot;font-size: 14px&quot;&gt;&lt;span style=&quot;font-size: 14px;&quot;&gt;第三部分：this绑定的值：这个我们后续会详细解析；&lt;br&gt;&lt;/span&gt;&lt;span style=&quot;font-size: 14px;&quot;&gt;&lt;br&gt;在创建foo的Ao时（&lt;/span&gt;&lt;span style=&quot;font-size: 14px;&quot;&gt;在解析函数成为AST树结构时&lt;/span&gt;&lt;span style=&quot;font-size: 14px;&quot;&gt;）发现 bar是个函数，就会创建函数的函数对象 0xb00，&lt;br&gt;包含bar的父级作用域与函数的代码执行体，将foo的Ao对象的bar 指向函数对象0xb00，&lt;br&gt;return bar 。所以执行 &lt;/span&gt;&lt;span style=&quot;font-size: 14px;&quot;&gt;var&lt;/span&gt;&lt;span style=&quot;font-size: 14px;&quot;&gt;&amp;nbsp;&lt;/span&gt;&lt;span style=&quot;font-size: 14px;&quot;&gt;fn&lt;/span&gt;&lt;span style=&quot;font-size: 14px;&quot;&gt;&amp;nbsp;=&amp;nbsp;&lt;/span&gt;&lt;span style=&quot;font-size: 14px;&quot;&gt;foo&lt;/span&gt;&lt;span style=&quot;font-size: 14px;&quot;&gt;(),就相当于把 bar函数的函数对象地址赋给了 fn, &lt;br&gt;GO中的fn 改为bar的函数对象的地址，此时foo()执行已完成，删除foo的FEC，&lt;/span&gt;&lt;span style=&quot;font-size: 14px;&quot;&gt;&lt;br&gt;&lt;/span&gt;&lt;span style=&quot;font-size: 14px;&quot;&gt;&lt;br&gt;之后全局执行上下文又执行了fn()，在执行前：&lt;/span&gt;&lt;span style=&quot;font-size: 14px;&quot;&gt;根据VO--&amp;gt;GO中&amp;nbsp;&lt;/span&gt;&lt;span style=&quot;font-size: 14px;&quot;&gt;fn&lt;/span&gt;&lt;span style=&quot;font-size: 14px;&quot;&gt;指向的bar的&lt;/span&gt;&lt;span style=&quot;font-size: 14px;&quot;&gt;函数对象 生成bar的FEC&lt;br&gt;&lt;/span&gt;&lt;span style=&quot;font-size: 14px;&quot;&gt;第一部分：在解析函数成为AST树结构时(预编译阶段发生的事),会创建一个Activation Object(AO)：图中AO对象bar&lt;/span&gt;&lt;br style=&quot;font-size: 14px&quot;&gt;&lt;span style=&quot;font-size: 14px;&quot;&gt;&lt;/span&gt;&lt;span style=&quot;font-size: 14px;&quot;&gt;&lt;/span&gt;&lt;span style=&quot;font-size: 14px;&quot;&gt;&amp;nbsp;AO中包含形参,arguments,函数定义和指向函数对象,定义的变量；(因为里面没有定义，所以AO是空的)&lt;/span&gt;&lt;br style=&quot;font-size: 14px&quot;&gt;&lt;span style=&quot;font-size: 14px;&quot;&gt;第二部分：作用域链：由VO(在函数中就是AO对象)和父级VO组成,查找时会一层层查找；&lt;/span&gt;&lt;br style=&quot;font-size: 14px&quot;&gt;&lt;span style=&quot;font-size: 14px;&quot;&gt;第三部分：this绑定的值：这个我们后续会详细解析；&lt;br&gt;&lt;/span&gt;&lt;/b&gt;&lt;span style=&quot;font-size: 14px;&quot;&gt;&lt;b style=&quot;background-color: rgb(255, 255, 255);&quot;&gt;&lt;br&gt;之后开始执行执行体console.log(&quot;bar&quot;，name)，name，在bar的AO中没有name属性，因此会沿着作用域链向上查找&lt;br&gt;&lt;br&gt;&lt;br&gt;&lt;/b&gt;&lt;br&gt;&lt;/span&gt;" style="text;html=1;align=left;verticalAlign=middle;resizable=0;points=[];autosize=1;strokeColor=none;fillColor=none;fontFamily=Helvetica;" parent="1" vertex="1">
                    <mxGeometry x="877" y="1160" width="760" height="400" as="geometry"/>
                </mxCell>
                <mxCell id="57" value="" style="rounded=0;whiteSpace=wrap;html=1;" parent="1" vertex="1">
                    <mxGeometry x="27" y="500" width="210" height="470" as="geometry"/>
                </mxCell>
                <mxCell id="58" value="ECStack调用栈" style="text;html=1;align=center;verticalAlign=middle;resizable=0;points=[];autosize=1;strokeColor=none;" parent="1" vertex="1">
                    <mxGeometry x="97" y="450" width="100" height="20" as="geometry"/>
                </mxCell>
                <mxCell id="59" value="" style="rounded=0;html=1;labelBackgroundColor=none;labelBorderColor=none;fontColor=default;whiteSpace=wrap;" parent="1" vertex="1">
                    <mxGeometry x="270" y="500" width="510" height="470" as="geometry"/>
                </mxCell>
                <mxCell id="60" value="堆内存" style="text;html=1;align=center;verticalAlign=middle;resizable=0;points=[];autosize=1;strokeColor=none;" parent="1" vertex="1">
                    <mxGeometry x="515" y="440" width="50" height="20" as="geometry"/>
                </mxCell>
                <mxCell id="61" value="&lt;font style=&quot;font-size: 16px&quot;&gt;String&lt;br&gt;setTimeout&lt;br&gt;window&lt;br&gt;foo: 0xa00&lt;br&gt;fn: 0xb00&lt;/font&gt;" style="rounded=0;whiteSpace=wrap;html=1;align=left;" parent="1" vertex="1">
                    <mxGeometry x="300" y="530" width="120" height="110" as="geometry"/>
                </mxCell>
                <mxCell id="62" value="GO对象" style="text;html=1;align=center;verticalAlign=middle;resizable=0;points=[];autosize=1;strokeColor=none;" parent="1" vertex="1">
                    <mxGeometry x="300" y="510" width="60" height="20" as="geometry"/>
                </mxCell>
                <mxCell id="63" value="" style="rounded=0;whiteSpace=wrap;html=1;align=left;" parent="1" vertex="1">
                    <mxGeometry x="47" y="840" width="160" height="120" as="geometry"/>
                </mxCell>
                <mxCell id="64" value="GEC(全局执行上下文)" style="text;html=1;align=center;verticalAlign=middle;resizable=0;points=[];autosize=1;strokeColor=none;" parent="1" vertex="1">
                    <mxGeometry x="47" y="810" width="130" height="20" as="geometry"/>
                </mxCell>
                <mxCell id="65" value="" style="rounded=0;whiteSpace=wrap;html=1;align=left;" parent="1" vertex="1">
                    <mxGeometry x="460" y="680" width="120" height="60" as="geometry"/>
                </mxCell>
                <mxCell id="66" value="bar函数对象0xb00" style="text;html=1;align=center;verticalAlign=middle;resizable=0;points=[];autosize=1;strokeColor=none;" parent="1" vertex="1">
                    <mxGeometry x="470" y="650" width="110" height="20" as="geometry"/>
                </mxCell>
                <mxCell id="67" value="VO: GO" style="rounded=0;whiteSpace=wrap;html=1;align=left;" parent="1" vertex="1">
                    <mxGeometry x="57" y="850" width="120" height="40" as="geometry"/>
                </mxCell>
                <mxCell id="68" value="开始执行代码&lt;br&gt;var fn = 0xb00" style="rounded=0;whiteSpace=wrap;html=1;align=left;" parent="1" vertex="1">
                    <mxGeometry x="57" y="900" width="120" height="50" as="geometry"/>
                </mxCell>
                <mxCell id="69" value="bar: 0xb00" style="rounded=0;whiteSpace=wrap;html=1;align=left;" parent="1" vertex="1">
                    <mxGeometry x="460" y="530" width="120" height="110" as="geometry"/>
                </mxCell>
                <mxCell id="70" value="AO对象" style="text;html=1;align=center;verticalAlign=middle;resizable=0;points=[];autosize=1;strokeColor=none;" parent="1" vertex="1">
                    <mxGeometry x="460" y="510" width="60" height="20" as="geometry"/>
                </mxCell>
                <mxCell id="71" value="" style="rounded=0;whiteSpace=wrap;html=1;align=left;" parent="1" vertex="1">
                    <mxGeometry x="300" y="680" width="120" height="60" as="geometry"/>
                </mxCell>
                <mxCell id="72" value="foo函数对象0xa00" style="text;html=1;align=center;verticalAlign=middle;resizable=0;points=[];autosize=1;strokeColor=none;" parent="1" vertex="1">
                    <mxGeometry x="300" y="650" width="110" height="20" as="geometry"/>
                </mxCell>
                <mxCell id="73" value="" style="rounded=0;whiteSpace=wrap;html=1;align=left;" parent="1" vertex="1">
                    <mxGeometry x="620" y="525" width="120" height="110" as="geometry"/>
                </mxCell>
                <mxCell id="74" value="AO对象" style="text;html=1;align=center;verticalAlign=middle;resizable=0;points=[];autosize=1;strokeColor=none;" parent="1" vertex="1">
                    <mxGeometry x="620" y="505" width="60" height="20" as="geometry"/>
                </mxCell>
                <mxCell id="75" value="代码的执行体" style="rounded=0;whiteSpace=wrap;html=1;align=left;" parent="1" vertex="1">
                    <mxGeometry x="369.5" y="1250" width="115" height="20" as="geometry"/>
                </mxCell>
                <mxCell id="76" value="parentScope: GO" style="rounded=0;whiteSpace=wrap;html=1;align=left;" parent="1" vertex="1">
                    <mxGeometry x="372" y="1230" width="115" height="20" as="geometry"/>
                </mxCell>
                <mxCell id="77" value="&lt;span style=&quot;font-size: 15px; background-color: rgb(255, 255, 255);&quot;&gt;&lt;b style=&quot;&quot;&gt;闭包由两部分组成：一部分是函数本身，另一部分就是函数可以访问的自由变量&lt;br&gt;自己瞎猜的，可能不对：&lt;br&gt;所谓闭包，就是父级函数的AO本该销毁，但是却没有销毁，父级函数内部的函数的函数对象作为变量被传到了父级函数外,在全局变量里有一个属性指向该函数对象，而函数对象中的父级作用域(在进行词法解析的时候)又指向父级函数的AO，其父级AO由于仍有对象（我猜函数对象0xb00）指向着它，且能从GO出发访问到他，导致其父函数的AO没有销毁&lt;/b&gt;&lt;/span&gt;" style="whiteSpace=wrap;html=1;fontFamily=Helvetica;align=left;" parent="1" vertex="1">
                    <mxGeometry x="880" y="1560" width="760" height="230" as="geometry"/>
                </mxCell>
                <mxCell id="78" value="" style="shape=flexArrow;endArrow=classic;html=1;fontFamily=Helvetica;" parent="1" target="46" edge="1">
                    <mxGeometry width="50" height="50" relative="1" as="geometry">
                        <mxPoint x="267" y="1580" as="sourcePoint"/>
                        <mxPoint x="507" y="1390" as="targetPoint"/>
                    </mxGeometry>
                </mxCell>
                <mxCell id="79" value="为什么叫做词法闭包呢，因为确定bar的函数对象是在词法解析的时候就已经确定了，&lt;br&gt;这时候就已经确定了他的上级作用域" style="text;html=1;align=left;verticalAlign=middle;resizable=0;points=[];autosize=1;strokeColor=none;fillColor=none;fontFamily=Helvetica;fontStyle=1" parent="1" vertex="1">
                    <mxGeometry x="27" y="1585" width="470" height="30" as="geometry"/>
                </mxCell>
                <mxCell id="80" value="" style="shape=image;verticalLabelPosition=bottom;labelBackgroundColor=#ffffff;verticalAlign=top;aspect=fixed;imageAspect=0;image=data:image/png,iVBORw0KGgoAAAANSUhEUgAAAMEAAABvCAYAAABVVKQCAAAQdklEQVR4nO2dfUxUV97HP/toHtcKAyICYlFeho2LWh0bFXyqLYMTwaBbKwvR2j82ESV06ya7jYbMdhpnO0sgbpNtC0FosslT264sXX2sAQww7Lb7iGLasVrZRoY3qS1vAjNArU3N8/wxb3eGtwEHGLznk5Aw99zzu5fhfs/5nXPP7/x+smrVqv9DIJAx/zHXNyAQzDVCBALZI0QgkD1CBALZI0QgkD1CBALZI0QgkD1CBALZI0Tg5+xQp3P+d9v5FfCrjIOcz17LDq9qKngt+yBvPjXdK9vqn8+IAqJ483cHeV+tmK4xv0aIQCB7hAj8nE/6LGDtpwVo6bfCgJVPZuXKVr4egJF+C2BhwArdfdZZufJs8xOfrR3aVERiOjTpX8Y67rFsonX7iXCUt37ElTNltt8j9aw9vIxO/XVCHOcMNmJ6S8eDSS9ewEvGp/kyv4ftedsIBrBcpnTfQbocp+TWostQOmu0VUTzXrGrbl9DGJuTFAw2nKU5IYvNQVau5T9FVY3tvtPOadkcZK9sPov+yInpfU++Inwt7x8KofZPn/IX6fGntnN+az9vlnXybHY6S69+CprtxALQyf/Yz9+hTue3cW28WXbLKaqxjskB3/UEn1+nizhCNrkOLQoLh9brTlEoDm2kX5/KFX0qV/Qf0RW7n+hNUiNxJOh2cf9de3nwFla4lU+Ekj15YXyqjkavPktb0DY0uY6yAl7a+Bl6dbTtp8JMTEYtKkndzcur0FeYCU7KIrQmmo/NCuKfywZAVaplc+9Ze30D15ZnccyQPa2vyWd0W+kmiCfDJz4tVrOBgTMf8PyfLvKZNYqddr/+k1ttjChieNZZX8GzcQpGWjplJQDwqTtUxreNw0QkOB6OZIJ/Bm3GMucZ1jOSXoIy+lthSViym5Wuixl0fzN++fhYuZa/ExMAJ/jSDEtXOu7lBO9JW+7iz2gjjAiNpO7f7OWWy9QUS+0WsE5p5mNn/TKqaswEJyS7erQJOPxOJZWVnj/lnFR7+WeNi81FAWy9gn3wvCM0yM1laq25yB+6bX/jP1usLAmxd2fdt6jtULBmrX2wGx7FGkUntcbH0+WZiIW+NPbgRhNDhzeiAKyRyYTShPkbyQmbikhMj3OrM9Qn/dRC/+euT9Yzqdzy0b2pStvZo5QesdI33slSNFEsRckeYzt7pMctPV5d991f7+Zdr+9yKlj5ekDB+nDYERpCdwc8GQ4tOPz4yfnL7U5+sTWKHcZbsDYGTJ+4u1Yywaci4Jt6+gZPELIJHoQlwO0ilz8fqWdtehxdF1Nptz/oikPVRPn0BsYmwnCDPUozH6sdPUUBLxnTpmBBWndqHH6nkhdiPY8Oc+1UJq8bp2FQQku/lZ2hUTwbBzcv9LN+rYK4EAXdt62AF9OZN9pp1Wzg2fBOiIOvLsivFwBfi4B6Bm+/TGhYNsE/66bzrXqP8mHuO0aqm4pIiPXsCWYQSw/f2n9VlWYR421PUFNPc66WPaUFmKYxGJ65nsCBgqUD7fyhG97cu4H1WBno9rZuJ+dNG/jt3h2MDHzBi17Xe7zw+RTpg+pLjGzZT0z/ddzalW90dLYGEHO4mkRdNYnP3KOt1ddXH5subRVtQds4YmxHZ2xne+9l2ryuXUbVPttgWGevrzO2z/3AGNv06RLVBrjdCXRycyCKWIWFr6fwMNsGyAq6b3fO2H36O76bIhXMT8abapUR4mWZrFHw2t4NYPpCtgIAn48JBPMDBa9lp/O0Auj4lOdlOC0qRbhDAtkj3CGB7BEiEMgeIQKB7BEiEMgeIQKB7JkZEWwqsr0V1lWTqKsgPHJGrjJlFqVWkKir9li+PcvkvoLx3IukzPZ1j1rpKB/B7T13ygg3PY9NmYd8WH6Hjkt3uHny4SNZmitm4D1BNtEeC+Vmh2TCj51g8b9m+7rzgJQRbr7wA5cLQymTHq9bQtX+O/y+eCFluYumZTr75ADbWMYbu5a4255H+L4niIxiiceSaH/hQXUGV/RyE8lDPjx6D64s5UDd6NLjuSu5HNpN3dHpWY9f/h3Wf/903goAZqIniFhG4JgF2UTrdnH/XUfQjH0pdV8Bt6rrbS5UwnVMfbtQbQkAYKjRXubAIx7BUa44VE2CY7lyejUR6XjUl4Z1DtMmuQcHbjbczkkm/NjLUHGJxYcdNlrcw0gnIcXwOtokybdi6ZeUKsk/l8NWZ+hmNeojtc56v8HMt0kq4umgvAIyM1a7nZNTeopMZ5zEEFfzT5JXIzF/dMTWUr++YJy7W8CBumA6UkbIPj1/W/NHwWc9gcPftj2kcSQ4xgSHpuBxxu5HFXrJFn55sYXALRmuVfGbikhMD6ftXUd4ZqpTINYzqVzRF9A2CF0XR5dDGe2OkM5x7j0hpBGTvZ6pEWIOF0lW5AcQc9gR9llA22AcUaleRrzlvoI2qZ9y9auo1a+iruhwK84pzWFrb7WtTF3C1eWpXDC4on8CkpT055dw1bKaTE0/hnwTw8qfk4NNJJnLTRjstg0NsDXvFXIk9gs3DE7eUp9ehDnoPupZH6j4Bz4TgcPVuHKxBVtLaX8Yz0yhbRlsxOQ4//PrdBHO4kiAZMKfiWOosWhUC/7oZLNiSwBd/3IF9D+oLqJt0D1e2hX2Wc/g7WECQ5Vj2PJESb5mNc0Vb1MyZvlOVMoOyu2tOpjJq+kgIGGra+Bs/l9ny95c8z51krqZSYFux+q073PVshqVM7b6IVGh0PPNeL2Ag4X0WL4jzJs/yQ1v7fs382QBnZLFwTDS4xmk4yskwT6ziSacFawm3niKTOlxN3dpIobob56o/EfCgiYqd7CAzj5YF/kQ8O6BLiy+Q1bcE1wuXEXKGGON+cQ8EYGZ+4OweMbsB7A4AnD2MjbRzQ4dlKvH7ikm904CCYkHnGOAaELcHvqF9FggbFI79hb9C+9b9OO5qzhunx6tU64i5bTXVf2OWX5ZZn/YsPvho2Jvx8PmgkSkF00QOVvP/X4ku114i21Xi4hn9DgmCRel7iJisJFvH3kWyUxHL8Rv3Gn7qHmRCxmrXcU1V7llWU1m6c5p2K7FZIZ4jeudQ4rhv4i3mCh37pZha+HDIiebv/+RsKAn6DFP9R68te/fzGJPUEb7xY0kOmZvWj+iqXW/14H2D6ozMFGBSlftPOY5e2Q98xFduv0k6va7l3vucnG4mhjJDJD1TCpNh6oltlto0nuz6dfklBypRmVMxWhMBToozzex2+mzm8nbV0L+uRx7uY3hhhL2aid/IkuOvAqlp9AaVWjBZl8tHTfA8S+CyXphhEIUHB/P0NEHKC2L+es8d2umi4gneOx5yIfld1n375WsH3Oa1FYeVjc9l6aw+A5pvePZnh+ItUOPPQs4cHoZJA7w4RiDjMLiu2zrC5+2T9/c+wSK5T8+2i3OMUIEcqBuCev//p9sOzp67VBa6DLemOaSCYCy15dyObR7Xq8dEu6QQPaInkAge3wmgthYr+c7BQK/QvQEAtkjRCCQPUIEAtkjROAFEYYbrs14Swt8ajvF8DpG4ynbz7SWT3hJZBG1Gj2PnBvER6jXVHB+jbcJWGYWIQIv6NI+hV4dTWmD77crrNOetMcCDPnctpNAPecTw7l6RccjpkTwGcavLtGVcIISP4g/FyJ47EnGkLgFmorQzqDOpk4ZOTWNRCQWMc3ITp/hZ0upPbJE4pldJosYR5FbdsqpZ68cbDDwltYV8OOezkmaudIL3GxPse5kaF7kQp6KAMdnSWgljBG66XlOZAZbaeSPX3nGYvhBxs8hHVV3q0lbk8zpUfc3e/hRT2D/0pxZIqPROwWQTdq5LJY2GFwZJNnGETf/fJLslRlhXMuPdtqWCiDCcIM9yy9Tai8rbYDNedLslhOg+YBjUtsVPd7XnZSdnM5T8W2FPTRTXU2zUhJ+qXmR3yTB1XxbebkZsJgwSERyNCqO4c76cdyguc/4ebqzhYCo5Dkdq/hPT5CbxeYgMx/vGyMlkqPM+eCWUVWcTHze06jALhTP7JVZbF+ZDc7oWts/qKrGM9yzAE2SgrYKVwvYpX2ba+e0rMsFUzETEvHcOmh429XyF5/lmsa7upPhiA8wOO3UcrTi5xg1W0nBDM8pCbCYqbVfu+R6B5kZIcSDfTl1MqsU0NXp3srGx8fz5z+vh++bAEisrLQVfN8E6ZUcSHede8BRxg/wvce5T66n8skf4PsmEtMrgSZ4ch+plftsv7OeSmf9JlDt46e/XkThO++4LjB0j+HAZcTDnI1X/EYEESvDwPKlM6/YKCQ5x6bOCd7Lj+JYnhadUcvoRHxW+iYMUxyfFcsVBCsddl14nw5qEnq7GW+Zf93dfrRJSnZqoK4GcjbadqJwRakpWTbG1h/Nzc3s3n2Tl4xp9ElcN1VpO9t7XW7iWBk/be5OgatufC06TQ+l+w6ywlH/H8kcc7hYUiyX+W+pAACGOukigVWBwByNWfxGBF13eyBhghOCwlgBLn81Pmz0lzwRNQd5y/7PjjDc4IixFpxCUBDqFqaoJNSr2FwbnuMLn7I8nBRwCiFlZQhgj0Fu7meY1WzNO4UxD2xBNbWSymbuDcGyaVx21jJ+BkYRQTemORy0+8+YoPgz2oK2kTlWQrziz2hDyXZnWTZpGiWDDWenlVa16640B7Et8XeM5gNncu4IQxoxo5J6j43pupngpFdI00x01nOc/OvUk3jX/cPMcJCKTKef7r7DRM4vVdBQYh8vvIp6VKxyPXesEKGY5nz8qIyfXlJTT7NFyR5v3qkELiNg6B7T7Ih9gt/0BHCC99TwklHqWjhakzHKzGfRe9v6esxyOLp1h4BMR6KhtJ0jxnbJdR1jBM8Zqyx0xizXbEfxTvTUostrZ3Mekvre5D322HgLeximY3an5n32AhfyTmHMsJ0x3FDCXrs4S/5mYndeDkY3Z9o9cP90Zwu/TMzg6Ff1TCVupktbRZsxy/mdDDZcpk25zsvaZVTtA85pbd+VnbF6TNvAvWJO31/4LJ4gNjaW1tZZyskqAGy7z+3udY9Hzik9RSbSadRkDJoTrO0s4Pk5nIYck0A95zXLqPr7y1MSqK/xH3dIMEWUrF7ueWwnKiUM97ZLjtWjvdIICS9jGHt/zDkimxLNFrquzK0AQPQE8xvPF2lMsFNFZBG1a+/xxxr/WDqhXlPBMYr8oncSIhDIHuEOCWSPCLQXyB7REwhkjxCBQPYIEQhkj09FkH2yj45Ld0ZnSRQI/JgZGRg/Dpu0CuTDjLhDx78InvebtArkgxgTCGSPEIFA9syMCMwLsMY9oHBGjAsEvmVmRFC3hPWFC0i7dIeOYl8kPRIIZo6ZCao5aqUjZQFv7FolywzpgvnFzI0J+hYKAQjmBWJgLJA9QgQC2TMjIijcMIi1149i+AWCCfDpk5p9so/fJ34HBHM2VyyZEMwPRFCNQPaIMYFA9ggRCGSPEIFA9ggRCGSPEIFA9ggRCGSPEIFA9ggRCGSPEIFA9ggRCGSPEIFA9ggRCGSPEIFA9ggRCGSPEIFA9ggRCGSPEIFA9ggRCGSPEIFA9ggRCGSPEIFA9ggRCGSPEIFA9ggRCGSPEIFA9ggRCGSPEIFA9ggRCGSPEIFA9ggRCGSPEIFA9vw/TCeB0hIrNfcAAAAASUVORK5CYII=;" parent="1" vertex="1">
                    <mxGeometry x="124" y="1660" width="193" height="111" as="geometry"/>
                </mxCell>
                <mxCell id="81" value="简单来说，上述函数也是一个闭包，1. 有函数，2函数能访问其外部外层作用域的变量" style="text;html=1;align=center;verticalAlign=middle;resizable=0;points=[];autosize=1;strokeColor=none;fillColor=none;fontFamily=Helvetica;" parent="1" vertex="1">
                    <mxGeometry x="17" y="1770" width="470" height="20" as="geometry"/>
                </mxCell>
                <mxCell id="82" value="&lt;div style=&quot;font-size: 15px;&quot;&gt;&lt;font style=&quot;font-size: 15px;&quot;&gt;&lt;i style=&quot;background-color: rgb(0, 0, 0); font-size: 15px;&quot;&gt;最终总结：&lt;/i&gt;&lt;/font&gt;&lt;/div&gt;&lt;div style=&quot;font-size: 15px;&quot;&gt;&lt;font style=&quot;font-size: 15px;&quot;&gt;&lt;i style=&quot;background-color: rgb(0, 0, 0); font-size: 15px;&quot;&gt;一个普通的函数function，如果它可以访问外层作用域的自由变量，那么这个函数就是一个闭包；&lt;/i&gt;&lt;/font&gt;&lt;/div&gt;&lt;div style=&quot;font-size: 15px;&quot;&gt;&lt;font style=&quot;font-size: 15px;&quot;&gt;&lt;i style=&quot;background-color: rgb(0, 0, 0); font-size: 15px;&quot;&gt;从广义的角度来说：JavaScript中的函数都是闭包；&lt;/i&gt;&lt;/font&gt;&lt;/div&gt;&lt;div style=&quot;font-size: 15px;&quot;&gt;&lt;font style=&quot;font-size: 15px;&quot;&gt;&lt;i style=&quot;background-color: rgb(0, 0, 0); font-size: 15px;&quot;&gt;从狭义的角度来说：JavaScript函数中一个函数，如果访问了外层作用域的变量，那么它是一个闭包；&lt;/i&gt;&lt;/font&gt;&lt;/div&gt;" style="text;html=1;align=left;verticalAlign=middle;resizable=0;points=[];autosize=1;strokeColor=none;fillColor=none;fontFamily=Helvetica;fontStyle=1;fontSize=15;fontColor=#FFFFFF;" parent="1" vertex="1">
                    <mxGeometry x="40" y="330" width="700" height="90" as="geometry"/>
                </mxCell>
                <mxCell id="47" value="&lt;p style=&quot;text-align: left ; color: rgb(212 , 212 , 212) ; background-color: rgb(30 , 30 , 30) ; font-size: 14px ; line-height: 19px&quot;&gt;&lt;span style=&quot;color: rgb(106 , 153 , 85)&quot;&gt;闭包（英语：Closure），又称&lt;b&gt;&lt;i&gt;&lt;u&gt;词法闭包&lt;/u&gt;&lt;/i&gt;&lt;/b&gt;（Lexical Closure）或&lt;b&gt;&lt;i&gt;&lt;u&gt;函数闭包&lt;/u&gt;&lt;/i&gt;&lt;/b&gt;（function closures）&lt;font face=&quot;consolas, courier new, monospace&quot;&gt;；&lt;/font&gt;&lt;/span&gt;&lt;/p&gt;&lt;div style=&quot;text-align: left ; color: rgb(212 , 212 , 212) ; background-color: rgb(30 , 30 , 30) ; font-family: &amp;quot;consolas&amp;quot; , &amp;quot;courier new&amp;quot; , monospace ; font-size: 14px ; line-height: 19px&quot;&gt;&lt;span style=&quot;color: #9cdcfe&quot;&gt;是在支持&lt;/span&gt; &lt;span style=&quot;color: #9cdcfe&quot;&gt;头等函数&lt;/span&gt; &lt;span style=&quot;color: #9cdcfe&quot;&gt;的编程语言（如C语言就不支持）中&lt;/span&gt;，&lt;span style=&quot;color: #9cdcfe&quot;&gt;实现词法绑定的一种技术&lt;/span&gt;；&lt;/div&gt;&lt;div style=&quot;text-align: left ; color: rgb(212 , 212 , 212) ; background-color: rgb(30 , 30 , 30) ; font-family: &amp;quot;consolas&amp;quot; , &amp;quot;courier new&amp;quot; , monospace ; font-size: 14px ; line-height: 19px&quot;&gt;(即函数是第一公民，可以作为其他函数的参数和返回值)，闭包在词法绑定的时候就已经确定&lt;/div&gt;&lt;div style=&quot;text-align: left ; color: rgb(212 , 212 , 212) ; background-color: rgb(30 , 30 , 30) ; font-family: &amp;quot;consolas&amp;quot; , &amp;quot;courier new&amp;quot; , monospace ; font-size: 14px ; line-height: 19px&quot;&gt;闭包在实现上是一个结构体（JS中就是一个对象），它存储了一个函数和一个关联的环境（相当于一个符号查找表）；&lt;/div&gt;&lt;div style=&quot;text-align: left ; color: rgb(212 , 212 , 212) ; background-color: rgb(30 , 30 , 30) ; font-family: &amp;quot;consolas&amp;quot; , &amp;quot;courier new&amp;quot; , monospace ; font-size: 14px ; line-height: 19px&quot;&gt;&lt;b&gt;&lt;u&gt;闭包的核心：闭包跟函数最大的区别在于，当捕捉闭包的时候，它的&lt;i&gt;自由变量&lt;/i&gt;会在捕捉时被确定，&lt;/u&gt;&lt;/b&gt;&lt;/div&gt;&lt;div style=&quot;text-align: left ; color: rgb(212 , 212 , 212) ; background-color: rgb(30 , 30 , 30) ; font-family: &amp;quot;consolas&amp;quot; , &amp;quot;courier new&amp;quot; , monospace ; font-size: 14px ; line-height: 19px&quot;&gt;&lt;b&gt;&lt;u&gt;这样即使脱离了捕捉时的&lt;i&gt;上下文&lt;/i&gt;，它也能照常运行；&lt;/u&gt;&lt;/b&gt;&lt;/div&gt;&lt;div style=&quot;text-align: left ; color: rgb(212 , 212 , 212) ; background-color: rgb(30 , 30 , 30) ; font-family: &amp;quot;consolas&amp;quot; , &amp;quot;courier new&amp;quot; , monospace ; font-size: 14px ; line-height: 19px&quot;&gt;&lt;br&gt;&lt;/div&gt;&lt;div style=&quot;text-align: left ; color: rgb(212 , 212 , 212) ; background-color: rgb(30 , 30 , 30) ; font-family: &amp;quot;consolas&amp;quot; , &amp;quot;courier new&amp;quot; , monospace ; font-size: 14px ; line-height: 19px&quot;&gt;MDN的解释&lt;/div&gt;&lt;div style=&quot;text-align: left ; color: rgb(212 , 212 , 212) ; background-color: rgb(30 , 30 , 30) ; font-family: &amp;quot;consolas&amp;quot; , &amp;quot;courier new&amp;quot; , monospace ; font-size: 14px ; line-height: 19px&quot;&gt;一个函数和对其周围状态(lexical environment,词法环境)的引用捆绑在一起(或者说函数被引用包围),这样的组合就是闭包(closure)；&lt;br&gt;&lt;/div&gt;&lt;div style=&quot;text-align: left ; background-color: rgb(30 , 30 , 30) ; line-height: 19px&quot;&gt;&lt;font color=&quot;#d4d4d4&quot; face=&quot;consolas, courier new, monospace&quot;&gt;&lt;span style=&quot;font-size: 14px&quot;&gt;也就是说，闭包让你可以在一个内层函数中访问到其外层函数的作用域；&lt;/span&gt;&lt;/font&gt;&lt;br&gt;&lt;/div&gt;&lt;div style=&quot;text-align: left ; background-color: rgb(30 , 30 , 30) ; line-height: 19px&quot;&gt;&lt;font color=&quot;#d4d4d4&quot; face=&quot;consolas, courier new, monospace&quot;&gt;&lt;span style=&quot;font-size: 14px&quot;&gt;在 JavaScript 中，每当创建一个函数，闭包就会在函数创建的同时被创建出来；&lt;/span&gt;&lt;br&gt;&lt;/font&gt;&lt;/div&gt;&lt;div style=&quot;text-align: left ; background-color: rgb(30 , 30 , 30) ; line-height: 19px&quot;&gt;&lt;font color=&quot;#d4d4d4&quot; face=&quot;consolas, courier new, monospace&quot;&gt;&lt;span style=&quot;font-size: 14px&quot;&gt;&lt;br&gt;&lt;/span&gt;&lt;/font&gt;&lt;/div&gt;&lt;div style=&quot;text-align: left ; background-color: rgb(30 , 30 , 30) ; line-height: 19px&quot;&gt;&lt;br&gt;&lt;/div&gt;" style="text;html=1;align=center;verticalAlign=middle;resizable=0;points=[];autosize=1;strokeColor=none;fillColor=none;" parent="1" vertex="1">
                    <mxGeometry x="22" y="17" width="890" height="290" as="geometry"/>
                </mxCell>
            </root>
        </mxGraphModel>
    </diagram>
</mxfile>